SplineFontDB: 3.0
FontName: KarlaPatch
FullName: Karla Patch
FamilyName: Karla Patch
Weight: Book
Copyright: Copyright (c) 2011, Jonathan Pinhorn (pinhorn.typedesign@gmail.com), with Reserved Font Names "Karla" and "Karla Tamil".
Version: 1.000
ItalicAngle: 0
UnderlinePosition: -50
UnderlineWidth: 50
Ascent: 800
Descent: 200
sfntRevision: 0x00010000
LayerCount: 2
Layer: 0 1 "Back"  1
Layer: 1 1 "Fore"  0
NeedsXUIDChange: 1
XUID: [1021 619 1067718245 9588410]
FSType: 8
OS2Version: 3
OS2_WeightWidthSlopeOnly: 0
OS2_UseTypoMetrics: 1
CreationTime: 1307536560
ModificationTime: 1345654674
PfmFamily: 81
TTFWeight: 400
TTFWidth: 5
LineGap: 0
VLineGap: 0
Panose: 0 0 0 0 0 0 0 0 0 0
OS2TypoAscent: 117
OS2TypoAOffset: 1
OS2TypoDescent: -52
OS2TypoDOffset: 1
OS2TypoLinegap: 0
OS2WinAscent: 38
OS2WinAOffset: 1
OS2WinDescent: 6
OS2WinDOffset: 1
HheadAscent: 38
HheadAOffset: 1
HheadDescent: -6
HheadDOffset: 1
OS2SubXSize: 700
OS2SubYSize: 650
OS2SubXOff: 0
OS2SubYOff: 140
OS2SupXSize: 700
OS2SupYSize: 650
OS2SupXOff: 0
OS2SupYOff: 477
OS2StrikeYSize: 50
OS2StrikeYPos: 250
OS2Vendor: 'pyrs'
OS2CodePages: 00000001.00000000
OS2UnicodeRanges: 80000027.08000042.14000000.00000000
Lookup: 1 0 0 "'onum' Oldstyle Figures in Latin lookup 0"  {"'onum' Oldstyle Figures in Latin lookup 0 subtable" ("oldstyle" ) } ['onum' ('latn' <'dflt' > ) ]
Lookup: 258 0 0 "'kern' Horizontal Kerning in Latin lookup 0"  {"'kern' Horizontal Kerning in Latin lookup 0 subtable"  } ['kern' ('latn' <'dflt' > ) ]
MarkAttachClasses: 1
DEI: 91125
TtTable: prep
PUSHW_1
 511
SCANCTRL
PUSHB_1
 4
SCANTYPE
EndTTInstrs
ShortTable: maxp 16
  1
  0
  170
  502
  17
  0
  0
  2
  0
  1
  1
  0
  64
  0
  0
  0
EndShort
LangName: 1033 "" "" "Regular" "FontForge 2.0 : Karla Patch : 22-8-2012" "" "Version 1.000" "" "" "" "Jonathan Pinhorn" "" "" "jonpinhorn.com" "This Font Software is licensed under the SIL Open Font License, Version 1.1." "http://scripts.sil.org/OFL" 
GaspTable: 1 65535 3
Encoding: UnicodeBmp

StartChar: .notdef
Encoding: 65536 -1 0
Width: 553
Flags: W
LayerCount: 2
Fore
SplineSet
941 418 m 1,0,1
 906 426 906 426 873 445 c 0,2,3
 828 472 828 472 766 535 c 0,4,5
 716 587 716 587 698 602 c 1,6,7
 683 584 683 584 671 565 c 0,8,9
 648 525 648 525 648 482 c 0,10,11
 647 437 647 437 670.5 398.5 c 128,-1,12
 694 360 694 360 735 340.5 c 128,-1,13
 776 321 776 321 820.5 326.5 c 128,-1,14
 865 332 865 332 900 361 c 1,15,16
 926 384 926 384 941 418 c 1,0,1
951 451 m 1,17,18
 953 463 953 463 954 476 c 1,19,20
 954 508 954 508 939.5 539 c 128,-1,21
 925 570 925 570 902 591 c 0,22,23
 897 595 897 595 896 602.5 c 128,-1,24
 895 610 895 610 899.5 615 c 128,-1,25
 904 620 904 620 911.5 620.5 c 128,-1,26
 919 621 919 621 924 616 c 0,27,28
 954 590 954 590 971 552.5 c 128,-1,29
 988 515 988 515 988 475 c 1,30,31
 987 462 987 462 984 446 c 1,32,33
 997 446 997 446 1008 448 c 0,34,35
 1040 453 1040 453 1066 472 c 256,36,37
 1092 491 1092 491 1106 519 c 1,38,39
 1119 549 1119 549 1116 581 c 0,40,41
 1113 612 1113 612 1095 638 c 0,42,43
 1066 678 1066 678 1009 690 c 0,44,45
 965 700 965 700 902 692 c 0,46,47
 796 678 796 678 731 631 c 0,48,49
 727 628 727 628 724 625 c 1,50,51
 740 610 740 610 790 559 c 0,52,53
 849 499 849 499 891 475 c 1,54,55
 920 457 920 457 951 451 c 1,17,18
698 647 m 1,56,57
 704 653 704 653 711 658 c 0,58,59
 783 711 783 711 897 726 c 0,60,61
 966 735 966 735 1017 723 c 0,62,63
 1086 707 1086 707 1122 658 c 0,64,65
 1146 625 1146 625 1150 583 c 0,66,67
 1153 543 1153 543 1136 506 c 0,68,69
 1119 468 1119 468 1086 445 c 1,70,71
 1054 421 1054 421 1013 414 c 0,72,73
 995 411 995 411 976 412 c 1,74,75
 958 366 958 366 922 336 c 1,76,77
 880 299 880 299 825 292.5 c 128,-1,78
 770 286 770 286 720 309.5 c 128,-1,79
 670 333 670 333 641.5 380.5 c 128,-1,80
 613 428 613 428 614 483 c 0,81,82
 614 535 614 535 642 582 c 0,83,84
 655 604 655 604 672 623 c 1,85,86
 671 624 671 624 670 625 c 0,87,88
 612 669 612 669 557 672 c 1,89,90
 492 678 492 678 442.5 635.5 c 128,-1,91
 393 593 393 593 388 529 c 0,92,93
 388 522 388 522 382.5 517.5 c 128,-1,94
 377 513 377 513 370 513.5 c 128,-1,95
 363 514 363 514 358.5 519.5 c 128,-1,96
 354 525 354 525 354 531 c 0,97,98
 361 610 361 610 420.5 661 c 128,-1,99
 480 712 480 712 559 706 c 1,100,101
 625 702 625 702 691 652 c 0,102,103
 693 650 693 650 698 647 c 1,56,57
187 225 m 1,104,105
 179 280 179 280 191 333 c 0,106,107
 193 346 193 346 197 358 c 1,108,109
 195 371 195 371 194 385 c 0,110,111
 192 420 192 420 198 455 c 1,112,113
 213 526 213 526 260 581 c 1,114,115
 307 634 307 634 375 661 c 0,116,117
 422 679 422 679 473 681 c 1,118,119
 406 703 406 703 339 691 c 0,120,121
 272 680 272 680 216 637 c 128,-1,122
 160 594 160 594 132.5 532 c 128,-1,123
 105 470 105 470 109.5 399.5 c 128,-1,124
 114 329 114 329 150 272 c 0,125,126
 166 246 166 246 187 225 c 1,104,105
638 602 m 1,127,128
 685 537 685 537 694 459 c 0,129,130
 695 446 695 446 695 433 c 1,131,132
 696 426 696 426 695 418 c 1,133,134
 699 412 699 412 703 406 c 1,135,136
 707 402 707 402 709 396 c 1,137,138
 756 323 756 323 762 234 c 1,139,140
 766 248 766 248 769 260 c 0,141,142
 789 343 789 343 768 423 c 0,143,144
 746 504 746 504 687 562 c 0,145,146
 665 585 665 585 638 602 c 1,127,128
688 366 m 1,147,148
 676 313 676 313 646 271 c 1,149,150
 618 230 618 230 575.5 201.5 c 128,-1,151
 533 173 533 173 485 164 c 1,152,153
 435 153 435 153 385 164 c 128,-1,154
 335 175 335 175 295 204 c 1,155,156
 246 238 246 238 219 294 c 1,157,158
 214 248 214 248 226 204 c 0,159,160
 229 196 229 196 231 188 c 1,161,162
 239 183 239 183 248 178 c 0,163,164
 308 143 308 143 376 141 c 0,165,166
 383 141 383 141 387.5 135.5 c 128,-1,167
 392 130 392 130 392 123 c 128,-1,168
 392 116 392 116 386.5 111.5 c 128,-1,169
 381 107 381 107 374 107 c 0,170,171
 315 109 315 109 258 135 c 1,172,173
 260 130 260 130 264 125 c 0,174,175
 312 58 312 58 394 32 c 0,176,177
 473 6 473 6 555 30 c 0,178,179
 635 53 635 53 693 116 c 0,180,181
 708 133 708 133 722 153 c 1,182,183
 723 157 723 157 724 160 c 0,184,185
 726 175 726 175 727 190 c 0,186,187
 735 284 735 284 688 366 c 1,147,148
689 65 m 1,188,189
 633 17 633 17 565 -3 c 0,190,191
 473 -29 473 -29 384 0 c 0,192,193
 292 29 292 29 237 106 c 0,194,195
 223 124 223 124 213 146 c 0,196,197
 208 156 208 156 203 166 c 1,198,199
 195 172 195 172 187 179 c 0,200,201
 147 211 147 211 121 254 c 0,202,203
 81 318 81 318 76 397 c 128,-1,204
 71 476 71 476 102 546 c 128,-1,205
 133 616 133 616 195.5 664 c 128,-1,206
 258 712 258 712 333 725 c 0,207,208
 436 743 436 743 532 693 c 0,209,210
 551 683 551 683 570 669 c 1,211,212
 591 663 591 663 611 655 c 0,213,214
 668 630 668 630 711 587 c 0,215,216
 776 521 776 521 800 431 c 0,217,218
 824 343 824 343 802 253 c 0,219,220
 792 214 792 214 775 178 c 0,221,222
 766 158 766 158 754 140 c 1,223,224
 749 118 749 118 741 96 c 0,225,226
 706 3 706 3 628 -56 c 0,227,228
 577 -94 577 -94 514.5 -111.5 c 128,-1,229
 452 -129 452 -129 389.5 -122.5 c 128,-1,230
 327 -116 327 -116 269.5 -86.5 c 128,-1,231
 212 -57 212 -57 169 -10 c 0,232,233
 165 -5 165 -5 165.5 2.5 c 128,-1,234
 166 10 166 10 171 14.5 c 128,-1,235
 176 19 176 19 183.5 18.5 c 128,-1,236
 191 18 191 18 195 12 c 1,237,238
 233 -30 233 -30 285 -56.5 c 128,-1,239
 337 -83 337 -83 393 -88.5 c 128,-1,240
 449 -94 449 -94 505 -78 c 128,-1,241
 561 -62 561 -62 607 -28 c 0,242,243
 657 9 657 9 689 65 c 1,188,189
228 419 m 1,244,245
 248 449 248 449 272 472 c 0,246,247
 323 519 323 519 390 535 c 0,248,249
 482 557 482 557 572 517 c 0,250,251
 620 495 620 495 660 458 c 1,252,253
 649 545 649 545 587 610 c 0,254,255
 572 625 572 625 554 639 c 1,256,257
 551 640 551 640 547 640 c 1,258,259
 532 644 532 644 518 646 c 0,260,261
 450 653 450 653 388 629 c 0,262,263
 328 606 328 606 286 559 c 1,264,265
 244 510 244 510 231 449 c 0,266,267
 229 435 229 435 228 419 c 1,244,245
233 356 m 1,268,269
 237 340 237 340 242 328 c 0,270,271
 264 267 264 267 315 231 c 0,272,273
 350 206 350 206 393 197 c 128,-1,274
 436 188 436 188 478 197 c 0,275,276
 520 205 520 205 557 230 c 128,-1,277
 594 255 594 255 618 290 c 0,278,279
 651 337 651 337 659 396 c 0,280,281
 660 402 660 402 660 407 c 1,282,283
 656 412 656 412 653 415 c 0,284,285
 612 462 612 462 558 486 c 0,286,287
 479 521 479 521 398 502 c 1,288,289
 340 487 340 487 295 447 c 0,290,291
 261 416 261 416 242 374 c 0,292,293
 237 365 237 365 233 356 c 1,268,269
EndSplineSet
EndChar

StartChar: .null
Encoding: 65537 -1 1
Width: 0
GlyphClass: 2
Flags: W
LayerCount: 2
Fore
SplineSet
1081 95 m 1,0,1
 1072 93 1072 93 1065 91 c 0,2,3
 1030 85 1030 85 995 98 c 1,4,5
 964 111 964 111 939 138 c 0,6,7
 899 182 899 182 885 257 c 0,8,9
 882 275 882 275 880 298 c 1,10,11
 866 303 866 303 857 307 c 0,12,13
 796 330 796 330 763 359 c 1,14,15
 759 353 759 353 755 348 c 0,16,17
 709 283 709 283 716 202 c 0,18,19
 717 195 717 195 713 189.5 c 128,-1,20
 709 184 709 184 701.5 183.5 c 128,-1,21
 694 183 694 183 688.5 187.5 c 128,-1,22
 683 192 683 192 683 199 c 0,23,24
 673 291 673 291 727 368 c 0,25,26
 733 376 733 376 739 382 c 1,27,28
 718 409 718 409 710 438 c 1,29,30
 701 477 701 477 715 511 c 0,31,32
 731 549 731 549 767 563 c 0,33,34
 787 571 787 571 806 569 c 1,35,36
 827 568 827 568 844 556 c 0,37,38
 866 540 866 540 880 507 c 1,39,40
 889 489 889 489 894 469 c 1,41,42
 975 480 975 480 1045 442 c 0,43,44
 1085 421 1085 421 1115 386.5 c 128,-1,45
 1145 352 1145 352 1160 310 c 0,46,47
 1186 240 1186 240 1164 179 c 0,48,49
 1152 145 1152 145 1127 122 c 0,50,51
 1120 116 1120 116 1112 111 c 1,52,53
 1123 60 1123 60 1113 8 c 128,-1,54
 1103 -44 1103 -44 1076 -88 c 0,55,56
 1072 -94 1072 -94 1065 -95 c 128,-1,57
 1058 -96 1058 -96 1052.5 -92.5 c 128,-1,58
 1047 -89 1047 -89 1045.5 -82 c 128,-1,59
 1044 -75 1044 -75 1047 -69 c 0,60,61
 1095 6 1095 6 1081 95 c 1,0,1
912 323 m 1,62,63
 960 304 960 304 987 288 c 0,64,65
 1070 238 1070 238 1102 146 c 1,66,67
 1103 147 1103 147 1104 147 c 0,68,69
 1123 165 1123 165 1132 191 c 0,70,71
 1150 240 1150 240 1129 298 c 0,72,73
 1115 334 1115 334 1089 363.5 c 128,-1,74
 1063 393 1063 393 1029 412 c 0,75,76
 970 444 970 444 902 435 c 1,77,78
 905 412 905 412 908 382 c 0,79,80
 908 372 908 372 909.5 351.5 c 128,-1,81
 911 331 911 331 912 323 c 1,62,63
787 382 m 1,82,83
 816 359 816 359 869 338 c 0,84,85
 873 337 873 337 877 336 c 1,86,87
 874 375 874 375 874 380 c 0,88,89
 872 408 872 408 868 428 c 1,90,91
 823 415 823 415 787 382 c 1,82,83
763 407 m 1,92,93
 806 446 806 446 861 461 c 1,94,95
 857 479 857 479 850 494 c 0,96,97
 839 518 839 518 824 528 c 0,98,99
 815 535 815 535 803 535.5 c 128,-1,100
 791 536 791 536 780 532 c 0,101,102
 756 523 756 523 746 498 c 0,103,104
 737 474 737 474 744 447 c 0,105,106
 749 427 749 427 763 407 c 1,92,93
915 285 m 1,107,108
 917 273 917 273 919 263 c 0,109,110
 931 198 931 198 965 161 c 0,111,112
 984 140 984 140 1008 130 c 0,113,114
 1033 120 1033 120 1059 125 c 0,115,116
 1066 126 1066 126 1072 128 c 1,117,118
 1060 169 1060 169 1033 203 c 128,-1,119
 1006 237 1006 237 970 258 c 1,120,121
 948 272 948 272 915 285 c 1,107,108
187 225 m 1,122,123
 179 280 179 280 191 333 c 0,124,125
 193 346 193 346 197 358 c 1,126,127
 195 371 195 371 194 385 c 0,128,129
 192 420 192 420 198 455 c 1,130,131
 213 526 213 526 260 581 c 1,132,133
 307 634 307 634 375 661 c 0,134,135
 422 679 422 679 473 681 c 1,136,137
 406 703 406 703 339 691 c 0,138,139
 272 680 272 680 216 637 c 128,-1,140
 160 594 160 594 132.5 532 c 128,-1,141
 105 470 105 470 109.5 399.5 c 128,-1,142
 114 329 114 329 150 272 c 0,143,144
 166 246 166 246 187 225 c 1,122,123
638 602 m 1,145,146
 685 537 685 537 694 459 c 0,147,148
 695 446 695 446 695 433 c 1,149,150
 696 426 696 426 695 418 c 1,151,152
 699 412 699 412 703 406 c 1,153,154
 707 402 707 402 709 396 c 1,155,156
 756 323 756 323 762 234 c 1,157,158
 766 248 766 248 769 260 c 0,159,160
 789 343 789 343 768 423 c 0,161,162
 746 504 746 504 687 562 c 0,163,164
 665 585 665 585 638 602 c 1,145,146
688 366 m 1,165,166
 676 313 676 313 646 271 c 1,167,168
 618 230 618 230 575.5 201.5 c 128,-1,169
 533 173 533 173 485 164 c 1,170,171
 435 153 435 153 385 164 c 128,-1,172
 335 175 335 175 295 204 c 1,173,174
 246 238 246 238 219 294 c 1,175,176
 214 248 214 248 226 204 c 0,177,178
 229 196 229 196 231 188 c 1,179,180
 239 183 239 183 248 178 c 0,181,182
 308 143 308 143 376 141 c 0,183,184
 383 141 383 141 387.5 135.5 c 128,-1,185
 392 130 392 130 392 123 c 128,-1,186
 392 116 392 116 386.5 111.5 c 128,-1,187
 381 107 381 107 374 107 c 0,188,189
 315 109 315 109 258 135 c 1,190,191
 260 130 260 130 264 125 c 0,192,193
 312 58 312 58 394 32 c 0,194,195
 473 6 473 6 555 30 c 0,196,197
 635 53 635 53 693 116 c 0,198,199
 708 133 708 133 722 153 c 1,200,201
 723 157 723 157 724 160 c 0,202,203
 726 175 726 175 727 190 c 0,204,205
 735 284 735 284 688 366 c 1,165,166
689 65 m 1,206,207
 633 17 633 17 565 -3 c 0,208,209
 473 -29 473 -29 384 0 c 0,210,211
 292 29 292 29 237 106 c 0,212,213
 223 124 223 124 213 146 c 0,214,215
 208 156 208 156 203 166 c 1,216,217
 195 172 195 172 187 179 c 0,218,219
 147 211 147 211 121 254 c 0,220,221
 81 318 81 318 76 397 c 128,-1,222
 71 476 71 476 102 546 c 128,-1,223
 133 616 133 616 195.5 664 c 128,-1,224
 258 712 258 712 333 725 c 0,225,226
 436 743 436 743 532 693 c 0,227,228
 551 683 551 683 570 669 c 1,229,230
 591 663 591 663 611 655 c 0,231,232
 668 630 668 630 711 587 c 0,233,234
 776 521 776 521 800 431 c 0,235,236
 824 343 824 343 802 253 c 0,237,238
 792 214 792 214 775 178 c 0,239,240
 766 158 766 158 754 140 c 1,241,242
 749 118 749 118 741 96 c 0,243,244
 706 3 706 3 628 -56 c 0,245,246
 577 -94 577 -94 514.5 -111.5 c 128,-1,247
 452 -129 452 -129 389.5 -122.5 c 128,-1,248
 327 -116 327 -116 269.5 -86.5 c 128,-1,249
 212 -57 212 -57 169 -10 c 0,250,251
 165 -5 165 -5 165.5 2.5 c 128,-1,252
 166 10 166 10 171 14.5 c 128,-1,253
 176 19 176 19 183.5 18.5 c 128,-1,254
 191 18 191 18 195 12 c 1,255,256
 233 -30 233 -30 285 -56.5 c 128,-1,257
 337 -83 337 -83 393 -88.5 c 128,-1,258
 449 -94 449 -94 505 -78 c 128,-1,259
 561 -62 561 -62 607 -28 c 0,260,261
 657 9 657 9 689 65 c 1,206,207
228 419 m 1,262,263
 248 449 248 449 272 472 c 0,264,265
 323 519 323 519 390 535 c 0,266,267
 482 557 482 557 572 517 c 0,268,269
 620 495 620 495 660 458 c 1,270,271
 649 545 649 545 587 610 c 0,272,273
 572 625 572 625 554 639 c 1,274,275
 551 640 551 640 547 640 c 1,276,277
 532 644 532 644 518 646 c 0,278,279
 450 653 450 653 388 629 c 0,280,281
 328 606 328 606 286 559 c 1,282,283
 244 510 244 510 231 449 c 0,284,285
 229 435 229 435 228 419 c 1,262,263
233 356 m 1,286,287
 237 340 237 340 242 328 c 0,288,289
 264 267 264 267 315 231 c 0,290,291
 350 206 350 206 393 197 c 128,-1,292
 436 188 436 188 478 197 c 0,293,294
 520 205 520 205 557 230 c 128,-1,295
 594 255 594 255 618 290 c 0,296,297
 651 337 651 337 659 396 c 0,298,299
 660 402 660 402 660 407 c 1,300,301
 656 412 656 412 653 415 c 0,302,303
 612 462 612 462 558 486 c 0,304,305
 479 521 479 521 398 502 c 1,306,307
 340 487 340 487 295 447 c 0,308,309
 261 416 261 416 242 374 c 0,310,311
 237 365 237 365 233 356 c 1,286,287
EndSplineSet
EndChar

StartChar: nonmarkingreturn
Encoding: 65538 -1 2
Width: 553
GlyphClass: 2
Flags: W
LayerCount: 2
Fore
SplineSet
941 418 m 1,0,1
 906 426 906 426 873 445 c 0,2,3
 828 472 828 472 766 535 c 0,4,5
 716 587 716 587 698 602 c 1,6,7
 683 584 683 584 671 565 c 0,8,9
 648 525 648 525 648 482 c 0,10,11
 647 437 647 437 670.5 398.5 c 128,-1,12
 694 360 694 360 735 340.5 c 128,-1,13
 776 321 776 321 820.5 326.5 c 128,-1,14
 865 332 865 332 900 361 c 1,15,16
 926 384 926 384 941 418 c 1,0,1
951 451 m 1,17,18
 953 463 953 463 954 476 c 1,19,20
 954 508 954 508 939.5 539 c 128,-1,21
 925 570 925 570 902 591 c 0,22,23
 897 595 897 595 896 602.5 c 128,-1,24
 895 610 895 610 899.5 615 c 128,-1,25
 904 620 904 620 911.5 620.5 c 128,-1,26
 919 621 919 621 924 616 c 0,27,28
 954 590 954 590 971 552.5 c 128,-1,29
 988 515 988 515 988 475 c 1,30,31
 987 462 987 462 984 446 c 1,32,33
 997 446 997 446 1008 448 c 0,34,35
 1040 453 1040 453 1066 472 c 256,36,37
 1092 491 1092 491 1106 519 c 1,38,39
 1119 549 1119 549 1116 581 c 0,40,41
 1113 612 1113 612 1095 638 c 0,42,43
 1066 678 1066 678 1009 690 c 0,44,45
 965 700 965 700 902 692 c 0,46,47
 796 678 796 678 731 631 c 0,48,49
 727 628 727 628 724 625 c 1,50,51
 740 610 740 610 790 559 c 0,52,53
 849 499 849 499 891 475 c 1,54,55
 920 457 920 457 951 451 c 1,17,18
698 647 m 1,56,57
 704 653 704 653 711 658 c 0,58,59
 783 711 783 711 897 726 c 0,60,61
 966 735 966 735 1017 723 c 0,62,63
 1086 707 1086 707 1122 658 c 0,64,65
 1146 625 1146 625 1150 583 c 0,66,67
 1153 543 1153 543 1136 506 c 0,68,69
 1119 468 1119 468 1086 445 c 1,70,71
 1054 421 1054 421 1013 414 c 0,72,73
 995 411 995 411 976 412 c 1,74,75
 958 366 958 366 922 336 c 1,76,77
 880 299 880 299 825 292.5 c 128,-1,78
 770 286 770 286 720 309.5 c 128,-1,79
 670 333 670 333 641.5 380.5 c 128,-1,80
 613 428 613 428 614 483 c 0,81,82
 614 535 614 535 642 582 c 0,83,84
 655 604 655 604 672 623 c 1,85,86
 671 624 671 624 670 625 c 0,87,88
 612 669 612 669 557 672 c 1,89,90
 492 678 492 678 442.5 635.5 c 128,-1,91
 393 593 393 593 388 529 c 0,92,93
 388 522 388 522 382.5 517.5 c 128,-1,94
 377 513 377 513 370 513.5 c 128,-1,95
 363 514 363 514 358.5 519.5 c 128,-1,96
 354 525 354 525 354 531 c 0,97,98
 361 610 361 610 420.5 661 c 128,-1,99
 480 712 480 712 559 706 c 1,100,101
 625 702 625 702 691 652 c 0,102,103
 693 650 693 650 698 647 c 1,56,57
EndSplineSet
EndChar

StartChar: space
Encoding: 32 32 3
AltUni2: 0000a0.ffffffff.0
Width: 238
GlyphClass: 2
Flags: W
LayerCount: 2
Fore
SplineSet
187 225 m 1,0,1
 179 280 179 280 191 333 c 0,2,3
 193 346 193 346 197 358 c 1,4,5
 195 371 195 371 194 385 c 0,6,7
 192 420 192 420 198 455 c 1,8,9
 213 526 213 526 260 581 c 1,10,11
 307 634 307 634 375 661 c 0,12,13
 422 679 422 679 473 681 c 1,14,15
 406 703 406 703 339 691 c 0,16,17
 272 680 272 680 216 637 c 128,-1,18
 160 594 160 594 132.5 532 c 128,-1,19
 105 470 105 470 109.5 399.5 c 128,-1,20
 114 329 114 329 150 272 c 0,21,22
 166 246 166 246 187 225 c 1,0,1
638 602 m 1,23,24
 685 537 685 537 694 459 c 0,25,26
 695 446 695 446 695 433 c 1,27,28
 696 426 696 426 695 418 c 1,29,30
 699 412 699 412 703 406 c 1,31,32
 707 402 707 402 709 396 c 1,33,34
 756 323 756 323 762 234 c 1,35,36
 766 248 766 248 769 260 c 0,37,38
 789 343 789 343 768 423 c 0,39,40
 746 504 746 504 687 562 c 0,41,42
 665 585 665 585 638 602 c 1,23,24
688 366 m 1,43,44
 676 313 676 313 646 271 c 1,45,46
 618 230 618 230 575.5 201.5 c 128,-1,47
 533 173 533 173 485 164 c 1,48,49
 435 153 435 153 385 164 c 128,-1,50
 335 175 335 175 295 204 c 1,51,52
 246 238 246 238 219 294 c 1,53,54
 214 248 214 248 226 204 c 0,55,56
 229 196 229 196 231 188 c 1,57,58
 239 183 239 183 248 178 c 0,59,60
 308 143 308 143 376 141 c 0,61,62
 383 141 383 141 387.5 135.5 c 128,-1,63
 392 130 392 130 392 123 c 128,-1,64
 392 116 392 116 386.5 111.5 c 128,-1,65
 381 107 381 107 374 107 c 0,66,67
 315 109 315 109 258 135 c 1,68,69
 260 130 260 130 264 125 c 0,70,71
 312 58 312 58 394 32 c 0,72,73
 473 6 473 6 555 30 c 0,74,75
 635 53 635 53 693 116 c 0,76,77
 708 133 708 133 722 153 c 1,78,79
 723 157 723 157 724 160 c 0,80,81
 726 175 726 175 727 190 c 0,82,83
 735 284 735 284 688 366 c 1,43,44
689 65 m 1,84,85
 633 17 633 17 565 -3 c 0,86,87
 473 -29 473 -29 384 0 c 0,88,89
 292 29 292 29 237 106 c 0,90,91
 223 124 223 124 213 146 c 0,92,93
 208 156 208 156 203 166 c 1,94,95
 195 172 195 172 187 179 c 0,96,97
 147 211 147 211 121 254 c 0,98,99
 81 318 81 318 76 397 c 128,-1,100
 71 476 71 476 102 546 c 128,-1,101
 133 616 133 616 195.5 664 c 128,-1,102
 258 712 258 712 333 725 c 0,103,104
 436 743 436 743 532 693 c 0,105,106
 551 683 551 683 570 669 c 1,107,108
 591 663 591 663 611 655 c 0,109,110
 668 630 668 630 711 587 c 0,111,112
 776 521 776 521 800 431 c 0,113,114
 824 343 824 343 802 253 c 0,115,116
 792 214 792 214 775 178 c 0,117,118
 766 158 766 158 754 140 c 1,119,120
 749 118 749 118 741 96 c 0,121,122
 706 3 706 3 628 -56 c 0,123,124
 577 -94 577 -94 514.5 -111.5 c 128,-1,125
 452 -129 452 -129 389.5 -122.5 c 128,-1,126
 327 -116 327 -116 269.5 -86.5 c 128,-1,127
 212 -57 212 -57 169 -10 c 0,128,129
 165 -5 165 -5 165.5 2.5 c 128,-1,130
 166 10 166 10 171 14.5 c 128,-1,131
 176 19 176 19 183.5 18.5 c 128,-1,132
 191 18 191 18 195 12 c 1,133,134
 233 -30 233 -30 285 -56.5 c 128,-1,135
 337 -83 337 -83 393 -88.5 c 128,-1,136
 449 -94 449 -94 505 -78 c 128,-1,137
 561 -62 561 -62 607 -28 c 0,138,139
 657 9 657 9 689 65 c 1,84,85
228 419 m 1,140,141
 248 449 248 449 272 472 c 0,142,143
 323 519 323 519 390 535 c 0,144,145
 482 557 482 557 572 517 c 0,146,147
 620 495 620 495 660 458 c 1,148,149
 649 545 649 545 587 610 c 0,150,151
 572 625 572 625 554 639 c 1,152,153
 551 640 551 640 547 640 c 1,154,155
 532 644 532 644 518 646 c 0,156,157
 450 653 450 653 388 629 c 0,158,159
 328 606 328 606 286 559 c 1,160,161
 244 510 244 510 231 449 c 0,162,163
 229 435 229 435 228 419 c 1,140,141
233 356 m 1,164,165
 237 340 237 340 242 328 c 0,166,167
 264 267 264 267 315 231 c 0,168,169
 350 206 350 206 393 197 c 128,-1,170
 436 188 436 188 478 197 c 0,171,172
 520 205 520 205 557 230 c 128,-1,173
 594 255 594 255 618 290 c 0,174,175
 651 337 651 337 659 396 c 0,176,177
 660 402 660 402 660 407 c 1,178,179
 656 412 656 412 653 415 c 0,180,181
 612 462 612 462 558 486 c 0,182,183
 479 521 479 521 398 502 c 1,184,185
 340 487 340 487 295 447 c 0,186,187
 261 416 261 416 242 374 c 0,188,189
 237 365 237 365 233 356 c 1,164,165
EndSplineSet
EndChar

StartChar: exclam
Encoding: 33 33 4
Width: 278
GlyphClass: 2
Flags: W
LayerCount: 2
Fore
SplineSet
99 627 m 1,0,-1
 182 627 l 1,1,-1
 173 176 l 1,2,-1
 109 176 l 1,3,-1
 99 627 l 1,0,-1
98.5 7.5 m 128,-1,5
 82 24 82 24 82 47.5 c 128,-1,6
 82 71 82 71 98.5 87.5 c 128,-1,7
 115 104 115 104 140.5 104 c 128,-1,8
 166 104 166 104 183.5 87.5 c 128,-1,9
 201 71 201 71 201 47.5 c 128,-1,10
 201 24 201 24 183.5 7.5 c 128,-1,11
 166 -9 166 -9 140.5 -9 c 128,-1,4
 115 -9 115 -9 98.5 7.5 c 128,-1,5
1081 95 m 1,12,13
 1072 93 1072 93 1065 91 c 0,14,15
 1030 85 1030 85 995 98 c 1,16,17
 964 111 964 111 939 138 c 0,18,19
 899 182 899 182 885 257 c 0,20,21
 882 275 882 275 880 298 c 1,22,23
 866 303 866 303 857 307 c 0,24,25
 796 330 796 330 763 359 c 1,26,27
 759 353 759 353 755 348 c 0,28,29
 709 283 709 283 716 202 c 0,30,31
 717 195 717 195 713 189.5 c 128,-1,32
 709 184 709 184 701.5 183.5 c 128,-1,33
 694 183 694 183 688.5 187.5 c 128,-1,34
 683 192 683 192 683 199 c 0,35,36
 673 291 673 291 727 368 c 0,37,38
 733 376 733 376 739 382 c 1,39,40
 718 409 718 409 710 438 c 1,41,42
 701 477 701 477 715 511 c 0,43,44
 731 549 731 549 767 563 c 0,45,46
 787 571 787 571 806 569 c 1,47,48
 827 568 827 568 844 556 c 0,49,50
 866 540 866 540 880 507 c 1,51,52
 889 489 889 489 894 469 c 1,53,54
 975 480 975 480 1045 442 c 0,55,56
 1085 421 1085 421 1115 386.5 c 128,-1,57
 1145 352 1145 352 1160 310 c 0,58,59
 1186 240 1186 240 1164 179 c 0,60,61
 1152 145 1152 145 1127 122 c 0,62,63
 1120 116 1120 116 1112 111 c 1,64,65
 1123 60 1123 60 1113 8 c 128,-1,66
 1103 -44 1103 -44 1076 -88 c 0,67,68
 1072 -94 1072 -94 1065 -95 c 128,-1,69
 1058 -96 1058 -96 1052.5 -92.5 c 128,-1,70
 1047 -89 1047 -89 1045.5 -82 c 128,-1,71
 1044 -75 1044 -75 1047 -69 c 0,72,73
 1095 6 1095 6 1081 95 c 1,12,13
912 323 m 1,74,75
 960 304 960 304 987 288 c 0,76,77
 1070 238 1070 238 1102 146 c 1,78,79
 1103 147 1103 147 1104 147 c 0,80,81
 1123 165 1123 165 1132 191 c 0,82,83
 1150 240 1150 240 1129 298 c 0,84,85
 1115 334 1115 334 1089 363.5 c 128,-1,86
 1063 393 1063 393 1029 412 c 0,87,88
 970 444 970 444 902 435 c 1,89,90
 905 412 905 412 908 382 c 0,91,92
 908 372 908 372 909.5 351.5 c 128,-1,93
 911 331 911 331 912 323 c 1,74,75
787 382 m 1,94,95
 816 359 816 359 869 338 c 0,96,97
 873 337 873 337 877 336 c 1,98,99
 874 375 874 375 874 380 c 0,100,101
 872 408 872 408 868 428 c 1,102,103
 823 415 823 415 787 382 c 1,94,95
763 407 m 1,104,105
 806 446 806 446 861 461 c 1,106,107
 857 479 857 479 850 494 c 0,108,109
 839 518 839 518 824 528 c 0,110,111
 815 535 815 535 803 535.5 c 128,-1,112
 791 536 791 536 780 532 c 0,113,114
 756 523 756 523 746 498 c 0,115,116
 737 474 737 474 744 447 c 0,117,118
 749 427 749 427 763 407 c 1,104,105
915 285 m 1,119,120
 917 273 917 273 919 263 c 0,121,122
 931 198 931 198 965 161 c 0,123,124
 984 140 984 140 1008 130 c 0,125,126
 1033 120 1033 120 1059 125 c 0,127,128
 1066 126 1066 126 1072 128 c 1,129,130
 1060 169 1060 169 1033 203 c 128,-1,131
 1006 237 1006 237 970 258 c 1,132,133
 948 272 948 272 915 285 c 1,119,120
EndSplineSet
EndChar

StartChar: quotedbl
Encoding: 34 34 5
Width: 306
GlyphClass: 2
Flags: W
LayerCount: 2
Fore
SplineSet
110 681 m 1,0,-1
 99 461 l 1,1,-1
 39 461 l 1,2,-1
 28 681 l 1,3,-1
 110 681 l 1,0,-1
278 681 m 1,4,-1
 267 461 l 1,5,-1
 207 461 l 1,6,-1
 196 681 l 1,7,-1
 278 681 l 1,4,-1
EndSplineSet
EndChar

StartChar: numbersign
Encoding: 35 35 6
Width: 627
GlyphClass: 2
Flags: W
LayerCount: 2
Fore
SplineSet
380 170 m 1,0,-1
 226 170 l 1,1,-1
 212 31 l 1,2,-1
 138 31 l 1,3,-1
 152 170 l 1,4,-1
 53 170 l 1,5,-1
 58 224 l 1,6,-1
 158 224 l 1,7,-1
 177 402 l 1,8,-1
 76 402 l 1,9,-1
 82 455 l 1,10,-1
 182 455 l 1,11,-1
 197 593 l 1,12,-1
 271 593 l 1,13,-1
 256 455 l 1,14,-1
 410 455 l 1,15,-1
 425 593 l 1,16,-1
 498 593 l 1,17,-1
 483 455 l 1,18,-1
 586 455 l 1,19,-1
 580 402 l 1,20,-1
 478 402 l 1,21,-1
 459 224 l 1,22,-1
 562 224 l 1,23,-1
 556 170 l 1,24,-1
 453 170 l 1,25,-1
 439 31 l 1,26,-1
 365 31 l 1,27,-1
 380 170 l 1,0,-1
232 224 m 1,28,-1
 385 224 l 1,29,-1
 404 402 l 1,30,-1
 251 402 l 1,31,-1
 232 224 l 1,28,-1
941 418 m 1,32,33
 906 426 906 426 873 445 c 0,34,35
 828 472 828 472 766 535 c 0,36,37
 716 587 716 587 698 602 c 1,38,39
 683 584 683 584 671 565 c 0,40,41
 648 525 648 525 648 482 c 0,42,43
 647 437 647 437 670.5 398.5 c 128,-1,44
 694 360 694 360 735 340.5 c 128,-1,45
 776 321 776 321 820.5 326.5 c 128,-1,46
 865 332 865 332 900 361 c 1,47,48
 926 384 926 384 941 418 c 1,32,33
951 451 m 1,49,50
 953 463 953 463 954 476 c 1,51,52
 954 508 954 508 939.5 539 c 128,-1,53
 925 570 925 570 902 591 c 0,54,55
 897 595 897 595 896 602.5 c 128,-1,56
 895 610 895 610 899.5 615 c 128,-1,57
 904 620 904 620 911.5 620.5 c 128,-1,58
 919 621 919 621 924 616 c 0,59,60
 954 590 954 590 971 552.5 c 128,-1,61
 988 515 988 515 988 475 c 1,62,63
 987 462 987 462 984 446 c 1,64,65
 997 446 997 446 1008 448 c 0,66,67
 1040 453 1040 453 1066 472 c 256,68,69
 1092 491 1092 491 1106 519 c 1,70,71
 1119 549 1119 549 1116 581 c 0,72,73
 1113 612 1113 612 1095 638 c 0,74,75
 1066 678 1066 678 1009 690 c 0,76,77
 965 700 965 700 902 692 c 0,78,79
 796 678 796 678 731 631 c 0,80,81
 727 628 727 628 724 625 c 1,82,83
 740 610 740 610 790 559 c 0,84,85
 849 499 849 499 891 475 c 1,86,87
 920 457 920 457 951 451 c 1,49,50
698 647 m 1,88,89
 704 653 704 653 711 658 c 0,90,91
 783 711 783 711 897 726 c 0,92,93
 966 735 966 735 1017 723 c 0,94,95
 1086 707 1086 707 1122 658 c 0,96,97
 1146 625 1146 625 1150 583 c 0,98,99
 1153 543 1153 543 1136 506 c 0,100,101
 1119 468 1119 468 1086 445 c 1,102,103
 1054 421 1054 421 1013 414 c 0,104,105
 995 411 995 411 976 412 c 1,106,107
 958 366 958 366 922 336 c 1,108,109
 880 299 880 299 825 292.5 c 128,-1,110
 770 286 770 286 720 309.5 c 128,-1,111
 670 333 670 333 641.5 380.5 c 128,-1,112
 613 428 613 428 614 483 c 0,113,114
 614 535 614 535 642 582 c 0,115,116
 655 604 655 604 672 623 c 1,117,118
 671 624 671 624 670 625 c 0,119,120
 612 669 612 669 557 672 c 1,121,122
 492 678 492 678 442.5 635.5 c 128,-1,123
 393 593 393 593 388 529 c 0,124,125
 388 522 388 522 382.5 517.5 c 128,-1,126
 377 513 377 513 370 513.5 c 128,-1,127
 363 514 363 514 358.5 519.5 c 128,-1,128
 354 525 354 525 354 531 c 0,129,130
 361 610 361 610 420.5 661 c 128,-1,131
 480 712 480 712 559 706 c 1,132,133
 625 702 625 702 691 652 c 0,134,135
 693 650 693 650 698 647 c 1,88,89
EndSplineSet
EndChar

StartChar: dollar
Encoding: 36 36 7
Width: 632
GlyphClass: 2
Flags: W
LayerCount: 2
Fore
SplineSet
417 330 m 2,0,1
 486 307 486 307 524.5 268.5 c 128,-1,2
 563 230 563 230 563 163.5 c 128,-1,3
 563 97 563 97 506 46.5 c 128,-1,4
 449 -4 449 -4 347 -10 c 1,5,-1
 347 -91 l 1,6,-1
 285 -91 l 1,7,-1
 285 -9 l 1,8,9
 190 -1 190 -1 129.5 50.5 c 128,-1,10
 69 102 69 102 69 189 c 1,11,-1
 146 189 l 1,12,13
 146 76 146 76 285 63 c 1,14,-1
 285 298 l 1,15,-1
 253 310 l 1,16,17
 170 336 170 336 127.5 372 c 128,-1,18
 85 408 85 408 85 475 c 128,-1,19
 85 542 85 542 135.5 586.5 c 128,-1,20
 186 631 186 631 285 638 c 1,21,-1
 285 713 l 1,22,-1
 347 713 l 1,23,-1
 347 637 l 1,24,25
 434 630 434 630 481 587 c 128,-1,26
 528 544 528 544 539 476 c 1,27,-1
 461 476 l 1,28,29
 444 556 444 556 347 568 c 1,30,-1
 347 353 l 1,31,-1
 417 330 l 2,0,1
475 167 m 0,32,33
 475 241 475 241 383 270 c 1,34,-1
 347 282 l 1,35,-1
 347 62 l 1,36,37
 410 67 410 67 442.5 98 c 128,-1,38
 475 129 475 129 475 167 c 0,32,33
199 536 m 128,-1,40
 170 509 170 509 170 472.5 c 128,-1,41
 170 436 170 436 190 415.5 c 128,-1,42
 210 395 210 395 255 381 c 1,43,-1
 285 370 l 1,44,-1
 285 569 l 1,45,39
 228 563 228 563 199 536 c 128,-1,40
EndSplineSet
EndChar

StartChar: percent
Encoding: 37 37 8
Width: 726
GlyphClass: 2
Flags: W
LayerCount: 2
Fore
SplineSet
279 602 m 128,-1,1
 317 564 317 564 317 496 c 256,2,3
 317 428 317 428 279.5 390.5 c 128,-1,4
 242 353 242 353 188 353 c 128,-1,5
 134 353 134 353 97.5 391 c 128,-1,6
 61 429 61 429 61 496 c 256,7,8
 61 563 61 563 98 601.5 c 128,-1,9
 135 640 135 640 188 640 c 128,-1,0
 241 640 241 640 279 602 c 128,-1,1
235 565 m 128,-1,11
 217 587 217 587 188 587 c 128,-1,12
 159 587 159 587 141 565 c 128,-1,13
 123 543 123 543 123 496 c 256,14,15
 123 449 123 449 141 428 c 128,-1,16
 159 407 159 407 188 407 c 128,-1,17
 217 407 217 407 235 428 c 128,-1,18
 253 449 253 449 253 496 c 256,19,10
 253 543 253 543 235 565 c 128,-1,11
534 629 m 1,20,-1
 616 629 l 1,21,-1
 193 0 l 1,22,-1
 112 0 l 1,23,-1
 534 629 l 1,20,-1
538 276 m 256,24,25
 592 276 592 276 629.5 238.5 c 128,-1,26
 667 201 667 201 667 132.5 c 128,-1,27
 667 64 667 64 629.5 26.5 c 128,-1,28
 592 -11 592 -11 538 -11 c 256,29,30
 484 -11 484 -11 447.5 27 c 128,-1,31
 411 65 411 65 411 132.5 c 128,-1,32
 411 200 411 200 447.5 238 c 128,-1,33
 484 276 484 276 538 276 c 256,24,25
538 223 m 256,34,35
 509 223 509 223 491 201 c 128,-1,36
 473 179 473 179 473 132 c 256,37,38
 473 85 473 85 491 64 c 128,-1,39
 509 43 509 43 538 43 c 256,40,41
 567 43 567 43 585 64 c 128,-1,42
 603 85 603 85 603 132 c 256,43,44
 603 179 603 179 585 201 c 128,-1,45
 567 223 567 223 538 223 c 256,34,35
941 418 m 1,46,47
 906 426 906 426 873 445 c 0,48,49
 828 472 828 472 766 535 c 0,50,51
 716 587 716 587 698 602 c 1,52,53
 683 584 683 584 671 565 c 0,54,55
 648 525 648 525 648 482 c 0,56,57
 647 437 647 437 670.5 398.5 c 128,-1,58
 694 360 694 360 735 340.5 c 128,-1,59
 776 321 776 321 820.5 326.5 c 128,-1,60
 865 332 865 332 900 361 c 1,61,62
 926 384 926 384 941 418 c 1,46,47
951 451 m 1,63,64
 953 463 953 463 954 476 c 1,65,66
 954 508 954 508 939.5 539 c 128,-1,67
 925 570 925 570 902 591 c 0,68,69
 897 595 897 595 896 602.5 c 128,-1,70
 895 610 895 610 899.5 615 c 128,-1,71
 904 620 904 620 911.5 620.5 c 128,-1,72
 919 621 919 621 924 616 c 0,73,74
 954 590 954 590 971 552.5 c 128,-1,75
 988 515 988 515 988 475 c 1,76,77
 987 462 987 462 984 446 c 1,78,79
 997 446 997 446 1008 448 c 0,80,81
 1040 453 1040 453 1066 472 c 256,82,83
 1092 491 1092 491 1106 519 c 1,84,85
 1119 549 1119 549 1116 581 c 0,86,87
 1113 612 1113 612 1095 638 c 0,88,89
 1066 678 1066 678 1009 690 c 0,90,91
 965 700 965 700 902 692 c 0,92,93
 796 678 796 678 731 631 c 0,94,95
 727 628 727 628 724 625 c 1,96,97
 740 610 740 610 790 559 c 0,98,99
 849 499 849 499 891 475 c 1,100,101
 920 457 920 457 951 451 c 1,63,64
698 647 m 1,102,103
 704 653 704 653 711 658 c 0,104,105
 783 711 783 711 897 726 c 0,106,107
 966 735 966 735 1017 723 c 0,108,109
 1086 707 1086 707 1122 658 c 0,110,111
 1146 625 1146 625 1150 583 c 0,112,113
 1153 543 1153 543 1136 506 c 0,114,115
 1119 468 1119 468 1086 445 c 1,116,117
 1054 421 1054 421 1013 414 c 0,118,119
 995 411 995 411 976 412 c 1,120,121
 958 366 958 366 922 336 c 1,122,123
 880 299 880 299 825 292.5 c 128,-1,124
 770 286 770 286 720 309.5 c 128,-1,125
 670 333 670 333 641.5 380.5 c 128,-1,126
 613 428 613 428 614 483 c 0,127,128
 614 535 614 535 642 582 c 0,129,130
 655 604 655 604 672 623 c 1,131,132
 671 624 671 624 670 625 c 0,133,134
 612 669 612 669 557 672 c 1,135,136
 492 678 492 678 442.5 635.5 c 128,-1,137
 393 593 393 593 388 529 c 0,138,139
 388 522 388 522 382.5 517.5 c 128,-1,140
 377 513 377 513 370 513.5 c 128,-1,141
 363 514 363 514 358.5 519.5 c 128,-1,142
 354 525 354 525 354 531 c 0,143,144
 361 610 361 610 420.5 661 c 128,-1,145
 480 712 480 712 559 706 c 1,146,147
 625 702 625 702 691 652 c 0,148,149
 693 650 693 650 698 647 c 1,102,103
EndSplineSet
EndChar

StartChar: ampersand
Encoding: 38 38 9
Width: 916
GlyphClass: 2
Flags: W
LayerCount: 2
Fore
SplineSet
725 350 m 1,0,1
 680 213 680 213 610 128 c 1,2,-1
 653 91 l 2,3,4
 673 74 673 74 688.5 66 c 128,-1,5
 704 58 704 58 728.5 58 c 128,-1,6
 753 58 753 58 772.5 76.5 c 128,-1,7
 792 95 792 95 795 140 c 1,8,-1
 869 140 l 1,9,10
 865 68 865 68 831.5 28.5 c 128,-1,11
 798 -11 798 -11 734 -11 c 0,12,13
 695 -11 695 -11 662 5 c 128,-1,14
 629 21 629 21 590 56 c 1,15,-1
 564 78 l 1,16,17
 464 -11 464 -11 336 -11 c 0,18,19
 231 -11 231 -11 160 41.5 c 128,-1,20
 89 94 89 94 89 168 c 128,-1,21
 89 242 89 242 136.5 279.5 c 128,-1,22
 184 317 184 317 276 332 c 1,23,-1
 262 345 l 1,24,25
 185 412 185 412 185 492 c 0,26,27
 185 555 185 555 237.5 597 c 128,-1,28
 290 639 290 639 376.5 639 c 128,-1,29
 463 639 463 639 514.5 597 c 128,-1,30
 566 555 566 555 566 495.5 c 128,-1,31
 566 436 566 436 527 393 c 128,-1,32
 488 350 488 350 400 312 c 1,33,-1
 558 173 l 1,34,35
 626 255 626 255 670 380 c 1,36,-1
 725 350 l 1,0,1
211.5 251 m 128,-1,38
 175 224 175 224 175 176 c 128,-1,39
 175 128 175 128 216.5 93.5 c 128,-1,40
 258 59 258 59 344 59 c 128,-1,41
 430 59 430 59 511 125 c 1,42,-1
 325 288 l 1,43,37
 248 278 248 278 211.5 251 c 128,-1,38
480 488 m 0,44,45
 480 524 480 524 452.5 548 c 128,-1,46
 425 572 425 572 375.5 572 c 128,-1,47
 326 572 326 572 298.5 544.5 c 128,-1,48
 271 517 271 517 271 485 c 128,-1,49
 271 453 271 453 284 428 c 128,-1,50
 297 403 297 403 327 377 c 1,51,-1
 354 352 l 1,52,53
 458 400 458 400 474 452 c 0,54,55
 480 469 480 469 480 488 c 0,44,45
941 418 m 1,56,57
 906 426 906 426 873 445 c 0,58,59
 828 472 828 472 766 535 c 0,60,61
 716 587 716 587 698 602 c 1,62,63
 683 584 683 584 671 565 c 0,64,65
 648 525 648 525 648 482 c 0,66,67
 647 437 647 437 670.5 398.5 c 128,-1,68
 694 360 694 360 735 340.5 c 128,-1,69
 776 321 776 321 820.5 326.5 c 128,-1,70
 865 332 865 332 900 361 c 1,71,72
 926 384 926 384 941 418 c 1,56,57
951 451 m 1,73,74
 953 463 953 463 954 476 c 1,75,76
 954 508 954 508 939.5 539 c 128,-1,77
 925 570 925 570 902 591 c 0,78,79
 897 595 897 595 896 602.5 c 128,-1,80
 895 610 895 610 899.5 615 c 128,-1,81
 904 620 904 620 911.5 620.5 c 128,-1,82
 919 621 919 621 924 616 c 0,83,84
 954 590 954 590 971 552.5 c 128,-1,85
 988 515 988 515 988 475 c 1,86,87
 987 462 987 462 984 446 c 1,88,89
 997 446 997 446 1008 448 c 0,90,91
 1040 453 1040 453 1066 472 c 256,92,93
 1092 491 1092 491 1106 519 c 1,94,95
 1119 549 1119 549 1116 581 c 0,96,97
 1113 612 1113 612 1095 638 c 0,98,99
 1066 678 1066 678 1009 690 c 0,100,101
 965 700 965 700 902 692 c 0,102,103
 796 678 796 678 731 631 c 0,104,105
 727 628 727 628 724 625 c 1,106,107
 740 610 740 610 790 559 c 0,108,109
 849 499 849 499 891 475 c 1,110,111
 920 457 920 457 951 451 c 1,73,74
698 647 m 1,112,113
 704 653 704 653 711 658 c 0,114,115
 783 711 783 711 897 726 c 0,116,117
 966 735 966 735 1017 723 c 0,118,119
 1086 707 1086 707 1122 658 c 0,120,121
 1146 625 1146 625 1150 583 c 0,122,123
 1153 543 1153 543 1136 506 c 0,124,125
 1119 468 1119 468 1086 445 c 1,126,127
 1054 421 1054 421 1013 414 c 0,128,129
 995 411 995 411 976 412 c 1,130,131
 958 366 958 366 922 336 c 1,132,133
 880 299 880 299 825 292.5 c 128,-1,134
 770 286 770 286 720 309.5 c 128,-1,135
 670 333 670 333 641.5 380.5 c 128,-1,136
 613 428 613 428 614 483 c 0,137,138
 614 535 614 535 642 582 c 0,139,140
 655 604 655 604 672 623 c 1,141,142
 671 624 671 624 670 625 c 0,143,144
 612 669 612 669 557 672 c 1,145,146
 492 678 492 678 442.5 635.5 c 128,-1,147
 393 593 393 593 388 529 c 0,148,149
 388 522 388 522 382.5 517.5 c 128,-1,150
 377 513 377 513 370 513.5 c 128,-1,151
 363 514 363 514 358.5 519.5 c 128,-1,152
 354 525 354 525 354 531 c 0,153,154
 361 610 361 610 420.5 661 c 128,-1,155
 480 712 480 712 559 706 c 1,156,157
 625 702 625 702 691 652 c 0,158,159
 693 650 693 650 698 647 c 1,112,113
EndSplineSet
EndChar

StartChar: quotesingle
Encoding: 39 39 10
Width: 136
GlyphClass: 2
Flags: W
LayerCount: 2
Fore
SplineSet
109 677 m 1,0,-1
 98 457 l 1,1,-1
 38 457 l 1,2,-1
 27 677 l 1,3,-1
 109 677 l 1,0,-1
EndSplineSet
EndChar

StartChar: parenleft
Encoding: 40 40 11
Width: 356
GlyphClass: 2
Flags: W
LayerCount: 2
Fore
SplineSet
155 307 m 128,-1,1
 155 102 155 102 328 -73 c 1,2,-1
 271 -113 l 1,3,4
 173 -24 173 -24 123 84 c 128,-1,5
 73 192 73 192 73 307.5 c 128,-1,6
 73 423 73 423 123 530.5 c 128,-1,7
 173 638 173 638 271 728 c 1,8,-1
 328 687 l 1,9,0
 155 512 155 512 155 307 c 128,-1,1
941 418 m 1,10,11
 906 426 906 426 873 445 c 0,12,13
 828 472 828 472 766 535 c 0,14,15
 716 587 716 587 698 602 c 1,16,17
 683 584 683 584 671 565 c 0,18,19
 648 525 648 525 648 482 c 0,20,21
 647 437 647 437 670.5 398.5 c 128,-1,22
 694 360 694 360 735 340.5 c 128,-1,23
 776 321 776 321 820.5 326.5 c 128,-1,24
 865 332 865 332 900 361 c 1,25,26
 926 384 926 384 941 418 c 1,10,11
951 451 m 1,27,28
 953 463 953 463 954 476 c 1,29,30
 954 508 954 508 939.5 539 c 128,-1,31
 925 570 925 570 902 591 c 0,32,33
 897 595 897 595 896 602.5 c 128,-1,34
 895 610 895 610 899.5 615 c 128,-1,35
 904 620 904 620 911.5 620.5 c 128,-1,36
 919 621 919 621 924 616 c 0,37,38
 954 590 954 590 971 552.5 c 128,-1,39
 988 515 988 515 988 475 c 1,40,41
 987 462 987 462 984 446 c 1,42,43
 997 446 997 446 1008 448 c 0,44,45
 1040 453 1040 453 1066 472 c 256,46,47
 1092 491 1092 491 1106 519 c 1,48,49
 1119 549 1119 549 1116 581 c 0,50,51
 1113 612 1113 612 1095 638 c 0,52,53
 1066 678 1066 678 1009 690 c 0,54,55
 965 700 965 700 902 692 c 0,56,57
 796 678 796 678 731 631 c 0,58,59
 727 628 727 628 724 625 c 1,60,61
 740 610 740 610 790 559 c 0,62,63
 849 499 849 499 891 475 c 1,64,65
 920 457 920 457 951 451 c 1,27,28
698 647 m 1,66,67
 704 653 704 653 711 658 c 0,68,69
 783 711 783 711 897 726 c 0,70,71
 966 735 966 735 1017 723 c 0,72,73
 1086 707 1086 707 1122 658 c 0,74,75
 1146 625 1146 625 1150 583 c 0,76,77
 1153 543 1153 543 1136 506 c 0,78,79
 1119 468 1119 468 1086 445 c 1,80,81
 1054 421 1054 421 1013 414 c 0,82,83
 995 411 995 411 976 412 c 1,84,85
 958 366 958 366 922 336 c 1,86,87
 880 299 880 299 825 292.5 c 128,-1,88
 770 286 770 286 720 309.5 c 128,-1,89
 670 333 670 333 641.5 380.5 c 128,-1,90
 613 428 613 428 614 483 c 0,91,92
 614 535 614 535 642 582 c 0,93,94
 655 604 655 604 672 623 c 1,95,96
 671 624 671 624 670 625 c 0,97,98
 612 669 612 669 557 672 c 1,99,100
 492 678 492 678 442.5 635.5 c 128,-1,101
 393 593 393 593 388 529 c 0,102,103
 388 522 388 522 382.5 517.5 c 128,-1,104
 377 513 377 513 370 513.5 c 128,-1,105
 363 514 363 514 358.5 519.5 c 128,-1,106
 354 525 354 525 354 531 c 0,107,108
 361 610 361 610 420.5 661 c 128,-1,109
 480 712 480 712 559 706 c 1,110,111
 625 702 625 702 691 652 c 0,112,113
 693 650 693 650 698 647 c 1,66,67
EndSplineSet
EndChar

StartChar: parenright
Encoding: 41 41 12
Width: 356
GlyphClass: 2
Flags: W
LayerCount: 2
Fore
SplineSet
201 307 m 128,-1,1
 201 512 201 512 28 687 c 1,2,-1
 85 728 l 1,3,4
 183 638 183 638 233 530.5 c 128,-1,5
 283 423 283 423 283 307.5 c 128,-1,6
 283 192 283 192 233 84 c 128,-1,7
 183 -24 183 -24 85 -113 c 1,8,-1
 28 -73 l 1,9,0
 201 102 201 102 201 307 c 128,-1,1
EndSplineSet
EndChar

StartChar: asterisk
Encoding: 42 42 13
Width: 412
GlyphClass: 2
Flags: W
LayerCount: 2
Fore
SplineSet
173 516 m 1,0,-1
 56 556 l 1,1,-1
 80 610 l 1,2,-1
 186 556 l 1,3,-1
 176 684 l 1,4,-1
 238 684 l 1,5,-1
 228 556 l 1,6,-1
 334 610 l 1,7,-1
 358 556 l 1,8,-1
 242 516 l 1,9,-1
 332 427 l 1,10,-1
 288 388 l 1,11,-1
 208 492 l 1,12,-1
 128 388 l 1,13,-1
 83 427 l 1,14,-1
 173 516 l 1,0,-1
EndSplineSet
EndChar

StartChar: plus
Encoding: 43 43 14
Width: 527
GlyphClass: 2
Flags: W
LayerCount: 2
Fore
SplineSet
303 491 m 1,0,-1
 303 279 l 1,1,-1
 509 279 l 1,2,-1
 509 212 l 1,3,-1
 303 212 l 1,4,-1
 303 0 l 1,5,-1
 224 0 l 1,6,-1
 224 212 l 1,7,-1
 18 212 l 1,8,-1
 18 279 l 1,9,-1
 224 279 l 1,10,-1
 224 491 l 1,11,-1
 303 491 l 1,0,-1
EndSplineSet
EndChar

StartChar: comma
Encoding: 44 44 15
Width: 210
GlyphClass: 2
Flags: W
LayerCount: 2
Fore
SplineSet
67 10 m 128,-1,1
 52 23 52 23 52 45 c 128,-1,2
 52 67 52 67 67.5 82 c 128,-1,3
 83 97 83 97 111.5 97 c 128,-1,4
 140 97 140 97 159 74.5 c 128,-1,5
 178 52 178 52 178 18 c 128,-1,6
 178 -16 178 -16 156 -51.5 c 128,-1,7
 134 -87 134 -87 89 -109 c 1,8,-1
 30 -80 l 1,9,10
 92 -50 92 -50 105 -5 c 1,11,0
 82 -3 82 -3 67 10 c 128,-1,1
1081 95 m 1,12,13
 1072 93 1072 93 1065 91 c 0,14,15
 1030 85 1030 85 995 98 c 1,16,17
 964 111 964 111 939 138 c 0,18,19
 899 182 899 182 885 257 c 0,20,21
 882 275 882 275 880 298 c 1,22,23
 866 303 866 303 857 307 c 0,24,25
 796 330 796 330 763 359 c 1,26,27
 759 353 759 353 755 348 c 0,28,29
 709 283 709 283 716 202 c 0,30,31
 717 195 717 195 713 189.5 c 128,-1,32
 709 184 709 184 701.5 183.5 c 128,-1,33
 694 183 694 183 688.5 187.5 c 128,-1,34
 683 192 683 192 683 199 c 0,35,36
 673 291 673 291 727 368 c 0,37,38
 733 376 733 376 739 382 c 1,39,40
 718 409 718 409 710 438 c 1,41,42
 701 477 701 477 715 511 c 0,43,44
 731 549 731 549 767 563 c 0,45,46
 787 571 787 571 806 569 c 1,47,48
 827 568 827 568 844 556 c 0,49,50
 866 540 866 540 880 507 c 1,51,52
 889 489 889 489 894 469 c 1,53,54
 975 480 975 480 1045 442 c 0,55,56
 1085 421 1085 421 1115 386.5 c 128,-1,57
 1145 352 1145 352 1160 310 c 0,58,59
 1186 240 1186 240 1164 179 c 0,60,61
 1152 145 1152 145 1127 122 c 0,62,63
 1120 116 1120 116 1112 111 c 1,64,65
 1123 60 1123 60 1113 8 c 128,-1,66
 1103 -44 1103 -44 1076 -88 c 0,67,68
 1072 -94 1072 -94 1065 -95 c 128,-1,69
 1058 -96 1058 -96 1052.5 -92.5 c 128,-1,70
 1047 -89 1047 -89 1045.5 -82 c 128,-1,71
 1044 -75 1044 -75 1047 -69 c 0,72,73
 1095 6 1095 6 1081 95 c 1,12,13
912 323 m 1,74,75
 960 304 960 304 987 288 c 0,76,77
 1070 238 1070 238 1102 146 c 1,78,79
 1103 147 1103 147 1104 147 c 0,80,81
 1123 165 1123 165 1132 191 c 0,82,83
 1150 240 1150 240 1129 298 c 0,84,85
 1115 334 1115 334 1089 363.5 c 128,-1,86
 1063 393 1063 393 1029 412 c 0,87,88
 970 444 970 444 902 435 c 1,89,90
 905 412 905 412 908 382 c 0,91,92
 908 372 908 372 909.5 351.5 c 128,-1,93
 911 331 911 331 912 323 c 1,74,75
787 382 m 1,94,95
 816 359 816 359 869 338 c 0,96,97
 873 337 873 337 877 336 c 1,98,99
 874 375 874 375 874 380 c 0,100,101
 872 408 872 408 868 428 c 1,102,103
 823 415 823 415 787 382 c 1,94,95
763 407 m 1,104,105
 806 446 806 446 861 461 c 1,106,107
 857 479 857 479 850 494 c 0,108,109
 839 518 839 518 824 528 c 0,110,111
 815 535 815 535 803 535.5 c 128,-1,112
 791 536 791 536 780 532 c 0,113,114
 756 523 756 523 746 498 c 0,115,116
 737 474 737 474 744 447 c 0,117,118
 749 427 749 427 763 407 c 1,104,105
915 285 m 1,119,120
 917 273 917 273 919 263 c 0,121,122
 931 198 931 198 965 161 c 0,123,124
 984 140 984 140 1008 130 c 0,125,126
 1033 120 1033 120 1059 125 c 0,127,128
 1066 126 1066 126 1072 128 c 1,129,130
 1060 169 1060 169 1033 203 c 128,-1,131
 1006 237 1006 237 970 258 c 1,132,133
 948 272 948 272 915 285 c 1,119,120
EndSplineSet
EndChar

StartChar: hyphen
Encoding: 45 45 16
Width: 349
GlyphClass: 2
Flags: W
LayerCount: 2
Fore
SplineSet
38 325 m 1,0,-1
 310 325 l 1,1,-1
 310 257 l 1,2,-1
 38 257 l 1,3,-1
 38 325 l 1,0,-1
EndSplineSet
EndChar

StartChar: period
Encoding: 46 46 17
Width: 179
GlyphClass: 2
Flags: W
LayerCount: 2
Fore
SplineSet
46.5 7.5 m 128,-1,1
 30 24 30 24 30 47.5 c 128,-1,2
 30 71 30 71 46.5 87.5 c 128,-1,3
 63 104 63 104 88.5 104 c 128,-1,4
 114 104 114 104 131 87.5 c 128,-1,5
 148 71 148 71 148 47.5 c 128,-1,6
 148 24 148 24 131 7.5 c 128,-1,7
 114 -9 114 -9 88.5 -9 c 128,-1,0
 63 -9 63 -9 46.5 7.5 c 128,-1,1
941 418 m 1,8,9
 906 426 906 426 873 445 c 0,10,11
 828 472 828 472 766 535 c 0,12,13
 716 587 716 587 698 602 c 1,14,15
 683 584 683 584 671 565 c 0,16,17
 648 525 648 525 648 482 c 0,18,19
 647 437 647 437 670.5 398.5 c 128,-1,20
 694 360 694 360 735 340.5 c 128,-1,21
 776 321 776 321 820.5 326.5 c 128,-1,22
 865 332 865 332 900 361 c 1,23,24
 926 384 926 384 941 418 c 1,8,9
951 451 m 1,25,26
 953 463 953 463 954 476 c 1,27,28
 954 508 954 508 939.5 539 c 128,-1,29
 925 570 925 570 902 591 c 0,30,31
 897 595 897 595 896 602.5 c 128,-1,32
 895 610 895 610 899.5 615 c 128,-1,33
 904 620 904 620 911.5 620.5 c 128,-1,34
 919 621 919 621 924 616 c 0,35,36
 954 590 954 590 971 552.5 c 128,-1,37
 988 515 988 515 988 475 c 1,38,39
 987 462 987 462 984 446 c 1,40,41
 997 446 997 446 1008 448 c 0,42,43
 1040 453 1040 453 1066 472 c 256,44,45
 1092 491 1092 491 1106 519 c 1,46,47
 1119 549 1119 549 1116 581 c 0,48,49
 1113 612 1113 612 1095 638 c 0,50,51
 1066 678 1066 678 1009 690 c 0,52,53
 965 700 965 700 902 692 c 0,54,55
 796 678 796 678 731 631 c 0,56,57
 727 628 727 628 724 625 c 1,58,59
 740 610 740 610 790 559 c 0,60,61
 849 499 849 499 891 475 c 1,62,63
 920 457 920 457 951 451 c 1,25,26
698 647 m 1,64,65
 704 653 704 653 711 658 c 0,66,67
 783 711 783 711 897 726 c 0,68,69
 966 735 966 735 1017 723 c 0,70,71
 1086 707 1086 707 1122 658 c 0,72,73
 1146 625 1146 625 1150 583 c 0,74,75
 1153 543 1153 543 1136 506 c 0,76,77
 1119 468 1119 468 1086 445 c 1,78,79
 1054 421 1054 421 1013 414 c 0,80,81
 995 411 995 411 976 412 c 1,82,83
 958 366 958 366 922 336 c 1,84,85
 880 299 880 299 825 292.5 c 128,-1,86
 770 286 770 286 720 309.5 c 128,-1,87
 670 333 670 333 641.5 380.5 c 128,-1,88
 613 428 613 428 614 483 c 0,89,90
 614 535 614 535 642 582 c 0,91,92
 655 604 655 604 672 623 c 1,93,94
 671 624 671 624 670 625 c 0,95,96
 612 669 612 669 557 672 c 1,97,98
 492 678 492 678 442.5 635.5 c 128,-1,99
 393 593 393 593 388 529 c 0,100,101
 388 522 388 522 382.5 517.5 c 128,-1,102
 377 513 377 513 370 513.5 c 128,-1,103
 363 514 363 514 358.5 519.5 c 128,-1,104
 354 525 354 525 354 531 c 0,105,106
 361 610 361 610 420.5 661 c 128,-1,107
 480 712 480 712 559 706 c 1,108,109
 625 702 625 702 691 652 c 0,110,111
 693 650 693 650 698 647 c 1,64,65
EndSplineSet
EndChar

StartChar: slash
Encoding: 47 47 18
Width: 432
GlyphClass: 2
Flags: W
LayerCount: 2
Fore
SplineSet
308 731 m 1,0,-1
 388 731 l 1,1,-1
 136 -73 l 1,2,-1
 57 -73 l 1,3,-1
 308 731 l 1,0,-1
941 418 m 1,4,5
 906 426 906 426 873 445 c 0,6,7
 828 472 828 472 766 535 c 0,8,9
 716 587 716 587 698 602 c 1,10,11
 683 584 683 584 671 565 c 0,12,13
 648 525 648 525 648 482 c 0,14,15
 647 437 647 437 670.5 398.5 c 128,-1,16
 694 360 694 360 735 340.5 c 128,-1,17
 776 321 776 321 820.5 326.5 c 128,-1,18
 865 332 865 332 900 361 c 1,19,20
 926 384 926 384 941 418 c 1,4,5
951 451 m 1,21,22
 953 463 953 463 954 476 c 1,23,24
 954 508 954 508 939.5 539 c 128,-1,25
 925 570 925 570 902 591 c 0,26,27
 897 595 897 595 896 602.5 c 128,-1,28
 895 610 895 610 899.5 615 c 128,-1,29
 904 620 904 620 911.5 620.5 c 128,-1,30
 919 621 919 621 924 616 c 0,31,32
 954 590 954 590 971 552.5 c 128,-1,33
 988 515 988 515 988 475 c 1,34,35
 987 462 987 462 984 446 c 1,36,37
 997 446 997 446 1008 448 c 0,38,39
 1040 453 1040 453 1066 472 c 256,40,41
 1092 491 1092 491 1106 519 c 1,42,43
 1119 549 1119 549 1116 581 c 0,44,45
 1113 612 1113 612 1095 638 c 0,46,47
 1066 678 1066 678 1009 690 c 0,48,49
 965 700 965 700 902 692 c 0,50,51
 796 678 796 678 731 631 c 0,52,53
 727 628 727 628 724 625 c 1,54,55
 740 610 740 610 790 559 c 0,56,57
 849 499 849 499 891 475 c 1,58,59
 920 457 920 457 951 451 c 1,21,22
698 647 m 1,60,61
 704 653 704 653 711 658 c 0,62,63
 783 711 783 711 897 726 c 0,64,65
 966 735 966 735 1017 723 c 0,66,67
 1086 707 1086 707 1122 658 c 0,68,69
 1146 625 1146 625 1150 583 c 0,70,71
 1153 543 1153 543 1136 506 c 0,72,73
 1119 468 1119 468 1086 445 c 1,74,75
 1054 421 1054 421 1013 414 c 0,76,77
 995 411 995 411 976 412 c 1,78,79
 958 366 958 366 922 336 c 1,80,81
 880 299 880 299 825 292.5 c 128,-1,82
 770 286 770 286 720 309.5 c 128,-1,83
 670 333 670 333 641.5 380.5 c 128,-1,84
 613 428 613 428 614 483 c 0,85,86
 614 535 614 535 642 582 c 0,87,88
 655 604 655 604 672 623 c 1,89,90
 671 624 671 624 670 625 c 0,91,92
 612 669 612 669 557 672 c 1,93,94
 492 678 492 678 442.5 635.5 c 128,-1,95
 393 593 393 593 388 529 c 0,96,97
 388 522 388 522 382.5 517.5 c 128,-1,98
 377 513 377 513 370 513.5 c 128,-1,99
 363 514 363 514 358.5 519.5 c 128,-1,100
 354 525 354 525 354 531 c 0,101,102
 361 610 361 610 420.5 661 c 128,-1,103
 480 712 480 712 559 706 c 1,104,105
 625 702 625 702 691 652 c 0,106,107
 693 650 693 650 698 647 c 1,60,61
EndSplineSet
EndChar

StartChar: zero
Encoding: 48 48 19
Width: 594
GlyphClass: 2
Flags: W
LayerCount: 2
Fore
SplineSet
478 556 m 128,-1,1
 544 472 544 472 544 314.5 c 128,-1,2
 544 157 544 157 478 73 c 128,-1,3
 412 -11 412 -11 298 -11 c 128,-1,4
 184 -11 184 -11 117.5 72 c 128,-1,5
 51 155 51 155 51 314.5 c 128,-1,6
 51 474 51 474 117.5 557 c 128,-1,7
 184 640 184 640 298 640 c 128,-1,0
 412 640 412 640 478 556 c 128,-1,1
420 502.5 m 128,-1,9
 378 568 378 568 297.5 568 c 128,-1,10
 217 568 217 568 175 502.5 c 128,-1,11
 133 437 133 437 133 314.5 c 128,-1,12
 133 192 133 192 175 126.5 c 128,-1,13
 217 61 217 61 297.5 61 c 128,-1,14
 378 61 378 61 420 126.5 c 128,-1,15
 462 192 462 192 462 314.5 c 128,-1,8
 462 437 462 437 420 502.5 c 128,-1,9
EndSplineSet
Substitution2: "'onum' Oldstyle Figures in Latin lookup 0 subtable" .notdef
EndChar

StartChar: one
Encoding: 49 49 20
Width: 331
GlyphClass: 2
Flags: W
LayerCount: 2
Fore
SplineSet
49 580 m 1,0,1
 116 589 116 589 166 631 c 1,2,-1
 230 631 l 1,3,-1
 230 0 l 1,4,-1
 152 0 l 1,5,-1
 152 537 l 1,6,7
 102 505 102 505 49 502 c 1,8,-1
 49 580 l 1,0,1
EndSplineSet
Substitution2: "'onum' Oldstyle Figures in Latin lookup 0 subtable" .notdef
EndChar

StartChar: two
Encoding: 50 50 21
Width: 580
GlyphClass: 2
Flags: W
LayerCount: 2
Fore
SplineSet
143 73 m 1,0,-1
 508 73 l 1,1,-1
 508 0 l 1,2,-1
 64 0 l 1,3,-1
 64 93 l 2,4,5
 64 204 64 204 148 256 c 0,6,7
 175 273 175 273 208 286 c 2,8,-1
 332 336 l 2,9,10
 428 374 428 374 428 461 c 0,11,12
 428 509 428 509 395 539.5 c 128,-1,13
 362 570 362 570 302.5 570 c 128,-1,14
 243 570 243 570 205.5 545 c 128,-1,15
 168 520 168 520 162 470 c 1,16,-1
 75 470 l 1,17,18
 80 552 80 552 141 596 c 128,-1,19
 202 640 202 640 297.5 640 c 128,-1,20
 393 640 393 640 453 588 c 128,-1,21
 513 536 513 536 513 459.5 c 128,-1,22
 513 383 513 383 473.5 338 c 128,-1,23
 434 293 434 293 365 266 c 2,24,-1
 238 215 l 2,25,26
 190 195 190 195 166.5 169.5 c 128,-1,27
 143 144 143 144 143 103 c 2,28,-1
 143 73 l 1,0,-1
EndSplineSet
Substitution2: "'onum' Oldstyle Figures in Latin lookup 0 subtable" .notdef
EndChar

StartChar: three
Encoding: 51 51 22
Width: 591
GlyphClass: 2
Flags: W
LayerCount: 2
Fore
SplineSet
505 468 m 0,0,1
 505 368 505 368 395 329 c 1,2,3
 455 312 455 312 492 273 c 128,-1,4
 529 234 529 234 529 173 c 0,5,6
 529 90 529 90 466 39.5 c 128,-1,7
 403 -11 403 -11 300 -11 c 128,-1,8
 197 -11 197 -11 124.5 42.5 c 128,-1,9
 52 96 52 96 52 193 c 1,10,-1
 134 193 l 1,11,12
 136 129 136 129 181.5 95 c 128,-1,13
 227 61 227 61 297 61 c 128,-1,14
 367 61 367 61 405.5 94.5 c 128,-1,15
 444 128 444 128 444 177.5 c 128,-1,16
 444 227 444 227 407 258.5 c 128,-1,17
 370 290 370 290 287 290 c 2,18,-1
 215 290 l 1,19,-1
 215 353 l 1,20,-1
 264 353 l 2,21,22
 336 353 336 353 378 381.5 c 128,-1,23
 420 410 420 410 420 458 c 128,-1,24
 420 506 420 506 386 537 c 128,-1,25
 352 568 352 568 296 568 c 128,-1,26
 240 568 240 568 202.5 548.5 c 128,-1,27
 165 529 165 529 152 476 c 1,28,-1
 70 476 l 1,29,30
 81 559 81 559 139 599.5 c 128,-1,31
 197 640 197 640 288.5 640 c 128,-1,32
 380 640 380 640 442.5 591.5 c 128,-1,33
 505 543 505 543 505 468 c 0,0,1
941 418 m 1,34,35
 906 426 906 426 873 445 c 0,36,37
 828 472 828 472 766 535 c 0,38,39
 716 587 716 587 698 602 c 1,40,41
 683 584 683 584 671 565 c 0,42,43
 648 525 648 525 648 482 c 0,44,45
 647 437 647 437 670.5 398.5 c 128,-1,46
 694 360 694 360 735 340.5 c 128,-1,47
 776 321 776 321 820.5 326.5 c 128,-1,48
 865 332 865 332 900 361 c 1,49,50
 926 384 926 384 941 418 c 1,34,35
951 451 m 1,51,52
 953 463 953 463 954 476 c 1,53,54
 954 508 954 508 939.5 539 c 128,-1,55
 925 570 925 570 902 591 c 0,56,57
 897 595 897 595 896 602.5 c 128,-1,58
 895 610 895 610 899.5 615 c 128,-1,59
 904 620 904 620 911.5 620.5 c 128,-1,60
 919 621 919 621 924 616 c 0,61,62
 954 590 954 590 971 552.5 c 128,-1,63
 988 515 988 515 988 475 c 1,64,65
 987 462 987 462 984 446 c 1,66,67
 997 446 997 446 1008 448 c 0,68,69
 1040 453 1040 453 1066 472 c 256,70,71
 1092 491 1092 491 1106 519 c 1,72,73
 1119 549 1119 549 1116 581 c 0,74,75
 1113 612 1113 612 1095 638 c 0,76,77
 1066 678 1066 678 1009 690 c 0,78,79
 965 700 965 700 902 692 c 0,80,81
 796 678 796 678 731 631 c 0,82,83
 727 628 727 628 724 625 c 1,84,85
 740 610 740 610 790 559 c 0,86,87
 849 499 849 499 891 475 c 1,88,89
 920 457 920 457 951 451 c 1,51,52
698 647 m 1,90,91
 704 653 704 653 711 658 c 0,92,93
 783 711 783 711 897 726 c 0,94,95
 966 735 966 735 1017 723 c 0,96,97
 1086 707 1086 707 1122 658 c 0,98,99
 1146 625 1146 625 1150 583 c 0,100,101
 1153 543 1153 543 1136 506 c 0,102,103
 1119 468 1119 468 1086 445 c 1,104,105
 1054 421 1054 421 1013 414 c 0,106,107
 995 411 995 411 976 412 c 1,108,109
 958 366 958 366 922 336 c 1,110,111
 880 299 880 299 825 292.5 c 128,-1,112
 770 286 770 286 720 309.5 c 128,-1,113
 670 333 670 333 641.5 380.5 c 128,-1,114
 613 428 613 428 614 483 c 0,115,116
 614 535 614 535 642 582 c 0,117,118
 655 604 655 604 672 623 c 1,119,120
 671 624 671 624 670 625 c 0,121,122
 612 669 612 669 557 672 c 1,123,124
 492 678 492 678 442.5 635.5 c 128,-1,125
 393 593 393 593 388 529 c 0,126,127
 388 522 388 522 382.5 517.5 c 128,-1,128
 377 513 377 513 370 513.5 c 128,-1,129
 363 514 363 514 358.5 519.5 c 128,-1,130
 354 525 354 525 354 531 c 0,131,132
 361 610 361 610 420.5 661 c 128,-1,133
 480 712 480 712 559 706 c 1,134,135
 625 702 625 702 691 652 c 0,136,137
 693 650 693 650 698 647 c 1,90,91
EndSplineSet
Substitution2: "'onum' Oldstyle Figures in Latin lookup 0 subtable" .notdef
EndChar

StartChar: four
Encoding: 52 52 23
Width: 559
GlyphClass: 2
Flags: W
LayerCount: 2
Fore
SplineSet
428 638 m 1,0,-1
 428 220 l 1,1,-1
 537 220 l 1,2,-1
 537 152 l 1,3,-1
 428 152 l 1,4,-1
 428 0 l 1,5,-1
 351 0 l 1,6,-1
 351 152 l 1,7,-1
 26 152 l 1,8,-1
 26 213 l 1,9,-1
 355 638 l 1,10,-1
 428 638 l 1,0,-1
120 213 m 1,11,-1
 353 213 l 1,12,-1
 353 513 l 1,13,-1
 120 213 l 1,11,-1
187 225 m 1,14,15
 179 280 179 280 191 333 c 0,16,17
 193 346 193 346 197 358 c 1,18,19
 195 371 195 371 194 385 c 0,20,21
 192 420 192 420 198 455 c 1,22,23
 213 526 213 526 260 581 c 1,24,25
 307 634 307 634 375 661 c 0,26,27
 422 679 422 679 473 681 c 1,28,29
 406 703 406 703 339 691 c 0,30,31
 272 680 272 680 216 637 c 128,-1,32
 160 594 160 594 132.5 532 c 128,-1,33
 105 470 105 470 109.5 399.5 c 128,-1,34
 114 329 114 329 150 272 c 0,35,36
 166 246 166 246 187 225 c 1,14,15
638 602 m 1,37,38
 685 537 685 537 694 459 c 0,39,40
 695 446 695 446 695 433 c 1,41,42
 696 426 696 426 695 418 c 1,43,44
 699 412 699 412 703 406 c 1,45,46
 707 402 707 402 709 396 c 1,47,48
 756 323 756 323 762 234 c 1,49,50
 766 248 766 248 769 260 c 0,51,52
 789 343 789 343 768 423 c 0,53,54
 746 504 746 504 687 562 c 0,55,56
 665 585 665 585 638 602 c 1,37,38
688 366 m 1,57,58
 676 313 676 313 646 271 c 1,59,60
 618 230 618 230 575.5 201.5 c 128,-1,61
 533 173 533 173 485 164 c 1,62,63
 435 153 435 153 385 164 c 128,-1,64
 335 175 335 175 295 204 c 1,65,66
 246 238 246 238 219 294 c 1,67,68
 214 248 214 248 226 204 c 0,69,70
 229 196 229 196 231 188 c 1,71,72
 239 183 239 183 248 178 c 0,73,74
 308 143 308 143 376 141 c 0,75,76
 383 141 383 141 387.5 135.5 c 128,-1,77
 392 130 392 130 392 123 c 128,-1,78
 392 116 392 116 386.5 111.5 c 128,-1,79
 381 107 381 107 374 107 c 0,80,81
 315 109 315 109 258 135 c 1,82,83
 260 130 260 130 264 125 c 0,84,85
 312 58 312 58 394 32 c 0,86,87
 473 6 473 6 555 30 c 0,88,89
 635 53 635 53 693 116 c 0,90,91
 708 133 708 133 722 153 c 1,92,93
 723 157 723 157 724 160 c 0,94,95
 726 175 726 175 727 190 c 0,96,97
 735 284 735 284 688 366 c 1,57,58
689 65 m 1,98,99
 633 17 633 17 565 -3 c 0,100,101
 473 -29 473 -29 384 0 c 0,102,103
 292 29 292 29 237 106 c 0,104,105
 223 124 223 124 213 146 c 0,106,107
 208 156 208 156 203 166 c 1,108,109
 195 172 195 172 187 179 c 0,110,111
 147 211 147 211 121 254 c 0,112,113
 81 318 81 318 76 397 c 128,-1,114
 71 476 71 476 102 546 c 128,-1,115
 133 616 133 616 195.5 664 c 128,-1,116
 258 712 258 712 333 725 c 0,117,118
 436 743 436 743 532 693 c 0,119,120
 551 683 551 683 570 669 c 1,121,122
 591 663 591 663 611 655 c 0,123,124
 668 630 668 630 711 587 c 0,125,126
 776 521 776 521 800 431 c 0,127,128
 824 343 824 343 802 253 c 0,129,130
 792 214 792 214 775 178 c 0,131,132
 766 158 766 158 754 140 c 1,133,134
 749 118 749 118 741 96 c 0,135,136
 706 3 706 3 628 -56 c 0,137,138
 577 -94 577 -94 514.5 -111.5 c 128,-1,139
 452 -129 452 -129 389.5 -122.5 c 128,-1,140
 327 -116 327 -116 269.5 -86.5 c 128,-1,141
 212 -57 212 -57 169 -10 c 0,142,143
 165 -5 165 -5 165.5 2.5 c 128,-1,144
 166 10 166 10 171 14.5 c 128,-1,145
 176 19 176 19 183.5 18.5 c 128,-1,146
 191 18 191 18 195 12 c 1,147,148
 233 -30 233 -30 285 -56.5 c 128,-1,149
 337 -83 337 -83 393 -88.5 c 128,-1,150
 449 -94 449 -94 505 -78 c 128,-1,151
 561 -62 561 -62 607 -28 c 0,152,153
 657 9 657 9 689 65 c 1,98,99
228 419 m 1,154,155
 248 449 248 449 272 472 c 0,156,157
 323 519 323 519 390 535 c 0,158,159
 482 557 482 557 572 517 c 0,160,161
 620 495 620 495 660 458 c 1,162,163
 649 545 649 545 587 610 c 0,164,165
 572 625 572 625 554 639 c 1,166,167
 551 640 551 640 547 640 c 1,168,169
 532 644 532 644 518 646 c 0,170,171
 450 653 450 653 388 629 c 0,172,173
 328 606 328 606 286 559 c 1,174,175
 244 510 244 510 231 449 c 0,176,177
 229 435 229 435 228 419 c 1,154,155
233 356 m 1,178,179
 237 340 237 340 242 328 c 0,180,181
 264 267 264 267 315 231 c 0,182,183
 350 206 350 206 393 197 c 128,-1,184
 436 188 436 188 478 197 c 0,185,186
 520 205 520 205 557 230 c 128,-1,187
 594 255 594 255 618 290 c 0,188,189
 651 337 651 337 659 396 c 0,190,191
 660 402 660 402 660 407 c 1,192,193
 656 412 656 412 653 415 c 0,194,195
 612 462 612 462 558 486 c 0,196,197
 479 521 479 521 398 502 c 1,198,199
 340 487 340 487 295 447 c 0,200,201
 261 416 261 416 242 374 c 0,202,203
 237 365 237 365 233 356 c 1,178,179
EndSplineSet
Substitution2: "'onum' Oldstyle Figures in Latin lookup 0 subtable" .notdef
EndChar

StartChar: five
Encoding: 53 53 24
Width: 565
GlyphClass: 2
Flags: W
LayerCount: 2
Fore
SplineSet
427 204 m 0,0,1
 427 323 427 323 272 323 c 2,2,-1
 103 323 l 1,3,-1
 130 629 l 1,4,-1
 479 629 l 1,5,-1
 479 557 l 1,6,-1
 206 557 l 1,7,-1
 189 376 l 1,8,9
 241 385 241 385 288 385 c 0,10,11
 391 385 391 385 450 339.5 c 128,-1,12
 509 294 509 294 509 202 c 128,-1,13
 509 110 509 110 447 49.5 c 128,-1,14
 385 -11 385 -11 287 -11 c 128,-1,15
 189 -11 189 -11 127 38.5 c 128,-1,16
 65 88 65 88 65 175 c 1,17,-1
 144 175 l 1,18,19
 144 93 144 93 228 68 c 0,20,21
 254 61 254 61 285 61 c 0,22,23
 349 61 349 61 388 101.5 c 128,-1,24
 427 142 427 142 427 204 c 0,0,1
EndSplineSet
Substitution2: "'onum' Oldstyle Figures in Latin lookup 0 subtable" .notdef
EndChar

StartChar: six
Encoding: 54 54 25
Width: 573
GlyphClass: 2
Flags: W
LayerCount: 2
Fore
SplineSet
425 470 m 1,0,1
 408 568 408 568 318 568 c 128,-1,2
 228 568 228 568 179.5 494 c 128,-1,3
 131 420 131 420 131 292 c 0,4,5
 131 239 131 239 136 204 c 1,6,7
 142 296 142 296 192.5 337.5 c 128,-1,8
 243 379 243 379 322 379 c 128,-1,9
 401 379 401 379 458 323.5 c 128,-1,10
 515 268 515 268 515 181.5 c 128,-1,11
 515 95 515 95 456 41.5 c 128,-1,12
 397 -12 397 -12 301 -12 c 0,13,14
 189 -12 189 -12 120 78 c 128,-1,15
 51 168 51 168 51 314.5 c 128,-1,16
 51 461 51 461 121 550.5 c 128,-1,17
 191 640 191 640 312 640 c 0,18,19
 396 640 396 640 449 593 c 128,-1,20
 502 546 502 546 510 470 c 1,21,-1
 425 470 l 1,0,1
207.5 273.5 m 128,-1,23
 170 238 170 238 170 183 c 128,-1,24
 170 128 170 128 207 94.5 c 128,-1,25
 244 61 244 61 301 61 c 128,-1,26
 358 61 358 61 395.5 94 c 128,-1,27
 433 127 433 127 433 185 c 256,28,29
 433 243 433 243 395.5 276 c 128,-1,30
 358 309 358 309 301.5 309 c 128,-1,22
 245 309 245 309 207.5 273.5 c 128,-1,23
941 418 m 1,31,32
 906 426 906 426 873 445 c 0,33,34
 828 472 828 472 766 535 c 0,35,36
 716 587 716 587 698 602 c 1,37,38
 683 584 683 584 671 565 c 0,39,40
 648 525 648 525 648 482 c 0,41,42
 647 437 647 437 670.5 398.5 c 128,-1,43
 694 360 694 360 735 340.5 c 128,-1,44
 776 321 776 321 820.5 326.5 c 128,-1,45
 865 332 865 332 900 361 c 1,46,47
 926 384 926 384 941 418 c 1,31,32
951 451 m 1,48,49
 953 463 953 463 954 476 c 1,50,51
 954 508 954 508 939.5 539 c 128,-1,52
 925 570 925 570 902 591 c 0,53,54
 897 595 897 595 896 602.5 c 128,-1,55
 895 610 895 610 899.5 615 c 128,-1,56
 904 620 904 620 911.5 620.5 c 128,-1,57
 919 621 919 621 924 616 c 0,58,59
 954 590 954 590 971 552.5 c 128,-1,60
 988 515 988 515 988 475 c 1,61,62
 987 462 987 462 984 446 c 1,63,64
 997 446 997 446 1008 448 c 0,65,66
 1040 453 1040 453 1066 472 c 256,67,68
 1092 491 1092 491 1106 519 c 1,69,70
 1119 549 1119 549 1116 581 c 0,71,72
 1113 612 1113 612 1095 638 c 0,73,74
 1066 678 1066 678 1009 690 c 0,75,76
 965 700 965 700 902 692 c 0,77,78
 796 678 796 678 731 631 c 0,79,80
 727 628 727 628 724 625 c 1,81,82
 740 610 740 610 790 559 c 0,83,84
 849 499 849 499 891 475 c 1,85,86
 920 457 920 457 951 451 c 1,48,49
698 647 m 1,87,88
 704 653 704 653 711 658 c 0,89,90
 783 711 783 711 897 726 c 0,91,92
 966 735 966 735 1017 723 c 0,93,94
 1086 707 1086 707 1122 658 c 0,95,96
 1146 625 1146 625 1150 583 c 0,97,98
 1153 543 1153 543 1136 506 c 0,99,100
 1119 468 1119 468 1086 445 c 1,101,102
 1054 421 1054 421 1013 414 c 0,103,104
 995 411 995 411 976 412 c 1,105,106
 958 366 958 366 922 336 c 1,107,108
 880 299 880 299 825 292.5 c 128,-1,109
 770 286 770 286 720 309.5 c 128,-1,110
 670 333 670 333 641.5 380.5 c 128,-1,111
 613 428 613 428 614 483 c 0,112,113
 614 535 614 535 642 582 c 0,114,115
 655 604 655 604 672 623 c 1,116,117
 671 624 671 624 670 625 c 0,118,119
 612 669 612 669 557 672 c 1,120,121
 492 678 492 678 442.5 635.5 c 128,-1,122
 393 593 393 593 388 529 c 0,123,124
 388 522 388 522 382.5 517.5 c 128,-1,125
 377 513 377 513 370 513.5 c 128,-1,126
 363 514 363 514 358.5 519.5 c 128,-1,127
 354 525 354 525 354 531 c 0,128,129
 361 610 361 610 420.5 661 c 128,-1,130
 480 712 480 712 559 706 c 1,131,132
 625 702 625 702 691 652 c 0,133,134
 693 650 693 650 698 647 c 1,87,88
EndSplineSet
Substitution2: "'onum' Oldstyle Figures in Latin lookup 0 subtable" .notdef
EndChar

StartChar: seven
Encoding: 55 55 26
Width: 470
GlyphClass: 2
Flags: W
LayerCount: 2
Fore
SplineSet
452 629 m 1,0,-1
 452 556 l 1,1,-1
 164 0 l 1,2,-1
 58 0 l 1,3,-1
 360 553 l 1,4,-1
 24 553 l 1,5,-1
 24 629 l 1,6,-1
 452 629 l 1,0,-1
1081 95 m 1,7,8
 1072 93 1072 93 1065 91 c 0,9,10
 1030 85 1030 85 995 98 c 1,11,12
 964 111 964 111 939 138 c 0,13,14
 899 182 899 182 885 257 c 0,15,16
 882 275 882 275 880 298 c 1,17,18
 866 303 866 303 857 307 c 0,19,20
 796 330 796 330 763 359 c 1,21,22
 759 353 759 353 755 348 c 0,23,24
 709 283 709 283 716 202 c 0,25,26
 717 195 717 195 713 189.5 c 128,-1,27
 709 184 709 184 701.5 183.5 c 128,-1,28
 694 183 694 183 688.5 187.5 c 128,-1,29
 683 192 683 192 683 199 c 0,30,31
 673 291 673 291 727 368 c 0,32,33
 733 376 733 376 739 382 c 1,34,35
 718 409 718 409 710 438 c 1,36,37
 701 477 701 477 715 511 c 0,38,39
 731 549 731 549 767 563 c 0,40,41
 787 571 787 571 806 569 c 1,42,43
 827 568 827 568 844 556 c 0,44,45
 866 540 866 540 880 507 c 1,46,47
 889 489 889 489 894 469 c 1,48,49
 975 480 975 480 1045 442 c 0,50,51
 1085 421 1085 421 1115 386.5 c 128,-1,52
 1145 352 1145 352 1160 310 c 0,53,54
 1186 240 1186 240 1164 179 c 0,55,56
 1152 145 1152 145 1127 122 c 0,57,58
 1120 116 1120 116 1112 111 c 1,59,60
 1123 60 1123 60 1113 8 c 128,-1,61
 1103 -44 1103 -44 1076 -88 c 0,62,63
 1072 -94 1072 -94 1065 -95 c 128,-1,64
 1058 -96 1058 -96 1052.5 -92.5 c 128,-1,65
 1047 -89 1047 -89 1045.5 -82 c 128,-1,66
 1044 -75 1044 -75 1047 -69 c 0,67,68
 1095 6 1095 6 1081 95 c 1,7,8
912 323 m 1,69,70
 960 304 960 304 987 288 c 0,71,72
 1070 238 1070 238 1102 146 c 1,73,74
 1103 147 1103 147 1104 147 c 0,75,76
 1123 165 1123 165 1132 191 c 0,77,78
 1150 240 1150 240 1129 298 c 0,79,80
 1115 334 1115 334 1089 363.5 c 128,-1,81
 1063 393 1063 393 1029 412 c 0,82,83
 970 444 970 444 902 435 c 1,84,85
 905 412 905 412 908 382 c 0,86,87
 908 372 908 372 909.5 351.5 c 128,-1,88
 911 331 911 331 912 323 c 1,69,70
787 382 m 1,89,90
 816 359 816 359 869 338 c 0,91,92
 873 337 873 337 877 336 c 1,93,94
 874 375 874 375 874 380 c 0,95,96
 872 408 872 408 868 428 c 1,97,98
 823 415 823 415 787 382 c 1,89,90
763 407 m 1,99,100
 806 446 806 446 861 461 c 1,101,102
 857 479 857 479 850 494 c 0,103,104
 839 518 839 518 824 528 c 0,105,106
 815 535 815 535 803 535.5 c 128,-1,107
 791 536 791 536 780 532 c 0,108,109
 756 523 756 523 746 498 c 0,110,111
 737 474 737 474 744 447 c 0,112,113
 749 427 749 427 763 407 c 1,99,100
915 285 m 1,114,115
 917 273 917 273 919 263 c 0,116,117
 931 198 931 198 965 161 c 0,118,119
 984 140 984 140 1008 130 c 0,120,121
 1033 120 1033 120 1059 125 c 0,122,123
 1066 126 1066 126 1072 128 c 1,124,125
 1060 169 1060 169 1033 203 c 128,-1,126
 1006 237 1006 237 970 258 c 1,127,128
 948 272 948 272 915 285 c 1,114,115
EndSplineSet
Substitution2: "'onum' Oldstyle Figures in Latin lookup 0 subtable" .notdef
EndChar

StartChar: eight
Encoding: 56 56 27
Width: 615
GlyphClass: 2
Flags: W
LayerCount: 2
Fore
SplineSet
201 318 m 1,0,1
 76 375 76 375 76 473 c 0,2,3
 76 548 76 548 138 594 c 128,-1,4
 200 640 200 640 302.5 640 c 128,-1,5
 405 640 405 640 471 591 c 128,-1,6
 537 542 537 542 537 465 c 0,7,8
 537 413 537 413 502.5 372 c 128,-1,9
 468 331 468 331 401 321 c 1,10,-1
 418 315 l 1,11,12
 487 289 487 289 524 253.5 c 128,-1,13
 561 218 561 218 561 157 c 0,14,15
 561 81 561 81 493.5 35 c 128,-1,16
 426 -11 426 -11 311.5 -11 c 128,-1,17
 197 -11 197 -11 126 40 c 128,-1,18
 55 91 55 91 55 168 c 0,19,20
 55 230 55 230 95.5 269 c 128,-1,21
 136 308 136 308 201 318 c 1,0,1
276 289 m 1,22,23
 213 282 213 282 175 249.5 c 128,-1,24
 137 217 137 217 137 169 c 128,-1,25
 137 121 137 121 185 91 c 128,-1,26
 233 61 233 61 310.5 61 c 128,-1,27
 388 61 388 61 433.5 87 c 128,-1,28
 479 113 479 113 479 150 c 128,-1,29
 479 187 479 187 455 209.5 c 128,-1,30
 431 232 431 232 389 247 c 2,31,-1
 276 289 l 1,22,23
159 463 m 0,32,33
 159 436 159 436 181 416.5 c 128,-1,34
 203 397 203 397 244 381 c 2,35,-1
 317 353 l 1,36,37
 377 355 377 355 416 384.5 c 128,-1,38
 455 414 455 414 455 461.5 c 128,-1,39
 455 509 455 509 414 538.5 c 128,-1,40
 373 568 373 568 308 568 c 128,-1,41
 243 568 243 568 201 539.5 c 128,-1,42
 159 511 159 511 159 463 c 0,32,33
941 418 m 1,43,44
 906 426 906 426 873 445 c 0,45,46
 828 472 828 472 766 535 c 0,47,48
 716 587 716 587 698 602 c 1,49,50
 683 584 683 584 671 565 c 0,51,52
 648 525 648 525 648 482 c 0,53,54
 647 437 647 437 670.5 398.5 c 128,-1,55
 694 360 694 360 735 340.5 c 128,-1,56
 776 321 776 321 820.5 326.5 c 128,-1,57
 865 332 865 332 900 361 c 1,58,59
 926 384 926 384 941 418 c 1,43,44
951 451 m 1,60,61
 953 463 953 463 954 476 c 1,62,63
 954 508 954 508 939.5 539 c 128,-1,64
 925 570 925 570 902 591 c 0,65,66
 897 595 897 595 896 602.5 c 128,-1,67
 895 610 895 610 899.5 615 c 128,-1,68
 904 620 904 620 911.5 620.5 c 128,-1,69
 919 621 919 621 924 616 c 0,70,71
 954 590 954 590 971 552.5 c 128,-1,72
 988 515 988 515 988 475 c 1,73,74
 987 462 987 462 984 446 c 1,75,76
 997 446 997 446 1008 448 c 0,77,78
 1040 453 1040 453 1066 472 c 256,79,80
 1092 491 1092 491 1106 519 c 1,81,82
 1119 549 1119 549 1116 581 c 0,83,84
 1113 612 1113 612 1095 638 c 0,85,86
 1066 678 1066 678 1009 690 c 0,87,88
 965 700 965 700 902 692 c 0,89,90
 796 678 796 678 731 631 c 0,91,92
 727 628 727 628 724 625 c 1,93,94
 740 610 740 610 790 559 c 0,95,96
 849 499 849 499 891 475 c 1,97,98
 920 457 920 457 951 451 c 1,60,61
698 647 m 1,99,100
 704 653 704 653 711 658 c 0,101,102
 783 711 783 711 897 726 c 0,103,104
 966 735 966 735 1017 723 c 0,105,106
 1086 707 1086 707 1122 658 c 0,107,108
 1146 625 1146 625 1150 583 c 0,109,110
 1153 543 1153 543 1136 506 c 0,111,112
 1119 468 1119 468 1086 445 c 1,113,114
 1054 421 1054 421 1013 414 c 0,115,116
 995 411 995 411 976 412 c 1,117,118
 958 366 958 366 922 336 c 1,119,120
 880 299 880 299 825 292.5 c 128,-1,121
 770 286 770 286 720 309.5 c 128,-1,122
 670 333 670 333 641.5 380.5 c 128,-1,123
 613 428 613 428 614 483 c 0,124,125
 614 535 614 535 642 582 c 0,126,127
 655 604 655 604 672 623 c 1,128,129
 671 624 671 624 670 625 c 0,130,131
 612 669 612 669 557 672 c 1,132,133
 492 678 492 678 442.5 635.5 c 128,-1,134
 393 593 393 593 388 529 c 0,135,136
 388 522 388 522 382.5 517.5 c 128,-1,137
 377 513 377 513 370 513.5 c 128,-1,138
 363 514 363 514 358.5 519.5 c 128,-1,139
 354 525 354 525 354 531 c 0,140,141
 361 610 361 610 420.5 661 c 128,-1,142
 480 712 480 712 559 706 c 1,143,144
 625 702 625 702 691 652 c 0,145,146
 693 650 693 650 698 647 c 1,99,100
EndSplineSet
Substitution2: "'onum' Oldstyle Figures in Latin lookup 0 subtable" .notdef
EndChar

StartChar: nine
Encoding: 57 57 28
Width: 581
GlyphClass: 2
Flags: W
LayerCount: 2
Fore
SplineSet
282 640 m 0,0,1
 333 640 333 640 379 618 c 128,-1,2
 425 596 425 596 458 555 c 0,3,4
 530 467 530 467 530 326 c 0,5,6
 530 81 530 81 394 12 c 0,7,8
 347 -11 347 -11 292 -11 c 0,9,10
 189 -11 189 -11 129 45 c 128,-1,11
 69 101 69 101 69 186 c 1,12,-1
 152 186 l 1,13,14
 154 129 154 129 188 95 c 128,-1,15
 222 61 222 61 274 61 c 128,-1,16
 326 61 326 61 358 80 c 0,17,18
 449 137 449 137 449 337 c 0,19,20
 449 378 449 378 444 411 c 1,21,22
 434 330 434 330 385.5 290 c 128,-1,23
 337 250 337 250 258.5 250 c 128,-1,24
 180 250 180 250 123 305.5 c 128,-1,25
 66 361 66 361 66 447 c 0,26,27
 66 534 66 534 125 587 c 128,-1,28
 184 640 184 640 282 640 c 0,0,1
279 567 m 128,-1,30
 222 567 222 567 185 534 c 128,-1,31
 148 501 148 501 148 443 c 256,32,33
 148 385 148 385 185.5 352 c 128,-1,34
 223 319 223 319 279.5 319 c 128,-1,35
 336 319 336 319 373.5 354.5 c 128,-1,36
 411 390 411 390 411 445 c 128,-1,37
 411 500 411 500 373.5 533.5 c 128,-1,29
 336 567 336 567 279 567 c 128,-1,30
187 225 m 1,38,39
 179 280 179 280 191 333 c 0,40,41
 193 346 193 346 197 358 c 1,42,43
 195 371 195 371 194 385 c 0,44,45
 192 420 192 420 198 455 c 1,46,47
 213 526 213 526 260 581 c 1,48,49
 307 634 307 634 375 661 c 0,50,51
 422 679 422 679 473 681 c 1,52,53
 406 703 406 703 339 691 c 0,54,55
 272 680 272 680 216 637 c 128,-1,56
 160 594 160 594 132.5 532 c 128,-1,57
 105 470 105 470 109.5 399.5 c 128,-1,58
 114 329 114 329 150 272 c 0,59,60
 166 246 166 246 187 225 c 1,38,39
638 602 m 1,61,62
 685 537 685 537 694 459 c 0,63,64
 695 446 695 446 695 433 c 1,65,66
 696 426 696 426 695 418 c 1,67,68
 699 412 699 412 703 406 c 1,69,70
 707 402 707 402 709 396 c 1,71,72
 756 323 756 323 762 234 c 1,73,74
 766 248 766 248 769 260 c 0,75,76
 789 343 789 343 768 423 c 0,77,78
 746 504 746 504 687 562 c 0,79,80
 665 585 665 585 638 602 c 1,61,62
688 366 m 1,81,82
 676 313 676 313 646 271 c 1,83,84
 618 230 618 230 575.5 201.5 c 128,-1,85
 533 173 533 173 485 164 c 1,86,87
 435 153 435 153 385 164 c 128,-1,88
 335 175 335 175 295 204 c 1,89,90
 246 238 246 238 219 294 c 1,91,92
 214 248 214 248 226 204 c 0,93,94
 229 196 229 196 231 188 c 1,95,96
 239 183 239 183 248 178 c 0,97,98
 308 143 308 143 376 141 c 0,99,100
 383 141 383 141 387.5 135.5 c 128,-1,101
 392 130 392 130 392 123 c 128,-1,102
 392 116 392 116 386.5 111.5 c 128,-1,103
 381 107 381 107 374 107 c 0,104,105
 315 109 315 109 258 135 c 1,106,107
 260 130 260 130 264 125 c 0,108,109
 312 58 312 58 394 32 c 0,110,111
 473 6 473 6 555 30 c 0,112,113
 635 53 635 53 693 116 c 0,114,115
 708 133 708 133 722 153 c 1,116,117
 723 157 723 157 724 160 c 0,118,119
 726 175 726 175 727 190 c 0,120,121
 735 284 735 284 688 366 c 1,81,82
689 65 m 1,122,123
 633 17 633 17 565 -3 c 0,124,125
 473 -29 473 -29 384 0 c 0,126,127
 292 29 292 29 237 106 c 0,128,129
 223 124 223 124 213 146 c 0,130,131
 208 156 208 156 203 166 c 1,132,133
 195 172 195 172 187 179 c 0,134,135
 147 211 147 211 121 254 c 0,136,137
 81 318 81 318 76 397 c 128,-1,138
 71 476 71 476 102 546 c 128,-1,139
 133 616 133 616 195.5 664 c 128,-1,140
 258 712 258 712 333 725 c 0,141,142
 436 743 436 743 532 693 c 0,143,144
 551 683 551 683 570 669 c 1,145,146
 591 663 591 663 611 655 c 0,147,148
 668 630 668 630 711 587 c 0,149,150
 776 521 776 521 800 431 c 0,151,152
 824 343 824 343 802 253 c 0,153,154
 792 214 792 214 775 178 c 0,155,156
 766 158 766 158 754 140 c 1,157,158
 749 118 749 118 741 96 c 0,159,160
 706 3 706 3 628 -56 c 0,161,162
 577 -94 577 -94 514.5 -111.5 c 128,-1,163
 452 -129 452 -129 389.5 -122.5 c 128,-1,164
 327 -116 327 -116 269.5 -86.5 c 128,-1,165
 212 -57 212 -57 169 -10 c 0,166,167
 165 -5 165 -5 165.5 2.5 c 128,-1,168
 166 10 166 10 171 14.5 c 128,-1,169
 176 19 176 19 183.5 18.5 c 128,-1,170
 191 18 191 18 195 12 c 1,171,172
 233 -30 233 -30 285 -56.5 c 128,-1,173
 337 -83 337 -83 393 -88.5 c 128,-1,174
 449 -94 449 -94 505 -78 c 128,-1,175
 561 -62 561 -62 607 -28 c 0,176,177
 657 9 657 9 689 65 c 1,122,123
228 419 m 1,178,179
 248 449 248 449 272 472 c 0,180,181
 323 519 323 519 390 535 c 0,182,183
 482 557 482 557 572 517 c 0,184,185
 620 495 620 495 660 458 c 1,186,187
 649 545 649 545 587 610 c 0,188,189
 572 625 572 625 554 639 c 1,190,191
 551 640 551 640 547 640 c 1,192,193
 532 644 532 644 518 646 c 0,194,195
 450 653 450 653 388 629 c 0,196,197
 328 606 328 606 286 559 c 1,198,199
 244 510 244 510 231 449 c 0,200,201
 229 435 229 435 228 419 c 1,178,179
233 356 m 1,202,203
 237 340 237 340 242 328 c 0,204,205
 264 267 264 267 315 231 c 0,206,207
 350 206 350 206 393 197 c 128,-1,208
 436 188 436 188 478 197 c 0,209,210
 520 205 520 205 557 230 c 128,-1,211
 594 255 594 255 618 290 c 0,212,213
 651 337 651 337 659 396 c 0,214,215
 660 402 660 402 660 407 c 1,216,217
 656 412 656 412 653 415 c 0,218,219
 612 462 612 462 558 486 c 0,220,221
 479 521 479 521 398 502 c 1,222,223
 340 487 340 487 295 447 c 0,224,225
 261 416 261 416 242 374 c 0,226,227
 237 365 237 365 233 356 c 1,202,203
EndSplineSet
Substitution2: "'onum' Oldstyle Figures in Latin lookup 0 subtable" .notdef
EndChar

StartChar: colon
Encoding: 58 58 29
Width: 231
GlyphClass: 2
Flags: W
LayerCount: 2
Fore
SplineSet
72.5 39.5 m 128,-1,1
 56 56 56 56 56 79.5 c 128,-1,2
 56 103 56 103 72.5 119.5 c 128,-1,3
 89 136 89 136 114.5 136 c 128,-1,4
 140 136 140 136 157 119.5 c 128,-1,5
 174 103 174 103 174 79.5 c 128,-1,6
 174 56 174 56 157 39.5 c 128,-1,7
 140 23 140 23 114.5 23 c 128,-1,0
 89 23 89 23 72.5 39.5 c 128,-1,1
72.5 345.5 m 128,-1,9
 56 362 56 362 56 385.5 c 128,-1,10
 56 409 56 409 72.5 425.5 c 128,-1,11
 89 442 89 442 114.5 442 c 128,-1,12
 140 442 140 442 157 425.5 c 128,-1,13
 174 409 174 409 174 385.5 c 128,-1,14
 174 362 174 362 157 345.5 c 128,-1,15
 140 329 140 329 114.5 329 c 128,-1,8
 89 329 89 329 72.5 345.5 c 128,-1,9
187 225 m 1,16,17
 179 280 179 280 191 333 c 0,18,19
 193 346 193 346 197 358 c 1,20,21
 195 371 195 371 194 385 c 0,22,23
 192 420 192 420 198 455 c 1,24,25
 213 526 213 526 260 581 c 1,26,27
 307 634 307 634 375 661 c 0,28,29
 422 679 422 679 473 681 c 1,30,31
 406 703 406 703 339 691 c 0,32,33
 272 680 272 680 216 637 c 128,-1,34
 160 594 160 594 132.5 532 c 128,-1,35
 105 470 105 470 109.5 399.5 c 128,-1,36
 114 329 114 329 150 272 c 0,37,38
 166 246 166 246 187 225 c 1,16,17
638 602 m 1,39,40
 685 537 685 537 694 459 c 0,41,42
 695 446 695 446 695 433 c 1,43,44
 696 426 696 426 695 418 c 1,45,46
 699 412 699 412 703 406 c 1,47,48
 707 402 707 402 709 396 c 1,49,50
 756 323 756 323 762 234 c 1,51,52
 766 248 766 248 769 260 c 0,53,54
 789 343 789 343 768 423 c 0,55,56
 746 504 746 504 687 562 c 0,57,58
 665 585 665 585 638 602 c 1,39,40
688 366 m 1,59,60
 676 313 676 313 646 271 c 1,61,62
 618 230 618 230 575.5 201.5 c 128,-1,63
 533 173 533 173 485 164 c 1,64,65
 435 153 435 153 385 164 c 128,-1,66
 335 175 335 175 295 204 c 1,67,68
 246 238 246 238 219 294 c 1,69,70
 214 248 214 248 226 204 c 0,71,72
 229 196 229 196 231 188 c 1,73,74
 239 183 239 183 248 178 c 0,75,76
 308 143 308 143 376 141 c 0,77,78
 383 141 383 141 387.5 135.5 c 128,-1,79
 392 130 392 130 392 123 c 128,-1,80
 392 116 392 116 386.5 111.5 c 128,-1,81
 381 107 381 107 374 107 c 0,82,83
 315 109 315 109 258 135 c 1,84,85
 260 130 260 130 264 125 c 0,86,87
 312 58 312 58 394 32 c 0,88,89
 473 6 473 6 555 30 c 0,90,91
 635 53 635 53 693 116 c 0,92,93
 708 133 708 133 722 153 c 1,94,95
 723 157 723 157 724 160 c 0,96,97
 726 175 726 175 727 190 c 0,98,99
 735 284 735 284 688 366 c 1,59,60
689 65 m 1,100,101
 633 17 633 17 565 -3 c 0,102,103
 473 -29 473 -29 384 0 c 0,104,105
 292 29 292 29 237 106 c 0,106,107
 223 124 223 124 213 146 c 0,108,109
 208 156 208 156 203 166 c 1,110,111
 195 172 195 172 187 179 c 0,112,113
 147 211 147 211 121 254 c 0,114,115
 81 318 81 318 76 397 c 128,-1,116
 71 476 71 476 102 546 c 128,-1,117
 133 616 133 616 195.5 664 c 128,-1,118
 258 712 258 712 333 725 c 0,119,120
 436 743 436 743 532 693 c 0,121,122
 551 683 551 683 570 669 c 1,123,124
 591 663 591 663 611 655 c 0,125,126
 668 630 668 630 711 587 c 0,127,128
 776 521 776 521 800 431 c 0,129,130
 824 343 824 343 802 253 c 0,131,132
 792 214 792 214 775 178 c 0,133,134
 766 158 766 158 754 140 c 1,135,136
 749 118 749 118 741 96 c 0,137,138
 706 3 706 3 628 -56 c 0,139,140
 577 -94 577 -94 514.5 -111.5 c 128,-1,141
 452 -129 452 -129 389.5 -122.5 c 128,-1,142
 327 -116 327 -116 269.5 -86.5 c 128,-1,143
 212 -57 212 -57 169 -10 c 0,144,145
 165 -5 165 -5 165.5 2.5 c 128,-1,146
 166 10 166 10 171 14.5 c 128,-1,147
 176 19 176 19 183.5 18.5 c 128,-1,148
 191 18 191 18 195 12 c 1,149,150
 233 -30 233 -30 285 -56.5 c 128,-1,151
 337 -83 337 -83 393 -88.5 c 128,-1,152
 449 -94 449 -94 505 -78 c 128,-1,153
 561 -62 561 -62 607 -28 c 0,154,155
 657 9 657 9 689 65 c 1,100,101
228 419 m 1,156,157
 248 449 248 449 272 472 c 0,158,159
 323 519 323 519 390 535 c 0,160,161
 482 557 482 557 572 517 c 0,162,163
 620 495 620 495 660 458 c 1,164,165
 649 545 649 545 587 610 c 0,166,167
 572 625 572 625 554 639 c 1,168,169
 551 640 551 640 547 640 c 1,170,171
 532 644 532 644 518 646 c 0,172,173
 450 653 450 653 388 629 c 0,174,175
 328 606 328 606 286 559 c 1,176,177
 244 510 244 510 231 449 c 0,178,179
 229 435 229 435 228 419 c 1,156,157
233 356 m 1,180,181
 237 340 237 340 242 328 c 0,182,183
 264 267 264 267 315 231 c 0,184,185
 350 206 350 206 393 197 c 128,-1,186
 436 188 436 188 478 197 c 0,187,188
 520 205 520 205 557 230 c 128,-1,189
 594 255 594 255 618 290 c 0,190,191
 651 337 651 337 659 396 c 0,192,193
 660 402 660 402 660 407 c 1,194,195
 656 412 656 412 653 415 c 0,196,197
 612 462 612 462 558 486 c 0,198,199
 479 521 479 521 398 502 c 1,200,201
 340 487 340 487 295 447 c 0,202,203
 261 416 261 416 242 374 c 0,204,205
 237 365 237 365 233 356 c 1,180,181
EndSplineSet
EndChar

StartChar: semicolon
Encoding: 59 59 30
Width: 262
GlyphClass: 2
Flags: W
LayerCount: 2
Fore
SplineSet
94 10 m 128,-1,1
 79 23 79 23 79 45 c 128,-1,2
 79 67 79 67 94.5 82 c 128,-1,3
 110 97 110 97 138.5 97 c 128,-1,4
 167 97 167 97 186 74.5 c 128,-1,5
 205 52 205 52 205 18 c 128,-1,6
 205 -16 205 -16 183 -51.5 c 128,-1,7
 161 -87 161 -87 116 -109 c 1,8,-1
 57 -80 l 1,9,10
 119 -50 119 -50 132 -5 c 1,11,0
 109 -3 109 -3 94 10 c 128,-1,1
98.5 345.5 m 128,-1,13
 82 362 82 362 82 385.5 c 128,-1,14
 82 409 82 409 98.5 425.5 c 128,-1,15
 115 442 115 442 140.5 442 c 128,-1,16
 166 442 166 442 183 425.5 c 128,-1,17
 200 409 200 409 200 385.5 c 128,-1,18
 200 362 200 362 183 345.5 c 128,-1,19
 166 329 166 329 140.5 329 c 128,-1,12
 115 329 115 329 98.5 345.5 c 128,-1,13
941 418 m 1,20,21
 906 426 906 426 873 445 c 0,22,23
 828 472 828 472 766 535 c 0,24,25
 716 587 716 587 698 602 c 1,26,27
 683 584 683 584 671 565 c 0,28,29
 648 525 648 525 648 482 c 0,30,31
 647 437 647 437 670.5 398.5 c 128,-1,32
 694 360 694 360 735 340.5 c 128,-1,33
 776 321 776 321 820.5 326.5 c 128,-1,34
 865 332 865 332 900 361 c 1,35,36
 926 384 926 384 941 418 c 1,20,21
951 451 m 1,37,38
 953 463 953 463 954 476 c 1,39,40
 954 508 954 508 939.5 539 c 128,-1,41
 925 570 925 570 902 591 c 0,42,43
 897 595 897 595 896 602.5 c 128,-1,44
 895 610 895 610 899.5 615 c 128,-1,45
 904 620 904 620 911.5 620.5 c 128,-1,46
 919 621 919 621 924 616 c 0,47,48
 954 590 954 590 971 552.5 c 128,-1,49
 988 515 988 515 988 475 c 1,50,51
 987 462 987 462 984 446 c 1,52,53
 997 446 997 446 1008 448 c 0,54,55
 1040 453 1040 453 1066 472 c 256,56,57
 1092 491 1092 491 1106 519 c 1,58,59
 1119 549 1119 549 1116 581 c 0,60,61
 1113 612 1113 612 1095 638 c 0,62,63
 1066 678 1066 678 1009 690 c 0,64,65
 965 700 965 700 902 692 c 0,66,67
 796 678 796 678 731 631 c 0,68,69
 727 628 727 628 724 625 c 1,70,71
 740 610 740 610 790 559 c 0,72,73
 849 499 849 499 891 475 c 1,74,75
 920 457 920 457 951 451 c 1,37,38
698 647 m 1,76,77
 704 653 704 653 711 658 c 0,78,79
 783 711 783 711 897 726 c 0,80,81
 966 735 966 735 1017 723 c 0,82,83
 1086 707 1086 707 1122 658 c 0,84,85
 1146 625 1146 625 1150 583 c 0,86,87
 1153 543 1153 543 1136 506 c 0,88,89
 1119 468 1119 468 1086 445 c 1,90,91
 1054 421 1054 421 1013 414 c 0,92,93
 995 411 995 411 976 412 c 1,94,95
 958 366 958 366 922 336 c 1,96,97
 880 299 880 299 825 292.5 c 128,-1,98
 770 286 770 286 720 309.5 c 128,-1,99
 670 333 670 333 641.5 380.5 c 128,-1,100
 613 428 613 428 614 483 c 0,101,102
 614 535 614 535 642 582 c 0,103,104
 655 604 655 604 672 623 c 1,105,106
 671 624 671 624 670 625 c 0,107,108
 612 669 612 669 557 672 c 1,109,110
 492 678 492 678 442.5 635.5 c 128,-1,111
 393 593 393 593 388 529 c 0,112,113
 388 522 388 522 382.5 517.5 c 128,-1,114
 377 513 377 513 370 513.5 c 128,-1,115
 363 514 363 514 358.5 519.5 c 128,-1,116
 354 525 354 525 354 531 c 0,117,118
 361 610 361 610 420.5 661 c 128,-1,119
 480 712 480 712 559 706 c 1,120,121
 625 702 625 702 691 652 c 0,122,123
 693 650 693 650 698 647 c 1,76,77
EndSplineSet
EndChar

StartChar: less
Encoding: 60 60 31
Width: 454
GlyphClass: 2
Flags: W
LayerCount: 2
Fore
SplineSet
408 512 m 1,0,-1
 120 305 l 1,1,-1
 408 101 l 1,2,-1
 356 40 l 1,3,-1
 40 271 l 1,4,-1
 40 340 l 1,5,-1
 356 572 l 1,6,-1
 408 512 l 1,0,-1
941 418 m 1,7,8
 906 426 906 426 873 445 c 0,9,10
 828 472 828 472 766 535 c 0,11,12
 716 587 716 587 698 602 c 1,13,14
 683 584 683 584 671 565 c 0,15,16
 648 525 648 525 648 482 c 0,17,18
 647 437 647 437 670.5 398.5 c 128,-1,19
 694 360 694 360 735 340.5 c 128,-1,20
 776 321 776 321 820.5 326.5 c 128,-1,21
 865 332 865 332 900 361 c 1,22,23
 926 384 926 384 941 418 c 1,7,8
951 451 m 1,24,25
 953 463 953 463 954 476 c 1,26,27
 954 508 954 508 939.5 539 c 128,-1,28
 925 570 925 570 902 591 c 0,29,30
 897 595 897 595 896 602.5 c 128,-1,31
 895 610 895 610 899.5 615 c 128,-1,32
 904 620 904 620 911.5 620.5 c 128,-1,33
 919 621 919 621 924 616 c 0,34,35
 954 590 954 590 971 552.5 c 128,-1,36
 988 515 988 515 988 475 c 1,37,38
 987 462 987 462 984 446 c 1,39,40
 997 446 997 446 1008 448 c 0,41,42
 1040 453 1040 453 1066 472 c 256,43,44
 1092 491 1092 491 1106 519 c 1,45,46
 1119 549 1119 549 1116 581 c 0,47,48
 1113 612 1113 612 1095 638 c 0,49,50
 1066 678 1066 678 1009 690 c 0,51,52
 965 700 965 700 902 692 c 0,53,54
 796 678 796 678 731 631 c 0,55,56
 727 628 727 628 724 625 c 1,57,58
 740 610 740 610 790 559 c 0,59,60
 849 499 849 499 891 475 c 1,61,62
 920 457 920 457 951 451 c 1,24,25
698 647 m 1,63,64
 704 653 704 653 711 658 c 0,65,66
 783 711 783 711 897 726 c 0,67,68
 966 735 966 735 1017 723 c 0,69,70
 1086 707 1086 707 1122 658 c 0,71,72
 1146 625 1146 625 1150 583 c 0,73,74
 1153 543 1153 543 1136 506 c 0,75,76
 1119 468 1119 468 1086 445 c 1,77,78
 1054 421 1054 421 1013 414 c 0,79,80
 995 411 995 411 976 412 c 1,81,82
 958 366 958 366 922 336 c 1,83,84
 880 299 880 299 825 292.5 c 128,-1,85
 770 286 770 286 720 309.5 c 128,-1,86
 670 333 670 333 641.5 380.5 c 128,-1,87
 613 428 613 428 614 483 c 0,88,89
 614 535 614 535 642 582 c 0,90,91
 655 604 655 604 672 623 c 1,92,93
 671 624 671 624 670 625 c 0,94,95
 612 669 612 669 557 672 c 1,96,97
 492 678 492 678 442.5 635.5 c 128,-1,98
 393 593 393 593 388 529 c 0,99,100
 388 522 388 522 382.5 517.5 c 128,-1,101
 377 513 377 513 370 513.5 c 128,-1,102
 363 514 363 514 358.5 519.5 c 128,-1,103
 354 525 354 525 354 531 c 0,104,105
 361 610 361 610 420.5 661 c 128,-1,106
 480 712 480 712 559 706 c 1,107,108
 625 702 625 702 691 652 c 0,109,110
 693 650 693 650 698 647 c 1,63,64
EndSplineSet
EndChar

StartChar: equal
Encoding: 61 61 32
Width: 488
GlyphClass: 2
Flags: W
LayerCount: 2
Fore
SplineSet
409 185 m 1,0,-1
 409 117 l 1,1,-1
 79 117 l 1,2,-1
 79 185 l 1,3,-1
 409 185 l 1,0,-1
409 377 m 1,4,-1
 409 308 l 1,5,-1
 79 308 l 1,6,-1
 79 377 l 1,7,-1
 409 377 l 1,4,-1
1081 95 m 1,8,9
 1072 93 1072 93 1065 91 c 0,10,11
 1030 85 1030 85 995 98 c 1,12,13
 964 111 964 111 939 138 c 0,14,15
 899 182 899 182 885 257 c 0,16,17
 882 275 882 275 880 298 c 1,18,19
 866 303 866 303 857 307 c 0,20,21
 796 330 796 330 763 359 c 1,22,23
 759 353 759 353 755 348 c 0,24,25
 709 283 709 283 716 202 c 0,26,27
 717 195 717 195 713 189.5 c 128,-1,28
 709 184 709 184 701.5 183.5 c 128,-1,29
 694 183 694 183 688.5 187.5 c 128,-1,30
 683 192 683 192 683 199 c 0,31,32
 673 291 673 291 727 368 c 0,33,34
 733 376 733 376 739 382 c 1,35,36
 718 409 718 409 710 438 c 1,37,38
 701 477 701 477 715 511 c 0,39,40
 731 549 731 549 767 563 c 0,41,42
 787 571 787 571 806 569 c 1,43,44
 827 568 827 568 844 556 c 0,45,46
 866 540 866 540 880 507 c 1,47,48
 889 489 889 489 894 469 c 1,49,50
 975 480 975 480 1045 442 c 0,51,52
 1085 421 1085 421 1115 386.5 c 128,-1,53
 1145 352 1145 352 1160 310 c 0,54,55
 1186 240 1186 240 1164 179 c 0,56,57
 1152 145 1152 145 1127 122 c 0,58,59
 1120 116 1120 116 1112 111 c 1,60,61
 1123 60 1123 60 1113 8 c 128,-1,62
 1103 -44 1103 -44 1076 -88 c 0,63,64
 1072 -94 1072 -94 1065 -95 c 128,-1,65
 1058 -96 1058 -96 1052.5 -92.5 c 128,-1,66
 1047 -89 1047 -89 1045.5 -82 c 128,-1,67
 1044 -75 1044 -75 1047 -69 c 0,68,69
 1095 6 1095 6 1081 95 c 1,8,9
912 323 m 1,70,71
 960 304 960 304 987 288 c 0,72,73
 1070 238 1070 238 1102 146 c 1,74,75
 1103 147 1103 147 1104 147 c 0,76,77
 1123 165 1123 165 1132 191 c 0,78,79
 1150 240 1150 240 1129 298 c 0,80,81
 1115 334 1115 334 1089 363.5 c 128,-1,82
 1063 393 1063 393 1029 412 c 0,83,84
 970 444 970 444 902 435 c 1,85,86
 905 412 905 412 908 382 c 0,87,88
 908 372 908 372 909.5 351.5 c 128,-1,89
 911 331 911 331 912 323 c 1,70,71
787 382 m 1,90,91
 816 359 816 359 869 338 c 0,92,93
 873 337 873 337 877 336 c 1,94,95
 874 375 874 375 874 380 c 0,96,97
 872 408 872 408 868 428 c 1,98,99
 823 415 823 415 787 382 c 1,90,91
763 407 m 1,100,101
 806 446 806 446 861 461 c 1,102,103
 857 479 857 479 850 494 c 0,104,105
 839 518 839 518 824 528 c 0,106,107
 815 535 815 535 803 535.5 c 128,-1,108
 791 536 791 536 780 532 c 0,109,110
 756 523 756 523 746 498 c 0,111,112
 737 474 737 474 744 447 c 0,113,114
 749 427 749 427 763 407 c 1,100,101
915 285 m 1,115,116
 917 273 917 273 919 263 c 0,117,118
 931 198 931 198 965 161 c 0,119,120
 984 140 984 140 1008 130 c 0,121,122
 1033 120 1033 120 1059 125 c 0,123,124
 1066 126 1066 126 1072 128 c 1,125,126
 1060 169 1060 169 1033 203 c 128,-1,127
 1006 237 1006 237 970 258 c 1,128,129
 948 272 948 272 915 285 c 1,115,116
EndSplineSet
EndChar

StartChar: greater
Encoding: 62 62 33
Width: 454
GlyphClass: 2
Flags: W
LayerCount: 2
Fore
SplineSet
98 572 m 1,0,-1
 414 340 l 1,1,-1
 414 271 l 1,2,-1
 98 40 l 1,3,-1
 47 101 l 1,4,-1
 333 305 l 1,5,-1
 47 512 l 1,6,-1
 98 572 l 1,0,-1
1081 95 m 1,7,8
 1072 93 1072 93 1065 91 c 0,9,10
 1030 85 1030 85 995 98 c 1,11,12
 964 111 964 111 939 138 c 0,13,14
 899 182 899 182 885 257 c 0,15,16
 882 275 882 275 880 298 c 1,17,18
 866 303 866 303 857 307 c 0,19,20
 796 330 796 330 763 359 c 1,21,22
 759 353 759 353 755 348 c 0,23,24
 709 283 709 283 716 202 c 0,25,26
 717 195 717 195 713 189.5 c 128,-1,27
 709 184 709 184 701.5 183.5 c 128,-1,28
 694 183 694 183 688.5 187.5 c 128,-1,29
 683 192 683 192 683 199 c 0,30,31
 673 291 673 291 727 368 c 0,32,33
 733 376 733 376 739 382 c 1,34,35
 718 409 718 409 710 438 c 1,36,37
 701 477 701 477 715 511 c 0,38,39
 731 549 731 549 767 563 c 0,40,41
 787 571 787 571 806 569 c 1,42,43
 827 568 827 568 844 556 c 0,44,45
 866 540 866 540 880 507 c 1,46,47
 889 489 889 489 894 469 c 1,48,49
 975 480 975 480 1045 442 c 0,50,51
 1085 421 1085 421 1115 386.5 c 128,-1,52
 1145 352 1145 352 1160 310 c 0,53,54
 1186 240 1186 240 1164 179 c 0,55,56
 1152 145 1152 145 1127 122 c 0,57,58
 1120 116 1120 116 1112 111 c 1,59,60
 1123 60 1123 60 1113 8 c 128,-1,61
 1103 -44 1103 -44 1076 -88 c 0,62,63
 1072 -94 1072 -94 1065 -95 c 128,-1,64
 1058 -96 1058 -96 1052.5 -92.5 c 128,-1,65
 1047 -89 1047 -89 1045.5 -82 c 128,-1,66
 1044 -75 1044 -75 1047 -69 c 0,67,68
 1095 6 1095 6 1081 95 c 1,7,8
912 323 m 1,69,70
 960 304 960 304 987 288 c 0,71,72
 1070 238 1070 238 1102 146 c 1,73,74
 1103 147 1103 147 1104 147 c 0,75,76
 1123 165 1123 165 1132 191 c 0,77,78
 1150 240 1150 240 1129 298 c 0,79,80
 1115 334 1115 334 1089 363.5 c 128,-1,81
 1063 393 1063 393 1029 412 c 0,82,83
 970 444 970 444 902 435 c 1,84,85
 905 412 905 412 908 382 c 0,86,87
 908 372 908 372 909.5 351.5 c 128,-1,88
 911 331 911 331 912 323 c 1,69,70
787 382 m 1,89,90
 816 359 816 359 869 338 c 0,91,92
 873 337 873 337 877 336 c 1,93,94
 874 375 874 375 874 380 c 0,95,96
 872 408 872 408 868 428 c 1,97,98
 823 415 823 415 787 382 c 1,89,90
763 407 m 1,99,100
 806 446 806 446 861 461 c 1,101,102
 857 479 857 479 850 494 c 0,103,104
 839 518 839 518 824 528 c 0,105,106
 815 535 815 535 803 535.5 c 128,-1,107
 791 536 791 536 780 532 c 0,108,109
 756 523 756 523 746 498 c 0,110,111
 737 474 737 474 744 447 c 0,112,113
 749 427 749 427 763 407 c 1,99,100
915 285 m 1,114,115
 917 273 917 273 919 263 c 0,116,117
 931 198 931 198 965 161 c 0,118,119
 984 140 984 140 1008 130 c 0,120,121
 1033 120 1033 120 1059 125 c 0,122,123
 1066 126 1066 126 1072 128 c 1,124,125
 1060 169 1060 169 1033 203 c 128,-1,126
 1006 237 1006 237 970 258 c 1,127,128
 948 272 948 272 915 285 c 1,114,115
EndSplineSet
EndChar

StartChar: question
Encoding: 63 63 34
Width: 499
GlyphClass: 2
Flags: W
LayerCount: 2
Fore
SplineSet
248 568 m 0,0,1
 131 568 131 568 114 476 c 1,2,-1
 30 476 l 1,3,4
 37 550 37 550 91 595 c 128,-1,5
 145 640 145 640 242.5 640 c 128,-1,6
 340 640 340 640 396.5 592 c 128,-1,7
 453 544 453 544 453 475 c 0,8,9
 453 423 453 423 427 388.5 c 128,-1,10
 401 354 401 354 343 322 c 0,11,12
 318 308 318 308 301 297 c 128,-1,13
 284 286 284 286 274 272 c 0,14,15
 255 247 255 247 255 200 c 2,16,-1
 255 161 l 1,17,-1
 177 161 l 1,18,-1
 177 206 l 2,19,20
 177 269 177 269 198 302.5 c 128,-1,21
 219 336 219 336 274 366 c 128,-1,22
 329 396 329 396 348 418.5 c 128,-1,23
 367 441 367 441 367 479 c 128,-1,24
 367 517 367 517 335.5 542.5 c 128,-1,25
 304 568 304 568 248 568 c 0,0,1
217 102 m 256,26,27
 243 102 243 102 260 85 c 128,-1,28
 277 68 277 68 277 44.5 c 128,-1,29
 277 21 277 21 260 5 c 128,-1,30
 243 -11 243 -11 217 -11 c 256,31,32
 191 -11 191 -11 175 5 c 128,-1,33
 159 21 159 21 159 44.5 c 128,-1,34
 159 68 159 68 175 85 c 128,-1,35
 191 102 191 102 217 102 c 256,26,27
187 225 m 1,36,37
 179 280 179 280 191 333 c 0,38,39
 193 346 193 346 197 358 c 1,40,41
 195 371 195 371 194 385 c 0,42,43
 192 420 192 420 198 455 c 1,44,45
 213 526 213 526 260 581 c 1,46,47
 307 634 307 634 375 661 c 0,48,49
 422 679 422 679 473 681 c 1,50,51
 406 703 406 703 339 691 c 0,52,53
 272 680 272 680 216 637 c 128,-1,54
 160 594 160 594 132.5 532 c 128,-1,55
 105 470 105 470 109.5 399.5 c 128,-1,56
 114 329 114 329 150 272 c 0,57,58
 166 246 166 246 187 225 c 1,36,37
638 602 m 1,59,60
 685 537 685 537 694 459 c 0,61,62
 695 446 695 446 695 433 c 1,63,64
 696 426 696 426 695 418 c 1,65,66
 699 412 699 412 703 406 c 1,67,68
 707 402 707 402 709 396 c 1,69,70
 756 323 756 323 762 234 c 1,71,72
 766 248 766 248 769 260 c 0,73,74
 789 343 789 343 768 423 c 0,75,76
 746 504 746 504 687 562 c 0,77,78
 665 585 665 585 638 602 c 1,59,60
688 366 m 1,79,80
 676 313 676 313 646 271 c 1,81,82
 618 230 618 230 575.5 201.5 c 128,-1,83
 533 173 533 173 485 164 c 1,84,85
 435 153 435 153 385 164 c 128,-1,86
 335 175 335 175 295 204 c 1,87,88
 246 238 246 238 219 294 c 1,89,90
 214 248 214 248 226 204 c 0,91,92
 229 196 229 196 231 188 c 1,93,94
 239 183 239 183 248 178 c 0,95,96
 308 143 308 143 376 141 c 0,97,98
 383 141 383 141 387.5 135.5 c 128,-1,99
 392 130 392 130 392 123 c 128,-1,100
 392 116 392 116 386.5 111.5 c 128,-1,101
 381 107 381 107 374 107 c 0,102,103
 315 109 315 109 258 135 c 1,104,105
 260 130 260 130 264 125 c 0,106,107
 312 58 312 58 394 32 c 0,108,109
 473 6 473 6 555 30 c 0,110,111
 635 53 635 53 693 116 c 0,112,113
 708 133 708 133 722 153 c 1,114,115
 723 157 723 157 724 160 c 0,116,117
 726 175 726 175 727 190 c 0,118,119
 735 284 735 284 688 366 c 1,79,80
689 65 m 1,120,121
 633 17 633 17 565 -3 c 0,122,123
 473 -29 473 -29 384 0 c 0,124,125
 292 29 292 29 237 106 c 0,126,127
 223 124 223 124 213 146 c 0,128,129
 208 156 208 156 203 166 c 1,130,131
 195 172 195 172 187 179 c 0,132,133
 147 211 147 211 121 254 c 0,134,135
 81 318 81 318 76 397 c 128,-1,136
 71 476 71 476 102 546 c 128,-1,137
 133 616 133 616 195.5 664 c 128,-1,138
 258 712 258 712 333 725 c 0,139,140
 436 743 436 743 532 693 c 0,141,142
 551 683 551 683 570 669 c 1,143,144
 591 663 591 663 611 655 c 0,145,146
 668 630 668 630 711 587 c 0,147,148
 776 521 776 521 800 431 c 0,149,150
 824 343 824 343 802 253 c 0,151,152
 792 214 792 214 775 178 c 0,153,154
 766 158 766 158 754 140 c 1,155,156
 749 118 749 118 741 96 c 0,157,158
 706 3 706 3 628 -56 c 0,159,160
 577 -94 577 -94 514.5 -111.5 c 128,-1,161
 452 -129 452 -129 389.5 -122.5 c 128,-1,162
 327 -116 327 -116 269.5 -86.5 c 128,-1,163
 212 -57 212 -57 169 -10 c 0,164,165
 165 -5 165 -5 165.5 2.5 c 128,-1,166
 166 10 166 10 171 14.5 c 128,-1,167
 176 19 176 19 183.5 18.5 c 128,-1,168
 191 18 191 18 195 12 c 1,169,170
 233 -30 233 -30 285 -56.5 c 128,-1,171
 337 -83 337 -83 393 -88.5 c 128,-1,172
 449 -94 449 -94 505 -78 c 128,-1,173
 561 -62 561 -62 607 -28 c 0,174,175
 657 9 657 9 689 65 c 1,120,121
228 419 m 1,176,177
 248 449 248 449 272 472 c 0,178,179
 323 519 323 519 390 535 c 0,180,181
 482 557 482 557 572 517 c 0,182,183
 620 495 620 495 660 458 c 1,184,185
 649 545 649 545 587 610 c 0,186,187
 572 625 572 625 554 639 c 1,188,189
 551 640 551 640 547 640 c 1,190,191
 532 644 532 644 518 646 c 0,192,193
 450 653 450 653 388 629 c 0,194,195
 328 606 328 606 286 559 c 1,196,197
 244 510 244 510 231 449 c 0,198,199
 229 435 229 435 228 419 c 1,176,177
233 356 m 1,200,201
 237 340 237 340 242 328 c 0,202,203
 264 267 264 267 315 231 c 0,204,205
 350 206 350 206 393 197 c 128,-1,206
 436 188 436 188 478 197 c 0,207,208
 520 205 520 205 557 230 c 128,-1,209
 594 255 594 255 618 290 c 0,210,211
 651 337 651 337 659 396 c 0,212,213
 660 402 660 402 660 407 c 1,214,215
 656 412 656 412 653 415 c 0,216,217
 612 462 612 462 558 486 c 0,218,219
 479 521 479 521 398 502 c 1,220,221
 340 487 340 487 295 447 c 0,222,223
 261 416 261 416 242 374 c 0,224,225
 237 365 237 365 233 356 c 1,200,201
EndSplineSet
EndChar

StartChar: at
Encoding: 64 64 35
Width: 940
GlyphClass: 2
Flags: W
LayerCount: 2
Fore
SplineSet
575 289 m 2,0,1
 575 373 575 373 516 373 c 256,2,3
 457 373 457 373 410 324.5 c 128,-1,4
 363 276 363 276 363 202 c 0,5,6
 363 149 363 149 390.5 120 c 128,-1,7
 418 91 418 91 459 91 c 128,-1,8
 500 91 500 91 526 114.5 c 128,-1,9
 552 138 552 138 575 183 c 1,10,-1
 575 289 l 2,0,1
641 138 m 2,11,12
 641 87 641 87 680 87 c 0,13,14
 700 87 700 87 723.5 100.5 c 128,-1,15
 747 114 747 114 766 140 c 0,16,17
 812 201 812 201 812 296 c 0,18,19
 812 415 812 415 731 492 c 128,-1,20
 650 569 650 569 511 569 c 0,21,22
 429 569 429 569 362 541 c 128,-1,23
 295 513 295 513 248 466 c 0,24,25
 148 366 148 366 148 217 c 128,-1,26
 148 68 148 68 254 -24.5 c 128,-1,27
 360 -117 360 -117 545 -117 c 1,28,-1
 545 -181 l 1,29,30
 332 -181 332 -181 198 -66 c 0,31,32
 135 -12 135 -12 101 62.5 c 128,-1,33
 67 137 67 137 67 226 c 128,-1,34
 67 315 67 315 100 391 c 128,-1,35
 133 467 133 467 192 522.5 c 128,-1,36
 251 578 251 578 332.5 609 c 128,-1,37
 414 640 414 640 505 640 c 128,-1,38
 596 640 596 640 667 613 c 128,-1,39
 738 586 738 586 788 539.5 c 128,-1,40
 838 493 838 493 866 430 c 128,-1,41
 894 367 894 367 894 300 c 0,42,43
 894 178 894 178 829.5 103 c 128,-1,44
 765 28 765 28 679 28 c 0,45,46
 636 28 636 28 610 46 c 128,-1,47
 584 64 584 64 579 98 c 1,48,-1
 576 114 l 1,49,50
 558 76 558 76 528 52 c 128,-1,51
 498 28 498 28 458 28 c 0,52,53
 384 28 384 28 336.5 77 c 128,-1,54
 289 126 289 126 289 201 c 0,55,56
 289 300 289 300 355 367.5 c 128,-1,57
 421 435 421 435 512 435 c 0,58,59
 572 435 572 435 606.5 399 c 128,-1,60
 641 363 641 363 641 290 c 2,61,-1
 641 138 l 2,11,12
187 225 m 1,62,63
 179 280 179 280 191 333 c 0,64,65
 193 346 193 346 197 358 c 1,66,67
 195 371 195 371 194 385 c 0,68,69
 192 420 192 420 198 455 c 1,70,71
 213 526 213 526 260 581 c 1,72,73
 307 634 307 634 375 661 c 0,74,75
 422 679 422 679 473 681 c 1,76,77
 406 703 406 703 339 691 c 0,78,79
 272 680 272 680 216 637 c 128,-1,80
 160 594 160 594 132.5 532 c 128,-1,81
 105 470 105 470 109.5 399.5 c 128,-1,82
 114 329 114 329 150 272 c 0,83,84
 166 246 166 246 187 225 c 1,62,63
638 602 m 1,85,86
 685 537 685 537 694 459 c 0,87,88
 695 446 695 446 695 433 c 1,89,90
 696 426 696 426 695 418 c 1,91,92
 699 412 699 412 703 406 c 1,93,94
 707 402 707 402 709 396 c 1,95,96
 756 323 756 323 762 234 c 1,97,98
 766 248 766 248 769 260 c 0,99,100
 789 343 789 343 768 423 c 0,101,102
 746 504 746 504 687 562 c 0,103,104
 665 585 665 585 638 602 c 1,85,86
688 366 m 1,105,106
 676 313 676 313 646 271 c 1,107,108
 618 230 618 230 575.5 201.5 c 128,-1,109
 533 173 533 173 485 164 c 1,110,111
 435 153 435 153 385 164 c 128,-1,112
 335 175 335 175 295 204 c 1,113,114
 246 238 246 238 219 294 c 1,115,116
 214 248 214 248 226 204 c 0,117,118
 229 196 229 196 231 188 c 1,119,120
 239 183 239 183 248 178 c 0,121,122
 308 143 308 143 376 141 c 0,123,124
 383 141 383 141 387.5 135.5 c 128,-1,125
 392 130 392 130 392 123 c 128,-1,126
 392 116 392 116 386.5 111.5 c 128,-1,127
 381 107 381 107 374 107 c 0,128,129
 315 109 315 109 258 135 c 1,130,131
 260 130 260 130 264 125 c 0,132,133
 312 58 312 58 394 32 c 0,134,135
 473 6 473 6 555 30 c 0,136,137
 635 53 635 53 693 116 c 0,138,139
 708 133 708 133 722 153 c 1,140,141
 723 157 723 157 724 160 c 0,142,143
 726 175 726 175 727 190 c 0,144,145
 735 284 735 284 688 366 c 1,105,106
689 65 m 1,146,147
 633 17 633 17 565 -3 c 0,148,149
 473 -29 473 -29 384 0 c 0,150,151
 292 29 292 29 237 106 c 0,152,153
 223 124 223 124 213 146 c 0,154,155
 208 156 208 156 203 166 c 1,156,157
 195 172 195 172 187 179 c 0,158,159
 147 211 147 211 121 254 c 0,160,161
 81 318 81 318 76 397 c 128,-1,162
 71 476 71 476 102 546 c 128,-1,163
 133 616 133 616 195.5 664 c 128,-1,164
 258 712 258 712 333 725 c 0,165,166
 436 743 436 743 532 693 c 0,167,168
 551 683 551 683 570 669 c 1,169,170
 591 663 591 663 611 655 c 0,171,172
 668 630 668 630 711 587 c 0,173,174
 776 521 776 521 800 431 c 0,175,176
 824 343 824 343 802 253 c 0,177,178
 792 214 792 214 775 178 c 0,179,180
 766 158 766 158 754 140 c 1,181,182
 749 118 749 118 741 96 c 0,183,184
 706 3 706 3 628 -56 c 0,185,186
 577 -94 577 -94 514.5 -111.5 c 128,-1,187
 452 -129 452 -129 389.5 -122.5 c 128,-1,188
 327 -116 327 -116 269.5 -86.5 c 128,-1,189
 212 -57 212 -57 169 -10 c 0,190,191
 165 -5 165 -5 165.5 2.5 c 128,-1,192
 166 10 166 10 171 14.5 c 128,-1,193
 176 19 176 19 183.5 18.5 c 128,-1,194
 191 18 191 18 195 12 c 1,195,196
 233 -30 233 -30 285 -56.5 c 128,-1,197
 337 -83 337 -83 393 -88.5 c 128,-1,198
 449 -94 449 -94 505 -78 c 128,-1,199
 561 -62 561 -62 607 -28 c 0,200,201
 657 9 657 9 689 65 c 1,146,147
228 419 m 1,202,203
 248 449 248 449 272 472 c 0,204,205
 323 519 323 519 390 535 c 0,206,207
 482 557 482 557 572 517 c 0,208,209
 620 495 620 495 660 458 c 1,210,211
 649 545 649 545 587 610 c 0,212,213
 572 625 572 625 554 639 c 1,214,215
 551 640 551 640 547 640 c 1,216,217
 532 644 532 644 518 646 c 0,218,219
 450 653 450 653 388 629 c 0,220,221
 328 606 328 606 286 559 c 1,222,223
 244 510 244 510 231 449 c 0,224,225
 229 435 229 435 228 419 c 1,202,203
233 356 m 1,226,227
 237 340 237 340 242 328 c 0,228,229
 264 267 264 267 315 231 c 0,230,231
 350 206 350 206 393 197 c 128,-1,232
 436 188 436 188 478 197 c 0,233,234
 520 205 520 205 557 230 c 128,-1,235
 594 255 594 255 618 290 c 0,236,237
 651 337 651 337 659 396 c 0,238,239
 660 402 660 402 660 407 c 1,240,241
 656 412 656 412 653 415 c 0,242,243
 612 462 612 462 558 486 c 0,244,245
 479 521 479 521 398 502 c 1,246,247
 340 487 340 487 295 447 c 0,248,249
 261 416 261 416 242 374 c 0,250,251
 237 365 237 365 233 356 c 1,226,227
EndSplineSet
EndChar

StartChar: A
Encoding: 65 65 36
Width: 575
GlyphClass: 2
Flags: W
LayerCount: 2
Fore
SplineSet
242 629 m 1,0,-1
 338 629 l 1,1,-1
 549 0 l 1,2,-1
 467 0 l 1,3,-1
 413 160 l 1,4,-1
 163 160 l 1,5,-1
 109 0 l 1,6,-1
 26 0 l 1,7,-1
 242 629 l 1,0,-1
184 222 m 1,8,-1
 393 222 l 1,9,-1
 289 532 l 1,10,-1
 184 222 l 1,8,-1
187 225 m 1,11,12
 179 280 179 280 191 333 c 0,13,14
 193 346 193 346 197 358 c 1,15,16
 195 371 195 371 194 385 c 0,17,18
 192 420 192 420 198 455 c 1,19,20
 213 526 213 526 260 581 c 1,21,22
 307 634 307 634 375 661 c 0,23,24
 422 679 422 679 473 681 c 1,25,26
 406 703 406 703 339 691 c 0,27,28
 272 680 272 680 216 637 c 128,-1,29
 160 594 160 594 132.5 532 c 128,-1,30
 105 470 105 470 109.5 399.5 c 128,-1,31
 114 329 114 329 150 272 c 0,32,33
 166 246 166 246 187 225 c 1,11,12
638 602 m 1,34,35
 685 537 685 537 694 459 c 0,36,37
 695 446 695 446 695 433 c 1,38,39
 696 426 696 426 695 418 c 1,40,41
 699 412 699 412 703 406 c 1,42,43
 707 402 707 402 709 396 c 1,44,45
 756 323 756 323 762 234 c 1,46,47
 766 248 766 248 769 260 c 0,48,49
 789 343 789 343 768 423 c 0,50,51
 746 504 746 504 687 562 c 0,52,53
 665 585 665 585 638 602 c 1,34,35
688 366 m 1,54,55
 676 313 676 313 646 271 c 1,56,57
 618 230 618 230 575.5 201.5 c 128,-1,58
 533 173 533 173 485 164 c 1,59,60
 435 153 435 153 385 164 c 128,-1,61
 335 175 335 175 295 204 c 1,62,63
 246 238 246 238 219 294 c 1,64,65
 214 248 214 248 226 204 c 0,66,67
 229 196 229 196 231 188 c 1,68,69
 239 183 239 183 248 178 c 0,70,71
 308 143 308 143 376 141 c 0,72,73
 383 141 383 141 387.5 135.5 c 128,-1,74
 392 130 392 130 392 123 c 128,-1,75
 392 116 392 116 386.5 111.5 c 128,-1,76
 381 107 381 107 374 107 c 0,77,78
 315 109 315 109 258 135 c 1,79,80
 260 130 260 130 264 125 c 0,81,82
 312 58 312 58 394 32 c 0,83,84
 473 6 473 6 555 30 c 0,85,86
 635 53 635 53 693 116 c 0,87,88
 708 133 708 133 722 153 c 1,89,90
 723 157 723 157 724 160 c 0,91,92
 726 175 726 175 727 190 c 0,93,94
 735 284 735 284 688 366 c 1,54,55
689 65 m 1,95,96
 633 17 633 17 565 -3 c 0,97,98
 473 -29 473 -29 384 0 c 0,99,100
 292 29 292 29 237 106 c 0,101,102
 223 124 223 124 213 146 c 0,103,104
 208 156 208 156 203 166 c 1,105,106
 195 172 195 172 187 179 c 0,107,108
 147 211 147 211 121 254 c 0,109,110
 81 318 81 318 76 397 c 128,-1,111
 71 476 71 476 102 546 c 128,-1,112
 133 616 133 616 195.5 664 c 128,-1,113
 258 712 258 712 333 725 c 0,114,115
 436 743 436 743 532 693 c 0,116,117
 551 683 551 683 570 669 c 1,118,119
 591 663 591 663 611 655 c 0,120,121
 668 630 668 630 711 587 c 0,122,123
 776 521 776 521 800 431 c 0,124,125
 824 343 824 343 802 253 c 0,126,127
 792 214 792 214 775 178 c 0,128,129
 766 158 766 158 754 140 c 1,130,131
 749 118 749 118 741 96 c 0,132,133
 706 3 706 3 628 -56 c 0,134,135
 577 -94 577 -94 514.5 -111.5 c 128,-1,136
 452 -129 452 -129 389.5 -122.5 c 128,-1,137
 327 -116 327 -116 269.5 -86.5 c 128,-1,138
 212 -57 212 -57 169 -10 c 0,139,140
 165 -5 165 -5 165.5 2.5 c 128,-1,141
 166 10 166 10 171 14.5 c 128,-1,142
 176 19 176 19 183.5 18.5 c 128,-1,143
 191 18 191 18 195 12 c 1,144,145
 233 -30 233 -30 285 -56.5 c 128,-1,146
 337 -83 337 -83 393 -88.5 c 128,-1,147
 449 -94 449 -94 505 -78 c 128,-1,148
 561 -62 561 -62 607 -28 c 0,149,150
 657 9 657 9 689 65 c 1,95,96
228 419 m 1,151,152
 248 449 248 449 272 472 c 0,153,154
 323 519 323 519 390 535 c 0,155,156
 482 557 482 557 572 517 c 0,157,158
 620 495 620 495 660 458 c 1,159,160
 649 545 649 545 587 610 c 0,161,162
 572 625 572 625 554 639 c 1,163,164
 551 640 551 640 547 640 c 1,165,166
 532 644 532 644 518 646 c 0,167,168
 450 653 450 653 388 629 c 0,169,170
 328 606 328 606 286 559 c 1,171,172
 244 510 244 510 231 449 c 0,173,174
 229 435 229 435 228 419 c 1,151,152
233 356 m 1,175,176
 237 340 237 340 242 328 c 0,177,178
 264 267 264 267 315 231 c 0,179,180
 350 206 350 206 393 197 c 128,-1,181
 436 188 436 188 478 197 c 0,182,183
 520 205 520 205 557 230 c 128,-1,184
 594 255 594 255 618 290 c 0,185,186
 651 337 651 337 659 396 c 0,187,188
 660 402 660 402 660 407 c 1,189,190
 656 412 656 412 653 415 c 0,191,192
 612 462 612 462 558 486 c 0,193,194
 479 521 479 521 398 502 c 1,195,196
 340 487 340 487 295 447 c 0,197,198
 261 416 261 416 242 374 c 0,199,200
 237 365 237 365 233 356 c 1,175,176
EndSplineSet
EndChar

StartChar: B
Encoding: 66 66 37
Width: 622
GlyphClass: 2
Flags: W
LayerCount: 2
Fore
SplineSet
101 629 m 1,0,-1
 336 629 l 2,1,2
 435 629 435 629 488.5 582 c 128,-1,3
 542 535 542 535 542 464 c 0,4,5
 542 410 542 410 512.5 370 c 128,-1,6
 483 330 483 330 423 316 c 1,7,8
 482 306 482 306 517.5 265 c 128,-1,9
 553 224 553 224 553 172 c 0,10,11
 553 56 553 56 440 15 c 0,12,13
 398 0 398 0 337 0 c 2,14,-1
 101 0 l 1,15,-1
 101 629 l 1,0,-1
335 69 m 2,16,17
 407 69 407 69 438 98 c 128,-1,18
 469 127 469 127 469 175 c 256,19,20
 469 223 469 223 435 251.5 c 128,-1,21
 401 280 401 280 335 280 c 2,22,-1
 180 280 l 1,23,-1
 180 69 l 1,24,-1
 335 69 l 2,16,17
180 348 m 1,25,-1
 334 348 l 2,26,27
 392 348 392 348 426.5 376.5 c 128,-1,28
 461 405 461 405 461 455 c 128,-1,29
 461 505 461 505 427.5 533 c 128,-1,30
 394 561 394 561 334 561 c 2,31,-1
 180 561 l 1,32,-1
 180 348 l 1,25,-1
1081 95 m 1,33,34
 1072 93 1072 93 1065 91 c 0,35,36
 1030 85 1030 85 995 98 c 1,37,38
 964 111 964 111 939 138 c 0,39,40
 899 182 899 182 885 257 c 0,41,42
 882 275 882 275 880 298 c 1,43,44
 866 303 866 303 857 307 c 0,45,46
 796 330 796 330 763 359 c 1,47,48
 759 353 759 353 755 348 c 0,49,50
 709 283 709 283 716 202 c 0,51,52
 717 195 717 195 713 189.5 c 128,-1,53
 709 184 709 184 701.5 183.5 c 128,-1,54
 694 183 694 183 688.5 187.5 c 128,-1,55
 683 192 683 192 683 199 c 0,56,57
 673 291 673 291 727 368 c 0,58,59
 733 376 733 376 739 382 c 1,60,61
 718 409 718 409 710 438 c 1,62,63
 701 477 701 477 715 511 c 0,64,65
 731 549 731 549 767 563 c 0,66,67
 787 571 787 571 806 569 c 1,68,69
 827 568 827 568 844 556 c 0,70,71
 866 540 866 540 880 507 c 1,72,73
 889 489 889 489 894 469 c 1,74,75
 975 480 975 480 1045 442 c 0,76,77
 1085 421 1085 421 1115 386.5 c 128,-1,78
 1145 352 1145 352 1160 310 c 0,79,80
 1186 240 1186 240 1164 179 c 0,81,82
 1152 145 1152 145 1127 122 c 0,83,84
 1120 116 1120 116 1112 111 c 1,85,86
 1123 60 1123 60 1113 8 c 128,-1,87
 1103 -44 1103 -44 1076 -88 c 0,88,89
 1072 -94 1072 -94 1065 -95 c 128,-1,90
 1058 -96 1058 -96 1052.5 -92.5 c 128,-1,91
 1047 -89 1047 -89 1045.5 -82 c 128,-1,92
 1044 -75 1044 -75 1047 -69 c 0,93,94
 1095 6 1095 6 1081 95 c 1,33,34
912 323 m 1,95,96
 960 304 960 304 987 288 c 0,97,98
 1070 238 1070 238 1102 146 c 1,99,100
 1103 147 1103 147 1104 147 c 0,101,102
 1123 165 1123 165 1132 191 c 0,103,104
 1150 240 1150 240 1129 298 c 0,105,106
 1115 334 1115 334 1089 363.5 c 128,-1,107
 1063 393 1063 393 1029 412 c 0,108,109
 970 444 970 444 902 435 c 1,110,111
 905 412 905 412 908 382 c 0,112,113
 908 372 908 372 909.5 351.5 c 128,-1,114
 911 331 911 331 912 323 c 1,95,96
787 382 m 1,115,116
 816 359 816 359 869 338 c 0,117,118
 873 337 873 337 877 336 c 1,119,120
 874 375 874 375 874 380 c 0,121,122
 872 408 872 408 868 428 c 1,123,124
 823 415 823 415 787 382 c 1,115,116
763 407 m 1,125,126
 806 446 806 446 861 461 c 1,127,128
 857 479 857 479 850 494 c 0,129,130
 839 518 839 518 824 528 c 0,131,132
 815 535 815 535 803 535.5 c 128,-1,133
 791 536 791 536 780 532 c 0,134,135
 756 523 756 523 746 498 c 0,136,137
 737 474 737 474 744 447 c 0,138,139
 749 427 749 427 763 407 c 1,125,126
915 285 m 1,140,141
 917 273 917 273 919 263 c 0,142,143
 931 198 931 198 965 161 c 0,144,145
 984 140 984 140 1008 130 c 0,146,147
 1033 120 1033 120 1059 125 c 0,148,149
 1066 126 1066 126 1072 128 c 1,150,151
 1060 169 1060 169 1033 203 c 128,-1,152
 1006 237 1006 237 970 258 c 1,153,154
 948 272 948 272 915 285 c 1,140,141
EndSplineSet
EndChar

StartChar: C
Encoding: 67 67 38
Width: 613
GlyphClass: 2
Flags: W
LayerCount: 2
Fore
SplineSet
319 640 m 0,0,1
 420 640 420 640 481.5 589.5 c 128,-1,2
 543 539 543 539 566 458 c 1,3,-1
 481 441 l 1,4,5
 461 500 461 500 418.5 534.5 c 128,-1,6
 376 569 376 569 319 569 c 0,7,8
 240 569 240 569 188 503 c 128,-1,9
 136 437 136 437 136 319.5 c 128,-1,10
 136 202 136 202 182.5 131 c 128,-1,11
 229 60 229 60 319 60 c 0,12,13
 394 60 394 60 437.5 99.5 c 128,-1,14
 481 139 481 139 481 204 c 1,15,-1
 566 204 l 1,16,17
 566 105 566 105 498.5 47 c 128,-1,18
 431 -11 431 -11 313.5 -11 c 128,-1,19
 196 -11 196 -11 123.5 79 c 128,-1,20
 51 169 51 169 51 320 c 128,-1,21
 51 471 51 471 126 555.5 c 128,-1,22
 201 640 201 640 319 640 c 0,0,1
1081 95 m 1,23,24
 1072 93 1072 93 1065 91 c 0,25,26
 1030 85 1030 85 995 98 c 1,27,28
 964 111 964 111 939 138 c 0,29,30
 899 182 899 182 885 257 c 0,31,32
 882 275 882 275 880 298 c 1,33,34
 866 303 866 303 857 307 c 0,35,36
 796 330 796 330 763 359 c 1,37,38
 759 353 759 353 755 348 c 0,39,40
 709 283 709 283 716 202 c 0,41,42
 717 195 717 195 713 189.5 c 128,-1,43
 709 184 709 184 701.5 183.5 c 128,-1,44
 694 183 694 183 688.5 187.5 c 128,-1,45
 683 192 683 192 683 199 c 0,46,47
 673 291 673 291 727 368 c 0,48,49
 733 376 733 376 739 382 c 1,50,51
 718 409 718 409 710 438 c 1,52,53
 701 477 701 477 715 511 c 0,54,55
 731 549 731 549 767 563 c 0,56,57
 787 571 787 571 806 569 c 1,58,59
 827 568 827 568 844 556 c 0,60,61
 866 540 866 540 880 507 c 1,62,63
 889 489 889 489 894 469 c 1,64,65
 975 480 975 480 1045 442 c 0,66,67
 1085 421 1085 421 1115 386.5 c 128,-1,68
 1145 352 1145 352 1160 310 c 0,69,70
 1186 240 1186 240 1164 179 c 0,71,72
 1152 145 1152 145 1127 122 c 0,73,74
 1120 116 1120 116 1112 111 c 1,75,76
 1123 60 1123 60 1113 8 c 128,-1,77
 1103 -44 1103 -44 1076 -88 c 0,78,79
 1072 -94 1072 -94 1065 -95 c 128,-1,80
 1058 -96 1058 -96 1052.5 -92.5 c 128,-1,81
 1047 -89 1047 -89 1045.5 -82 c 128,-1,82
 1044 -75 1044 -75 1047 -69 c 0,83,84
 1095 6 1095 6 1081 95 c 1,23,24
912 323 m 1,85,86
 960 304 960 304 987 288 c 0,87,88
 1070 238 1070 238 1102 146 c 1,89,90
 1103 147 1103 147 1104 147 c 0,91,92
 1123 165 1123 165 1132 191 c 0,93,94
 1150 240 1150 240 1129 298 c 0,95,96
 1115 334 1115 334 1089 363.5 c 128,-1,97
 1063 393 1063 393 1029 412 c 0,98,99
 970 444 970 444 902 435 c 1,100,101
 905 412 905 412 908 382 c 0,102,103
 908 372 908 372 909.5 351.5 c 128,-1,104
 911 331 911 331 912 323 c 1,85,86
787 382 m 1,105,106
 816 359 816 359 869 338 c 0,107,108
 873 337 873 337 877 336 c 1,109,110
 874 375 874 375 874 380 c 0,111,112
 872 408 872 408 868 428 c 1,113,114
 823 415 823 415 787 382 c 1,105,106
763 407 m 1,115,116
 806 446 806 446 861 461 c 1,117,118
 857 479 857 479 850 494 c 0,119,120
 839 518 839 518 824 528 c 0,121,122
 815 535 815 535 803 535.5 c 128,-1,123
 791 536 791 536 780 532 c 0,124,125
 756 523 756 523 746 498 c 0,126,127
 737 474 737 474 744 447 c 0,128,129
 749 427 749 427 763 407 c 1,115,116
915 285 m 1,130,131
 917 273 917 273 919 263 c 0,132,133
 931 198 931 198 965 161 c 0,134,135
 984 140 984 140 1008 130 c 0,136,137
 1033 120 1033 120 1059 125 c 0,138,139
 1066 126 1066 126 1072 128 c 1,140,141
 1060 169 1060 169 1033 203 c 128,-1,142
 1006 237 1006 237 970 258 c 1,143,144
 948 272 948 272 915 285 c 1,130,131
EndSplineSet
EndChar

StartChar: D
Encoding: 68 68 39
Width: 661
GlyphClass: 2
Flags: W
LayerCount: 2
Fore
SplineSet
285 629 m 2,0,1
 427 629 427 629 512.5 543.5 c 128,-1,2
 598 458 598 458 598 314.5 c 128,-1,3
 598 171 598 171 512.5 85.5 c 128,-1,4
 427 0 427 0 285 0 c 2,5,-1
 100 0 l 1,6,-1
 100 629 l 1,7,-1
 285 629 l 2,0,1
179 69 m 1,8,-1
 285 69 l 2,9,10
 390 69 390 69 452 138.5 c 128,-1,11
 514 208 514 208 514 315 c 256,12,13
 514 422 514 422 451.5 490.5 c 128,-1,14
 389 559 389 559 285 559 c 2,15,-1
 179 559 l 1,16,-1
 179 69 l 1,8,-1
187 225 m 1,17,18
 179 280 179 280 191 333 c 0,19,20
 193 346 193 346 197 358 c 1,21,22
 195 371 195 371 194 385 c 0,23,24
 192 420 192 420 198 455 c 1,25,26
 213 526 213 526 260 581 c 1,27,28
 307 634 307 634 375 661 c 0,29,30
 422 679 422 679 473 681 c 1,31,32
 406 703 406 703 339 691 c 0,33,34
 272 680 272 680 216 637 c 128,-1,35
 160 594 160 594 132.5 532 c 128,-1,36
 105 470 105 470 109.5 399.5 c 128,-1,37
 114 329 114 329 150 272 c 0,38,39
 166 246 166 246 187 225 c 1,17,18
638 602 m 1,40,41
 685 537 685 537 694 459 c 0,42,43
 695 446 695 446 695 433 c 1,44,45
 696 426 696 426 695 418 c 1,46,47
 699 412 699 412 703 406 c 1,48,49
 707 402 707 402 709 396 c 1,50,51
 756 323 756 323 762 234 c 1,52,53
 766 248 766 248 769 260 c 0,54,55
 789 343 789 343 768 423 c 0,56,57
 746 504 746 504 687 562 c 0,58,59
 665 585 665 585 638 602 c 1,40,41
688 366 m 1,60,61
 676 313 676 313 646 271 c 1,62,63
 618 230 618 230 575.5 201.5 c 128,-1,64
 533 173 533 173 485 164 c 1,65,66
 435 153 435 153 385 164 c 128,-1,67
 335 175 335 175 295 204 c 1,68,69
 246 238 246 238 219 294 c 1,70,71
 214 248 214 248 226 204 c 0,72,73
 229 196 229 196 231 188 c 1,74,75
 239 183 239 183 248 178 c 0,76,77
 308 143 308 143 376 141 c 0,78,79
 383 141 383 141 387.5 135.5 c 128,-1,80
 392 130 392 130 392 123 c 128,-1,81
 392 116 392 116 386.5 111.5 c 128,-1,82
 381 107 381 107 374 107 c 0,83,84
 315 109 315 109 258 135 c 1,85,86
 260 130 260 130 264 125 c 0,87,88
 312 58 312 58 394 32 c 0,89,90
 473 6 473 6 555 30 c 0,91,92
 635 53 635 53 693 116 c 0,93,94
 708 133 708 133 722 153 c 1,95,96
 723 157 723 157 724 160 c 0,97,98
 726 175 726 175 727 190 c 0,99,100
 735 284 735 284 688 366 c 1,60,61
689 65 m 1,101,102
 633 17 633 17 565 -3 c 0,103,104
 473 -29 473 -29 384 0 c 0,105,106
 292 29 292 29 237 106 c 0,107,108
 223 124 223 124 213 146 c 0,109,110
 208 156 208 156 203 166 c 1,111,112
 195 172 195 172 187 179 c 0,113,114
 147 211 147 211 121 254 c 0,115,116
 81 318 81 318 76 397 c 128,-1,117
 71 476 71 476 102 546 c 128,-1,118
 133 616 133 616 195.5 664 c 128,-1,119
 258 712 258 712 333 725 c 0,120,121
 436 743 436 743 532 693 c 0,122,123
 551 683 551 683 570 669 c 1,124,125
 591 663 591 663 611 655 c 0,126,127
 668 630 668 630 711 587 c 0,128,129
 776 521 776 521 800 431 c 0,130,131
 824 343 824 343 802 253 c 0,132,133
 792 214 792 214 775 178 c 0,134,135
 766 158 766 158 754 140 c 1,136,137
 749 118 749 118 741 96 c 0,138,139
 706 3 706 3 628 -56 c 0,140,141
 577 -94 577 -94 514.5 -111.5 c 128,-1,142
 452 -129 452 -129 389.5 -122.5 c 128,-1,143
 327 -116 327 -116 269.5 -86.5 c 128,-1,144
 212 -57 212 -57 169 -10 c 0,145,146
 165 -5 165 -5 165.5 2.5 c 128,-1,147
 166 10 166 10 171 14.5 c 128,-1,148
 176 19 176 19 183.5 18.5 c 128,-1,149
 191 18 191 18 195 12 c 1,150,151
 233 -30 233 -30 285 -56.5 c 128,-1,152
 337 -83 337 -83 393 -88.5 c 128,-1,153
 449 -94 449 -94 505 -78 c 128,-1,154
 561 -62 561 -62 607 -28 c 0,155,156
 657 9 657 9 689 65 c 1,101,102
228 419 m 1,157,158
 248 449 248 449 272 472 c 0,159,160
 323 519 323 519 390 535 c 0,161,162
 482 557 482 557 572 517 c 0,163,164
 620 495 620 495 660 458 c 1,165,166
 649 545 649 545 587 610 c 0,167,168
 572 625 572 625 554 639 c 1,169,170
 551 640 551 640 547 640 c 1,171,172
 532 644 532 644 518 646 c 0,173,174
 450 653 450 653 388 629 c 0,175,176
 328 606 328 606 286 559 c 1,177,178
 244 510 244 510 231 449 c 0,179,180
 229 435 229 435 228 419 c 1,157,158
233 356 m 1,181,182
 237 340 237 340 242 328 c 0,183,184
 264 267 264 267 315 231 c 0,185,186
 350 206 350 206 393 197 c 128,-1,187
 436 188 436 188 478 197 c 0,188,189
 520 205 520 205 557 230 c 128,-1,190
 594 255 594 255 618 290 c 0,191,192
 651 337 651 337 659 396 c 0,193,194
 660 402 660 402 660 407 c 1,195,196
 656 412 656 412 653 415 c 0,197,198
 612 462 612 462 558 486 c 0,199,200
 479 521 479 521 398 502 c 1,201,202
 340 487 340 487 295 447 c 0,203,204
 261 416 261 416 242 374 c 0,205,206
 237 365 237 365 233 356 c 1,181,182
EndSplineSet
EndChar

StartChar: E
Encoding: 69 69 40
Width: 562
GlyphClass: 2
Flags: W
LayerCount: 2
Fore
SplineSet
100 629 m 1,0,-1
 487 629 l 1,1,-1
 487 561 l 1,2,-1
 179 561 l 1,3,-1
 179 350 l 1,4,-1
 469 350 l 1,5,-1
 469 283 l 1,6,-1
 179 283 l 1,7,-1
 179 69 l 1,8,-1
 487 69 l 1,9,-1
 487 0 l 1,10,-1
 100 0 l 1,11,-1
 100 629 l 1,0,-1
1081 95 m 1,12,13
 1072 93 1072 93 1065 91 c 0,14,15
 1030 85 1030 85 995 98 c 1,16,17
 964 111 964 111 939 138 c 0,18,19
 899 182 899 182 885 257 c 0,20,21
 882 275 882 275 880 298 c 1,22,23
 866 303 866 303 857 307 c 0,24,25
 796 330 796 330 763 359 c 1,26,27
 759 353 759 353 755 348 c 0,28,29
 709 283 709 283 716 202 c 0,30,31
 717 195 717 195 713 189.5 c 128,-1,32
 709 184 709 184 701.5 183.5 c 128,-1,33
 694 183 694 183 688.5 187.5 c 128,-1,34
 683 192 683 192 683 199 c 0,35,36
 673 291 673 291 727 368 c 0,37,38
 733 376 733 376 739 382 c 1,39,40
 718 409 718 409 710 438 c 1,41,42
 701 477 701 477 715 511 c 0,43,44
 731 549 731 549 767 563 c 0,45,46
 787 571 787 571 806 569 c 1,47,48
 827 568 827 568 844 556 c 0,49,50
 866 540 866 540 880 507 c 1,51,52
 889 489 889 489 894 469 c 1,53,54
 975 480 975 480 1045 442 c 0,55,56
 1085 421 1085 421 1115 386.5 c 128,-1,57
 1145 352 1145 352 1160 310 c 0,58,59
 1186 240 1186 240 1164 179 c 0,60,61
 1152 145 1152 145 1127 122 c 0,62,63
 1120 116 1120 116 1112 111 c 1,64,65
 1123 60 1123 60 1113 8 c 128,-1,66
 1103 -44 1103 -44 1076 -88 c 0,67,68
 1072 -94 1072 -94 1065 -95 c 128,-1,69
 1058 -96 1058 -96 1052.5 -92.5 c 128,-1,70
 1047 -89 1047 -89 1045.5 -82 c 128,-1,71
 1044 -75 1044 -75 1047 -69 c 0,72,73
 1095 6 1095 6 1081 95 c 1,12,13
912 323 m 1,74,75
 960 304 960 304 987 288 c 0,76,77
 1070 238 1070 238 1102 146 c 1,78,79
 1103 147 1103 147 1104 147 c 0,80,81
 1123 165 1123 165 1132 191 c 0,82,83
 1150 240 1150 240 1129 298 c 0,84,85
 1115 334 1115 334 1089 363.5 c 128,-1,86
 1063 393 1063 393 1029 412 c 0,87,88
 970 444 970 444 902 435 c 1,89,90
 905 412 905 412 908 382 c 0,91,92
 908 372 908 372 909.5 351.5 c 128,-1,93
 911 331 911 331 912 323 c 1,74,75
787 382 m 1,94,95
 816 359 816 359 869 338 c 0,96,97
 873 337 873 337 877 336 c 1,98,99
 874 375 874 375 874 380 c 0,100,101
 872 408 872 408 868 428 c 1,102,103
 823 415 823 415 787 382 c 1,94,95
763 407 m 1,104,105
 806 446 806 446 861 461 c 1,106,107
 857 479 857 479 850 494 c 0,108,109
 839 518 839 518 824 528 c 0,110,111
 815 535 815 535 803 535.5 c 128,-1,112
 791 536 791 536 780 532 c 0,113,114
 756 523 756 523 746 498 c 0,115,116
 737 474 737 474 744 447 c 0,117,118
 749 427 749 427 763 407 c 1,104,105
915 285 m 1,119,120
 917 273 917 273 919 263 c 0,121,122
 931 198 931 198 965 161 c 0,123,124
 984 140 984 140 1008 130 c 0,125,126
 1033 120 1033 120 1059 125 c 0,127,128
 1066 126 1066 126 1072 128 c 1,129,130
 1060 169 1060 169 1033 203 c 128,-1,131
 1006 237 1006 237 970 258 c 1,132,133
 948 272 948 272 915 285 c 1,119,120
EndSplineSet
EndChar

StartChar: F
Encoding: 70 70 41
Width: 524
GlyphClass: 2
Flags: W
LayerCount: 2
Fore
SplineSet
101 629 m 1,0,-1
 483 629 l 1,1,-1
 483 561 l 1,2,-1
 180 561 l 1,3,-1
 180 352 l 1,4,-1
 462 352 l 1,5,-1
 462 284 l 1,6,-1
 180 284 l 1,7,-1
 180 0 l 1,8,-1
 101 0 l 1,9,-1
 101 629 l 1,0,-1
EndSplineSet
EndChar

StartChar: G
Encoding: 71 71 42
Width: 645
GlyphClass: 2
Flags: W
LayerCount: 2
Fore
SplineSet
490 108 m 1,0,1
 448 -11 448 -11 327 -11 c 128,-1,2
 206 -11 206 -11 128.5 77 c 128,-1,3
 51 165 51 165 51 314 c 128,-1,4
 51 463 51 463 135.5 551 c 128,-1,5
 220 639 220 639 346 639 c 0,6,7
 420 639 420 639 475.5 609 c 128,-1,8
 531 579 531 579 571 513 c 1,9,-1
 495 487 l 1,10,11
 430 568 430 568 343 568 c 128,-1,12
 256 568 256 568 195.5 497 c 128,-1,13
 135 426 135 426 135 312.5 c 128,-1,14
 135 199 135 199 187 130 c 128,-1,15
 239 61 239 61 327 61 c 0,16,17
 399 61 399 61 443 109 c 128,-1,18
 487 157 487 157 487 251 c 2,19,-1
 487 253 l 1,20,-1
 329 259 l 1,21,-1
 329 311 l 1,22,-1
 564 311 l 1,23,-1
 564 0 l 1,24,-1
 500 0 l 1,25,-1
 490 108 l 1,0,1
EndSplineSet
EndChar

StartChar: H
Encoding: 72 72 43
Width: 669
GlyphClass: 2
Flags: W
LayerCount: 2
Fore
SplineSet
180 629 m 1,0,-1
 180 352 l 1,1,-1
 489 352 l 1,2,-1
 489 629 l 1,3,-1
 568 629 l 1,4,-1
 568 0 l 1,5,-1
 489 0 l 1,6,-1
 489 284 l 1,7,-1
 180 284 l 1,8,-1
 180 0 l 1,9,-1
 101 0 l 1,10,-1
 101 629 l 1,11,-1
 180 629 l 1,0,-1
1081 95 m 1,12,13
 1072 93 1072 93 1065 91 c 0,14,15
 1030 85 1030 85 995 98 c 1,16,17
 964 111 964 111 939 138 c 0,18,19
 899 182 899 182 885 257 c 0,20,21
 882 275 882 275 880 298 c 1,22,23
 866 303 866 303 857 307 c 0,24,25
 796 330 796 330 763 359 c 1,26,27
 759 353 759 353 755 348 c 0,28,29
 709 283 709 283 716 202 c 0,30,31
 717 195 717 195 713 189.5 c 128,-1,32
 709 184 709 184 701.5 183.5 c 128,-1,33
 694 183 694 183 688.5 187.5 c 128,-1,34
 683 192 683 192 683 199 c 0,35,36
 673 291 673 291 727 368 c 0,37,38
 733 376 733 376 739 382 c 1,39,40
 718 409 718 409 710 438 c 1,41,42
 701 477 701 477 715 511 c 0,43,44
 731 549 731 549 767 563 c 0,45,46
 787 571 787 571 806 569 c 1,47,48
 827 568 827 568 844 556 c 0,49,50
 866 540 866 540 880 507 c 1,51,52
 889 489 889 489 894 469 c 1,53,54
 975 480 975 480 1045 442 c 0,55,56
 1085 421 1085 421 1115 386.5 c 128,-1,57
 1145 352 1145 352 1160 310 c 0,58,59
 1186 240 1186 240 1164 179 c 0,60,61
 1152 145 1152 145 1127 122 c 0,62,63
 1120 116 1120 116 1112 111 c 1,64,65
 1123 60 1123 60 1113 8 c 128,-1,66
 1103 -44 1103 -44 1076 -88 c 0,67,68
 1072 -94 1072 -94 1065 -95 c 128,-1,69
 1058 -96 1058 -96 1052.5 -92.5 c 128,-1,70
 1047 -89 1047 -89 1045.5 -82 c 128,-1,71
 1044 -75 1044 -75 1047 -69 c 0,72,73
 1095 6 1095 6 1081 95 c 1,12,13
912 323 m 1,74,75
 960 304 960 304 987 288 c 0,76,77
 1070 238 1070 238 1102 146 c 1,78,79
 1103 147 1103 147 1104 147 c 0,80,81
 1123 165 1123 165 1132 191 c 0,82,83
 1150 240 1150 240 1129 298 c 0,84,85
 1115 334 1115 334 1089 363.5 c 128,-1,86
 1063 393 1063 393 1029 412 c 0,87,88
 970 444 970 444 902 435 c 1,89,90
 905 412 905 412 908 382 c 0,91,92
 908 372 908 372 909.5 351.5 c 128,-1,93
 911 331 911 331 912 323 c 1,74,75
787 382 m 1,94,95
 816 359 816 359 869 338 c 0,96,97
 873 337 873 337 877 336 c 1,98,99
 874 375 874 375 874 380 c 0,100,101
 872 408 872 408 868 428 c 1,102,103
 823 415 823 415 787 382 c 1,94,95
763 407 m 1,104,105
 806 446 806 446 861 461 c 1,106,107
 857 479 857 479 850 494 c 0,108,109
 839 518 839 518 824 528 c 0,110,111
 815 535 815 535 803 535.5 c 128,-1,112
 791 536 791 536 780 532 c 0,113,114
 756 523 756 523 746 498 c 0,115,116
 737 474 737 474 744 447 c 0,117,118
 749 427 749 427 763 407 c 1,104,105
915 285 m 1,119,120
 917 273 917 273 919 263 c 0,121,122
 931 198 931 198 965 161 c 0,123,124
 984 140 984 140 1008 130 c 0,125,126
 1033 120 1033 120 1059 125 c 0,127,128
 1066 126 1066 126 1072 128 c 1,129,130
 1060 169 1060 169 1033 203 c 128,-1,131
 1006 237 1006 237 970 258 c 1,132,133
 948 272 948 272 915 285 c 1,119,120
EndSplineSet
EndChar

StartChar: I
Encoding: 73 73 44
Width: 280
GlyphClass: 2
Flags: W
LayerCount: 2
Fore
SplineSet
101 629 m 1,0,-1
 180 629 l 1,1,-1
 180 0 l 1,2,-1
 101 0 l 1,3,-1
 101 629 l 1,0,-1
1081 95 m 1,4,5
 1072 93 1072 93 1065 91 c 0,6,7
 1030 85 1030 85 995 98 c 1,8,9
 964 111 964 111 939 138 c 0,10,11
 899 182 899 182 885 257 c 0,12,13
 882 275 882 275 880 298 c 1,14,15
 866 303 866 303 857 307 c 0,16,17
 796 330 796 330 763 359 c 1,18,19
 759 353 759 353 755 348 c 0,20,21
 709 283 709 283 716 202 c 0,22,23
 717 195 717 195 713 189.5 c 128,-1,24
 709 184 709 184 701.5 183.5 c 128,-1,25
 694 183 694 183 688.5 187.5 c 128,-1,26
 683 192 683 192 683 199 c 0,27,28
 673 291 673 291 727 368 c 0,29,30
 733 376 733 376 739 382 c 1,31,32
 718 409 718 409 710 438 c 1,33,34
 701 477 701 477 715 511 c 0,35,36
 731 549 731 549 767 563 c 0,37,38
 787 571 787 571 806 569 c 1,39,40
 827 568 827 568 844 556 c 0,41,42
 866 540 866 540 880 507 c 1,43,44
 889 489 889 489 894 469 c 1,45,46
 975 480 975 480 1045 442 c 0,47,48
 1085 421 1085 421 1115 386.5 c 128,-1,49
 1145 352 1145 352 1160 310 c 0,50,51
 1186 240 1186 240 1164 179 c 0,52,53
 1152 145 1152 145 1127 122 c 0,54,55
 1120 116 1120 116 1112 111 c 1,56,57
 1123 60 1123 60 1113 8 c 128,-1,58
 1103 -44 1103 -44 1076 -88 c 0,59,60
 1072 -94 1072 -94 1065 -95 c 128,-1,61
 1058 -96 1058 -96 1052.5 -92.5 c 128,-1,62
 1047 -89 1047 -89 1045.5 -82 c 128,-1,63
 1044 -75 1044 -75 1047 -69 c 0,64,65
 1095 6 1095 6 1081 95 c 1,4,5
912 323 m 1,66,67
 960 304 960 304 987 288 c 0,68,69
 1070 238 1070 238 1102 146 c 1,70,71
 1103 147 1103 147 1104 147 c 0,72,73
 1123 165 1123 165 1132 191 c 0,74,75
 1150 240 1150 240 1129 298 c 0,76,77
 1115 334 1115 334 1089 363.5 c 128,-1,78
 1063 393 1063 393 1029 412 c 0,79,80
 970 444 970 444 902 435 c 1,81,82
 905 412 905 412 908 382 c 0,83,84
 908 372 908 372 909.5 351.5 c 128,-1,85
 911 331 911 331 912 323 c 1,66,67
787 382 m 1,86,87
 816 359 816 359 869 338 c 0,88,89
 873 337 873 337 877 336 c 1,90,91
 874 375 874 375 874 380 c 0,92,93
 872 408 872 408 868 428 c 1,94,95
 823 415 823 415 787 382 c 1,86,87
763 407 m 1,96,97
 806 446 806 446 861 461 c 1,98,99
 857 479 857 479 850 494 c 0,100,101
 839 518 839 518 824 528 c 0,102,103
 815 535 815 535 803 535.5 c 128,-1,104
 791 536 791 536 780 532 c 0,105,106
 756 523 756 523 746 498 c 0,107,108
 737 474 737 474 744 447 c 0,109,110
 749 427 749 427 763 407 c 1,96,97
915 285 m 1,111,112
 917 273 917 273 919 263 c 0,113,114
 931 198 931 198 965 161 c 0,115,116
 984 140 984 140 1008 130 c 0,117,118
 1033 120 1033 120 1059 125 c 0,119,120
 1066 126 1066 126 1072 128 c 1,121,122
 1060 169 1060 169 1033 203 c 128,-1,123
 1006 237 1006 237 970 258 c 1,124,125
 948 272 948 272 915 285 c 1,111,112
EndSplineSet
EndChar

StartChar: J
Encoding: 74 74 45
Width: 404
GlyphClass: 2
Flags: W
LayerCount: 2
Fore
SplineSet
277.5 34 m 128,-1,1
 231 -11 231 -11 159 -11 c 128,-1,2
 87 -11 87 -11 8 31 c 1,3,-1
 8 113 l 1,4,5
 78 65 78 65 139.5 65 c 128,-1,6
 201 65 201 65 223 95 c 128,-1,7
 245 125 245 125 245 182 c 2,8,-1
 245 629 l 1,9,-1
 324 629 l 1,10,-1
 324 182 l 2,11,0
 324 79 324 79 277.5 34 c 128,-1,1
187 225 m 1,12,13
 179 280 179 280 191 333 c 0,14,15
 193 346 193 346 197 358 c 1,16,17
 195 371 195 371 194 385 c 0,18,19
 192 420 192 420 198 455 c 1,20,21
 213 526 213 526 260 581 c 1,22,23
 307 634 307 634 375 661 c 0,24,25
 422 679 422 679 473 681 c 1,26,27
 406 703 406 703 339 691 c 0,28,29
 272 680 272 680 216 637 c 128,-1,30
 160 594 160 594 132.5 532 c 128,-1,31
 105 470 105 470 109.5 399.5 c 128,-1,32
 114 329 114 329 150 272 c 0,33,34
 166 246 166 246 187 225 c 1,12,13
638 602 m 1,35,36
 685 537 685 537 694 459 c 0,37,38
 695 446 695 446 695 433 c 1,39,40
 696 426 696 426 695 418 c 1,41,42
 699 412 699 412 703 406 c 1,43,44
 707 402 707 402 709 396 c 1,45,46
 756 323 756 323 762 234 c 1,47,48
 766 248 766 248 769 260 c 0,49,50
 789 343 789 343 768 423 c 0,51,52
 746 504 746 504 687 562 c 0,53,54
 665 585 665 585 638 602 c 1,35,36
688 366 m 1,55,56
 676 313 676 313 646 271 c 1,57,58
 618 230 618 230 575.5 201.5 c 128,-1,59
 533 173 533 173 485 164 c 1,60,61
 435 153 435 153 385 164 c 128,-1,62
 335 175 335 175 295 204 c 1,63,64
 246 238 246 238 219 294 c 1,65,66
 214 248 214 248 226 204 c 0,67,68
 229 196 229 196 231 188 c 1,69,70
 239 183 239 183 248 178 c 0,71,72
 308 143 308 143 376 141 c 0,73,74
 383 141 383 141 387.5 135.5 c 128,-1,75
 392 130 392 130 392 123 c 128,-1,76
 392 116 392 116 386.5 111.5 c 128,-1,77
 381 107 381 107 374 107 c 0,78,79
 315 109 315 109 258 135 c 1,80,81
 260 130 260 130 264 125 c 0,82,83
 312 58 312 58 394 32 c 0,84,85
 473 6 473 6 555 30 c 0,86,87
 635 53 635 53 693 116 c 0,88,89
 708 133 708 133 722 153 c 1,90,91
 723 157 723 157 724 160 c 0,92,93
 726 175 726 175 727 190 c 0,94,95
 735 284 735 284 688 366 c 1,55,56
689 65 m 1,96,97
 633 17 633 17 565 -3 c 0,98,99
 473 -29 473 -29 384 0 c 0,100,101
 292 29 292 29 237 106 c 0,102,103
 223 124 223 124 213 146 c 0,104,105
 208 156 208 156 203 166 c 1,106,107
 195 172 195 172 187 179 c 0,108,109
 147 211 147 211 121 254 c 0,110,111
 81 318 81 318 76 397 c 128,-1,112
 71 476 71 476 102 546 c 128,-1,113
 133 616 133 616 195.5 664 c 128,-1,114
 258 712 258 712 333 725 c 0,115,116
 436 743 436 743 532 693 c 0,117,118
 551 683 551 683 570 669 c 1,119,120
 591 663 591 663 611 655 c 0,121,122
 668 630 668 630 711 587 c 0,123,124
 776 521 776 521 800 431 c 0,125,126
 824 343 824 343 802 253 c 0,127,128
 792 214 792 214 775 178 c 0,129,130
 766 158 766 158 754 140 c 1,131,132
 749 118 749 118 741 96 c 0,133,134
 706 3 706 3 628 -56 c 0,135,136
 577 -94 577 -94 514.5 -111.5 c 128,-1,137
 452 -129 452 -129 389.5 -122.5 c 128,-1,138
 327 -116 327 -116 269.5 -86.5 c 128,-1,139
 212 -57 212 -57 169 -10 c 0,140,141
 165 -5 165 -5 165.5 2.5 c 128,-1,142
 166 10 166 10 171 14.5 c 128,-1,143
 176 19 176 19 183.5 18.5 c 128,-1,144
 191 18 191 18 195 12 c 1,145,146
 233 -30 233 -30 285 -56.5 c 128,-1,147
 337 -83 337 -83 393 -88.5 c 128,-1,148
 449 -94 449 -94 505 -78 c 128,-1,149
 561 -62 561 -62 607 -28 c 0,150,151
 657 9 657 9 689 65 c 1,96,97
228 419 m 1,152,153
 248 449 248 449 272 472 c 0,154,155
 323 519 323 519 390 535 c 0,156,157
 482 557 482 557 572 517 c 0,158,159
 620 495 620 495 660 458 c 1,160,161
 649 545 649 545 587 610 c 0,162,163
 572 625 572 625 554 639 c 1,164,165
 551 640 551 640 547 640 c 1,166,167
 532 644 532 644 518 646 c 0,168,169
 450 653 450 653 388 629 c 0,170,171
 328 606 328 606 286 559 c 1,172,173
 244 510 244 510 231 449 c 0,174,175
 229 435 229 435 228 419 c 1,152,153
233 356 m 1,176,177
 237 340 237 340 242 328 c 0,178,179
 264 267 264 267 315 231 c 0,180,181
 350 206 350 206 393 197 c 128,-1,182
 436 188 436 188 478 197 c 0,183,184
 520 205 520 205 557 230 c 128,-1,185
 594 255 594 255 618 290 c 0,186,187
 651 337 651 337 659 396 c 0,188,189
 660 402 660 402 660 407 c 1,190,191
 656 412 656 412 653 415 c 0,192,193
 612 462 612 462 558 486 c 0,194,195
 479 521 479 521 398 502 c 1,196,197
 340 487 340 487 295 447 c 0,198,199
 261 416 261 416 242 374 c 0,200,201
 237 365 237 365 233 356 c 1,176,177
EndSplineSet
EndChar

StartChar: K
Encoding: 75 75 46
Width: 609
GlyphClass: 2
Flags: W
LayerCount: 2
Fore
SplineSet
181 629 m 1,0,-1
 181 338 l 1,1,-1
 462 629 l 1,2,-1
 571 629 l 1,3,-1
 296 346 l 1,4,-1
 588 0 l 1,5,-1
 486 0 l 1,6,-1
 243 291 l 1,7,-1
 181 227 l 1,8,-1
 181 0 l 1,9,-1
 101 0 l 1,10,-1
 101 629 l 1,11,-1
 181 629 l 1,0,-1
EndSplineSet
EndChar

StartChar: L
Encoding: 76 76 47
Width: 468
GlyphClass: 2
Flags: W
LayerCount: 2
Fore
SplineSet
180 69 m 1,0,-1
 460 69 l 1,1,-1
 460 0 l 1,2,-1
 101 0 l 1,3,-1
 101 629 l 1,4,-1
 180 629 l 1,5,-1
 180 69 l 1,0,-1
EndSplineSet
EndChar

StartChar: M
Encoding: 77 77 48
Width: 848
GlyphClass: 2
Flags: W
LayerCount: 2
Fore
SplineSet
214 629 m 1,0,-1
 426 203 l 1,1,-1
 636 629 l 1,2,-1
 747 629 l 1,3,-1
 747 0 l 1,4,-1
 668 0 l 1,5,-1
 668 517 l 1,6,-1
 452 79 l 1,7,-1
 399 79 l 1,8,-1
 180 524 l 1,9,-1
 180 0 l 1,10,-1
 101 0 l 1,11,-1
 101 629 l 1,12,-1
 214 629 l 1,0,-1
187 225 m 1,13,14
 179 280 179 280 191 333 c 0,15,16
 193 346 193 346 197 358 c 1,17,18
 195 371 195 371 194 385 c 0,19,20
 192 420 192 420 198 455 c 1,21,22
 213 526 213 526 260 581 c 1,23,24
 307 634 307 634 375 661 c 0,25,26
 422 679 422 679 473 681 c 1,27,28
 406 703 406 703 339 691 c 0,29,30
 272 680 272 680 216 637 c 128,-1,31
 160 594 160 594 132.5 532 c 128,-1,32
 105 470 105 470 109.5 399.5 c 128,-1,33
 114 329 114 329 150 272 c 0,34,35
 166 246 166 246 187 225 c 1,13,14
638 602 m 1,36,37
 685 537 685 537 694 459 c 0,38,39
 695 446 695 446 695 433 c 1,40,41
 696 426 696 426 695 418 c 1,42,43
 699 412 699 412 703 406 c 1,44,45
 707 402 707 402 709 396 c 1,46,47
 756 323 756 323 762 234 c 1,48,49
 766 248 766 248 769 260 c 0,50,51
 789 343 789 343 768 423 c 0,52,53
 746 504 746 504 687 562 c 0,54,55
 665 585 665 585 638 602 c 1,36,37
688 366 m 1,56,57
 676 313 676 313 646 271 c 1,58,59
 618 230 618 230 575.5 201.5 c 128,-1,60
 533 173 533 173 485 164 c 1,61,62
 435 153 435 153 385 164 c 128,-1,63
 335 175 335 175 295 204 c 1,64,65
 246 238 246 238 219 294 c 1,66,67
 214 248 214 248 226 204 c 0,68,69
 229 196 229 196 231 188 c 1,70,71
 239 183 239 183 248 178 c 0,72,73
 308 143 308 143 376 141 c 0,74,75
 383 141 383 141 387.5 135.5 c 128,-1,76
 392 130 392 130 392 123 c 128,-1,77
 392 116 392 116 386.5 111.5 c 128,-1,78
 381 107 381 107 374 107 c 0,79,80
 315 109 315 109 258 135 c 1,81,82
 260 130 260 130 264 125 c 0,83,84
 312 58 312 58 394 32 c 0,85,86
 473 6 473 6 555 30 c 0,87,88
 635 53 635 53 693 116 c 0,89,90
 708 133 708 133 722 153 c 1,91,92
 723 157 723 157 724 160 c 0,93,94
 726 175 726 175 727 190 c 0,95,96
 735 284 735 284 688 366 c 1,56,57
689 65 m 1,97,98
 633 17 633 17 565 -3 c 0,99,100
 473 -29 473 -29 384 0 c 0,101,102
 292 29 292 29 237 106 c 0,103,104
 223 124 223 124 213 146 c 0,105,106
 208 156 208 156 203 166 c 1,107,108
 195 172 195 172 187 179 c 0,109,110
 147 211 147 211 121 254 c 0,111,112
 81 318 81 318 76 397 c 128,-1,113
 71 476 71 476 102 546 c 128,-1,114
 133 616 133 616 195.5 664 c 128,-1,115
 258 712 258 712 333 725 c 0,116,117
 436 743 436 743 532 693 c 0,118,119
 551 683 551 683 570 669 c 1,120,121
 591 663 591 663 611 655 c 0,122,123
 668 630 668 630 711 587 c 0,124,125
 776 521 776 521 800 431 c 0,126,127
 824 343 824 343 802 253 c 0,128,129
 792 214 792 214 775 178 c 0,130,131
 766 158 766 158 754 140 c 1,132,133
 749 118 749 118 741 96 c 0,134,135
 706 3 706 3 628 -56 c 0,136,137
 577 -94 577 -94 514.5 -111.5 c 128,-1,138
 452 -129 452 -129 389.5 -122.5 c 128,-1,139
 327 -116 327 -116 269.5 -86.5 c 128,-1,140
 212 -57 212 -57 169 -10 c 0,141,142
 165 -5 165 -5 165.5 2.5 c 128,-1,143
 166 10 166 10 171 14.5 c 128,-1,144
 176 19 176 19 183.5 18.5 c 128,-1,145
 191 18 191 18 195 12 c 1,146,147
 233 -30 233 -30 285 -56.5 c 128,-1,148
 337 -83 337 -83 393 -88.5 c 128,-1,149
 449 -94 449 -94 505 -78 c 128,-1,150
 561 -62 561 -62 607 -28 c 0,151,152
 657 9 657 9 689 65 c 1,97,98
228 419 m 1,153,154
 248 449 248 449 272 472 c 0,155,156
 323 519 323 519 390 535 c 0,157,158
 482 557 482 557 572 517 c 0,159,160
 620 495 620 495 660 458 c 1,161,162
 649 545 649 545 587 610 c 0,163,164
 572 625 572 625 554 639 c 1,165,166
 551 640 551 640 547 640 c 1,167,168
 532 644 532 644 518 646 c 0,169,170
 450 653 450 653 388 629 c 0,171,172
 328 606 328 606 286 559 c 1,173,174
 244 510 244 510 231 449 c 0,175,176
 229 435 229 435 228 419 c 1,153,154
233 356 m 1,177,178
 237 340 237 340 242 328 c 0,179,180
 264 267 264 267 315 231 c 0,181,182
 350 206 350 206 393 197 c 128,-1,183
 436 188 436 188 478 197 c 0,184,185
 520 205 520 205 557 230 c 128,-1,186
 594 255 594 255 618 290 c 0,187,188
 651 337 651 337 659 396 c 0,189,190
 660 402 660 402 660 407 c 1,191,192
 656 412 656 412 653 415 c 0,193,194
 612 462 612 462 558 486 c 0,195,196
 479 521 479 521 398 502 c 1,197,198
 340 487 340 487 295 447 c 0,199,200
 261 416 261 416 242 374 c 0,201,202
 237 365 237 365 233 356 c 1,177,178
EndSplineSet
EndChar

StartChar: N
Encoding: 78 78 49
Width: 685
GlyphClass: 2
Flags: W
LayerCount: 2
Fore
SplineSet
193 629 m 1,0,-1
 505 124 l 1,1,-1
 505 629 l 1,2,-1
 584 629 l 1,3,-1
 584 0 l 1,4,-1
 496 0 l 1,5,-1
 179 512 l 1,6,-1
 179 0 l 1,7,-1
 99 0 l 1,8,-1
 99 629 l 1,9,-1
 193 629 l 1,0,-1
1081 95 m 1,10,11
 1072 93 1072 93 1065 91 c 0,12,13
 1030 85 1030 85 995 98 c 1,14,15
 964 111 964 111 939 138 c 0,16,17
 899 182 899 182 885 257 c 0,18,19
 882 275 882 275 880 298 c 1,20,21
 866 303 866 303 857 307 c 0,22,23
 796 330 796 330 763 359 c 1,24,25
 759 353 759 353 755 348 c 0,26,27
 709 283 709 283 716 202 c 0,28,29
 717 195 717 195 713 189.5 c 128,-1,30
 709 184 709 184 701.5 183.5 c 128,-1,31
 694 183 694 183 688.5 187.5 c 128,-1,32
 683 192 683 192 683 199 c 0,33,34
 673 291 673 291 727 368 c 0,35,36
 733 376 733 376 739 382 c 1,37,38
 718 409 718 409 710 438 c 1,39,40
 701 477 701 477 715 511 c 0,41,42
 731 549 731 549 767 563 c 0,43,44
 787 571 787 571 806 569 c 1,45,46
 827 568 827 568 844 556 c 0,47,48
 866 540 866 540 880 507 c 1,49,50
 889 489 889 489 894 469 c 1,51,52
 975 480 975 480 1045 442 c 0,53,54
 1085 421 1085 421 1115 386.5 c 128,-1,55
 1145 352 1145 352 1160 310 c 0,56,57
 1186 240 1186 240 1164 179 c 0,58,59
 1152 145 1152 145 1127 122 c 0,60,61
 1120 116 1120 116 1112 111 c 1,62,63
 1123 60 1123 60 1113 8 c 128,-1,64
 1103 -44 1103 -44 1076 -88 c 0,65,66
 1072 -94 1072 -94 1065 -95 c 128,-1,67
 1058 -96 1058 -96 1052.5 -92.5 c 128,-1,68
 1047 -89 1047 -89 1045.5 -82 c 128,-1,69
 1044 -75 1044 -75 1047 -69 c 0,70,71
 1095 6 1095 6 1081 95 c 1,10,11
912 323 m 1,72,73
 960 304 960 304 987 288 c 0,74,75
 1070 238 1070 238 1102 146 c 1,76,77
 1103 147 1103 147 1104 147 c 0,78,79
 1123 165 1123 165 1132 191 c 0,80,81
 1150 240 1150 240 1129 298 c 0,82,83
 1115 334 1115 334 1089 363.5 c 128,-1,84
 1063 393 1063 393 1029 412 c 0,85,86
 970 444 970 444 902 435 c 1,87,88
 905 412 905 412 908 382 c 0,89,90
 908 372 908 372 909.5 351.5 c 128,-1,91
 911 331 911 331 912 323 c 1,72,73
787 382 m 1,92,93
 816 359 816 359 869 338 c 0,94,95
 873 337 873 337 877 336 c 1,96,97
 874 375 874 375 874 380 c 0,98,99
 872 408 872 408 868 428 c 1,100,101
 823 415 823 415 787 382 c 1,92,93
763 407 m 1,102,103
 806 446 806 446 861 461 c 1,104,105
 857 479 857 479 850 494 c 0,106,107
 839 518 839 518 824 528 c 0,108,109
 815 535 815 535 803 535.5 c 128,-1,110
 791 536 791 536 780 532 c 0,111,112
 756 523 756 523 746 498 c 0,113,114
 737 474 737 474 744 447 c 0,115,116
 749 427 749 427 763 407 c 1,102,103
915 285 m 1,117,118
 917 273 917 273 919 263 c 0,119,120
 931 198 931 198 965 161 c 0,121,122
 984 140 984 140 1008 130 c 0,123,124
 1033 120 1033 120 1059 125 c 0,125,126
 1066 126 1066 126 1072 128 c 1,127,128
 1060 169 1060 169 1033 203 c 128,-1,129
 1006 237 1006 237 970 258 c 1,130,131
 948 272 948 272 915 285 c 1,117,118
EndSplineSet
EndChar

StartChar: O
Encoding: 79 79 50
Width: 646
GlyphClass: 2
Flags: W
LayerCount: 2
Fore
SplineSet
323 640 m 0,0,1
 445 640 445 640 520.5 556.5 c 128,-1,2
 596 473 596 473 596 313.5 c 128,-1,3
 596 154 596 154 521 71.5 c 128,-1,4
 446 -11 446 -11 323 -11 c 256,5,6
 200 -11 200 -11 125.5 72.5 c 128,-1,7
 51 156 51 156 51 314 c 0,8,9
 51 473 51 473 125.5 556.5 c 128,-1,10
 200 640 200 640 323 640 c 0,0,1
323 569 m 256,11,12
 235 569 235 569 184 503 c 128,-1,13
 133 437 133 437 133 313 c 128,-1,14
 133 189 133 189 184 125 c 128,-1,15
 235 61 235 61 323 61 c 256,16,17
 411 61 411 61 462.5 125 c 128,-1,18
 514 189 514 189 514 313 c 128,-1,19
 514 437 514 437 462.5 503 c 128,-1,20
 411 569 411 569 323 569 c 256,11,12
1081 95 m 1,21,22
 1072 93 1072 93 1065 91 c 0,23,24
 1030 85 1030 85 995 98 c 1,25,26
 964 111 964 111 939 138 c 0,27,28
 899 182 899 182 885 257 c 0,29,30
 882 275 882 275 880 298 c 1,31,32
 866 303 866 303 857 307 c 0,33,34
 796 330 796 330 763 359 c 1,35,36
 759 353 759 353 755 348 c 0,37,38
 709 283 709 283 716 202 c 0,39,40
 717 195 717 195 713 189.5 c 128,-1,41
 709 184 709 184 701.5 183.5 c 128,-1,42
 694 183 694 183 688.5 187.5 c 128,-1,43
 683 192 683 192 683 199 c 0,44,45
 673 291 673 291 727 368 c 0,46,47
 733 376 733 376 739 382 c 1,48,49
 718 409 718 409 710 438 c 1,50,51
 701 477 701 477 715 511 c 0,52,53
 731 549 731 549 767 563 c 0,54,55
 787 571 787 571 806 569 c 1,56,57
 827 568 827 568 844 556 c 0,58,59
 866 540 866 540 880 507 c 1,60,61
 889 489 889 489 894 469 c 1,62,63
 975 480 975 480 1045 442 c 0,64,65
 1085 421 1085 421 1115 386.5 c 128,-1,66
 1145 352 1145 352 1160 310 c 0,67,68
 1186 240 1186 240 1164 179 c 0,69,70
 1152 145 1152 145 1127 122 c 0,71,72
 1120 116 1120 116 1112 111 c 1,73,74
 1123 60 1123 60 1113 8 c 128,-1,75
 1103 -44 1103 -44 1076 -88 c 0,76,77
 1072 -94 1072 -94 1065 -95 c 128,-1,78
 1058 -96 1058 -96 1052.5 -92.5 c 128,-1,79
 1047 -89 1047 -89 1045.5 -82 c 128,-1,80
 1044 -75 1044 -75 1047 -69 c 0,81,82
 1095 6 1095 6 1081 95 c 1,21,22
912 323 m 1,83,84
 960 304 960 304 987 288 c 0,85,86
 1070 238 1070 238 1102 146 c 1,87,88
 1103 147 1103 147 1104 147 c 0,89,90
 1123 165 1123 165 1132 191 c 0,91,92
 1150 240 1150 240 1129 298 c 0,93,94
 1115 334 1115 334 1089 363.5 c 128,-1,95
 1063 393 1063 393 1029 412 c 0,96,97
 970 444 970 444 902 435 c 1,98,99
 905 412 905 412 908 382 c 0,100,101
 908 372 908 372 909.5 351.5 c 128,-1,102
 911 331 911 331 912 323 c 1,83,84
787 382 m 1,103,104
 816 359 816 359 869 338 c 0,105,106
 873 337 873 337 877 336 c 1,107,108
 874 375 874 375 874 380 c 0,109,110
 872 408 872 408 868 428 c 1,111,112
 823 415 823 415 787 382 c 1,103,104
763 407 m 1,113,114
 806 446 806 446 861 461 c 1,115,116
 857 479 857 479 850 494 c 0,117,118
 839 518 839 518 824 528 c 0,119,120
 815 535 815 535 803 535.5 c 128,-1,121
 791 536 791 536 780 532 c 0,122,123
 756 523 756 523 746 498 c 0,124,125
 737 474 737 474 744 447 c 0,126,127
 749 427 749 427 763 407 c 1,113,114
915 285 m 1,128,129
 917 273 917 273 919 263 c 0,130,131
 931 198 931 198 965 161 c 0,132,133
 984 140 984 140 1008 130 c 0,134,135
 1033 120 1033 120 1059 125 c 0,136,137
 1066 126 1066 126 1072 128 c 1,138,139
 1060 169 1060 169 1033 203 c 128,-1,140
 1006 237 1006 237 970 258 c 1,141,142
 948 272 948 272 915 285 c 1,128,129
EndSplineSet
EndChar

StartChar: P
Encoding: 80 80 51
Width: 554
GlyphClass: 2
Flags: W
LayerCount: 2
Fore
SplineSet
460.5 576.5 m 128,-1,1
 515 524 515 524 515 435 c 128,-1,2
 515 346 515 346 460.5 294.5 c 128,-1,3
 406 243 406 243 302 243 c 2,4,-1
 178 243 l 1,5,-1
 178 0 l 1,6,-1
 99 0 l 1,7,-1
 99 629 l 1,8,-1
 302 629 l 2,9,0
 406 629 406 629 460.5 576.5 c 128,-1,1
302 311 m 2,10,11
 367 311 367 311 400.5 344 c 128,-1,12
 434 377 434 377 434 434.5 c 128,-1,13
 434 492 434 492 400.5 526.5 c 128,-1,14
 367 561 367 561 302 561 c 2,15,-1
 178 561 l 1,16,-1
 178 311 l 1,17,-1
 302 311 l 2,10,11
EndSplineSet
EndChar

StartChar: Q
Encoding: 81 81 52
Width: 652
GlyphClass: 2
Flags: W
LayerCount: 2
Fore
SplineSet
596 -148 m 1,0,1
 556 -167 556 -167 512 -167 c 0,2,3
 427 -167 427 -167 366 -78 c 1,4,-1
 319 -11 l 1,5,6
 198 -9 198 -9 124.5 74 c 128,-1,7
 51 157 51 157 51 315 c 128,-1,8
 51 473 51 473 125.5 556.5 c 128,-1,9
 200 640 200 640 323 640 c 0,10,11
 445 640 445 640 520.5 556.5 c 128,-1,12
 596 473 596 473 596 314 c 0,13,14
 596 182 596 182 543 101.5 c 128,-1,15
 490 21 490 21 399 -2 c 1,16,-1
 430 -46 l 1,17,18
 459 -85 459 -85 499 -87 c 1,19,20
 542 -87 542 -87 596 -62 c 1,21,-1
 596 -148 l 1,0,1
323 569 m 256,22,23
 235 569 235 569 184 503 c 128,-1,24
 133 437 133 437 133 313 c 128,-1,25
 133 189 133 189 184 125 c 128,-1,26
 235 61 235 61 323 61 c 256,27,28
 411 61 411 61 462.5 125 c 128,-1,29
 514 189 514 189 514 313 c 128,-1,30
 514 437 514 437 462.5 503 c 128,-1,31
 411 569 411 569 323 569 c 256,22,23
941 418 m 1,32,33
 906 426 906 426 873 445 c 0,34,35
 828 472 828 472 766 535 c 0,36,37
 716 587 716 587 698 602 c 1,38,39
 683 584 683 584 671 565 c 0,40,41
 648 525 648 525 648 482 c 0,42,43
 647 437 647 437 670.5 398.5 c 128,-1,44
 694 360 694 360 735 340.5 c 128,-1,45
 776 321 776 321 820.5 326.5 c 128,-1,46
 865 332 865 332 900 361 c 1,47,48
 926 384 926 384 941 418 c 1,32,33
951 451 m 1,49,50
 953 463 953 463 954 476 c 1,51,52
 954 508 954 508 939.5 539 c 128,-1,53
 925 570 925 570 902 591 c 0,54,55
 897 595 897 595 896 602.5 c 128,-1,56
 895 610 895 610 899.5 615 c 128,-1,57
 904 620 904 620 911.5 620.5 c 128,-1,58
 919 621 919 621 924 616 c 0,59,60
 954 590 954 590 971 552.5 c 128,-1,61
 988 515 988 515 988 475 c 1,62,63
 987 462 987 462 984 446 c 1,64,65
 997 446 997 446 1008 448 c 0,66,67
 1040 453 1040 453 1066 472 c 256,68,69
 1092 491 1092 491 1106 519 c 1,70,71
 1119 549 1119 549 1116 581 c 0,72,73
 1113 612 1113 612 1095 638 c 0,74,75
 1066 678 1066 678 1009 690 c 0,76,77
 965 700 965 700 902 692 c 0,78,79
 796 678 796 678 731 631 c 0,80,81
 727 628 727 628 724 625 c 1,82,83
 740 610 740 610 790 559 c 0,84,85
 849 499 849 499 891 475 c 1,86,87
 920 457 920 457 951 451 c 1,49,50
698 647 m 1,88,89
 704 653 704 653 711 658 c 0,90,91
 783 711 783 711 897 726 c 0,92,93
 966 735 966 735 1017 723 c 0,94,95
 1086 707 1086 707 1122 658 c 0,96,97
 1146 625 1146 625 1150 583 c 0,98,99
 1153 543 1153 543 1136 506 c 0,100,101
 1119 468 1119 468 1086 445 c 1,102,103
 1054 421 1054 421 1013 414 c 0,104,105
 995 411 995 411 976 412 c 1,106,107
 958 366 958 366 922 336 c 1,108,109
 880 299 880 299 825 292.5 c 128,-1,110
 770 286 770 286 720 309.5 c 128,-1,111
 670 333 670 333 641.5 380.5 c 128,-1,112
 613 428 613 428 614 483 c 0,113,114
 614 535 614 535 642 582 c 0,115,116
 655 604 655 604 672 623 c 1,117,118
 671 624 671 624 670 625 c 0,119,120
 612 669 612 669 557 672 c 1,121,122
 492 678 492 678 442.5 635.5 c 128,-1,123
 393 593 393 593 388 529 c 0,124,125
 388 522 388 522 382.5 517.5 c 128,-1,126
 377 513 377 513 370 513.5 c 128,-1,127
 363 514 363 514 358.5 519.5 c 128,-1,128
 354 525 354 525 354 531 c 0,129,130
 361 610 361 610 420.5 661 c 128,-1,131
 480 712 480 712 559 706 c 1,132,133
 625 702 625 702 691 652 c 0,134,135
 693 650 693 650 698 647 c 1,88,89
EndSplineSet
EndChar

StartChar: R
Encoding: 82 82 53
Width: 613
GlyphClass: 2
Flags: W
LayerCount: 2
Fore
SplineSet
497.5 323 m 128,-1,1
 456 275 456 275 375 261 c 1,2,-1
 555 0 l 1,3,-1
 453 0 l 1,4,-1
 290 257 l 1,5,-1
 180 257 l 1,6,-1
 180 0 l 1,7,-1
 101 0 l 1,8,-1
 101 629 l 1,9,-1
 320 629 l 2,10,11
 426 629 426 629 482.5 578 c 128,-1,12
 539 527 539 527 539 449 c 128,-1,0
 539 371 539 371 497.5 323 c 128,-1,1
314 312 m 2,13,14
 385 312 385 312 421.5 346.5 c 128,-1,15
 458 381 458 381 458 437.5 c 128,-1,16
 458 494 458 494 422.5 527.5 c 128,-1,17
 387 561 387 561 320 561 c 2,18,-1
 180 561 l 1,19,-1
 180 312 l 1,20,-1
 314 312 l 2,13,14
941 418 m 1,21,22
 906 426 906 426 873 445 c 0,23,24
 828 472 828 472 766 535 c 0,25,26
 716 587 716 587 698 602 c 1,27,28
 683 584 683 584 671 565 c 0,29,30
 648 525 648 525 648 482 c 0,31,32
 647 437 647 437 670.5 398.5 c 128,-1,33
 694 360 694 360 735 340.5 c 128,-1,34
 776 321 776 321 820.5 326.5 c 128,-1,35
 865 332 865 332 900 361 c 1,36,37
 926 384 926 384 941 418 c 1,21,22
951 451 m 1,38,39
 953 463 953 463 954 476 c 1,40,41
 954 508 954 508 939.5 539 c 128,-1,42
 925 570 925 570 902 591 c 0,43,44
 897 595 897 595 896 602.5 c 128,-1,45
 895 610 895 610 899.5 615 c 128,-1,46
 904 620 904 620 911.5 620.5 c 128,-1,47
 919 621 919 621 924 616 c 0,48,49
 954 590 954 590 971 552.5 c 128,-1,50
 988 515 988 515 988 475 c 1,51,52
 987 462 987 462 984 446 c 1,53,54
 997 446 997 446 1008 448 c 0,55,56
 1040 453 1040 453 1066 472 c 256,57,58
 1092 491 1092 491 1106 519 c 1,59,60
 1119 549 1119 549 1116 581 c 0,61,62
 1113 612 1113 612 1095 638 c 0,63,64
 1066 678 1066 678 1009 690 c 0,65,66
 965 700 965 700 902 692 c 0,67,68
 796 678 796 678 731 631 c 0,69,70
 727 628 727 628 724 625 c 1,71,72
 740 610 740 610 790 559 c 0,73,74
 849 499 849 499 891 475 c 1,75,76
 920 457 920 457 951 451 c 1,38,39
698 647 m 1,77,78
 704 653 704 653 711 658 c 0,79,80
 783 711 783 711 897 726 c 0,81,82
 966 735 966 735 1017 723 c 0,83,84
 1086 707 1086 707 1122 658 c 0,85,86
 1146 625 1146 625 1150 583 c 0,87,88
 1153 543 1153 543 1136 506 c 0,89,90
 1119 468 1119 468 1086 445 c 1,91,92
 1054 421 1054 421 1013 414 c 0,93,94
 995 411 995 411 976 412 c 1,95,96
 958 366 958 366 922 336 c 1,97,98
 880 299 880 299 825 292.5 c 128,-1,99
 770 286 770 286 720 309.5 c 128,-1,100
 670 333 670 333 641.5 380.5 c 128,-1,101
 613 428 613 428 614 483 c 0,102,103
 614 535 614 535 642 582 c 0,104,105
 655 604 655 604 672 623 c 1,106,107
 671 624 671 624 670 625 c 0,108,109
 612 669 612 669 557 672 c 1,110,111
 492 678 492 678 442.5 635.5 c 128,-1,112
 393 593 393 593 388 529 c 0,113,114
 388 522 388 522 382.5 517.5 c 128,-1,115
 377 513 377 513 370 513.5 c 128,-1,116
 363 514 363 514 358.5 519.5 c 128,-1,117
 354 525 354 525 354 531 c 0,118,119
 361 610 361 610 420.5 661 c 128,-1,120
 480 712 480 712 559 706 c 1,121,122
 625 702 625 702 691 652 c 0,123,124
 693 650 693 650 698 647 c 1,77,78
EndSplineSet
EndChar

StartChar: S
Encoding: 83 83 54
Width: 605
GlyphClass: 2
Flags: W
LayerCount: 2
Fore
SplineSet
436 476 m 1,0,1
 419 568 419 568 301 568 c 0,2,3
 238 568 238 568 204 540.5 c 128,-1,4
 170 513 170 513 170 474.5 c 128,-1,5
 170 436 170 436 191 416 c 128,-1,6
 212 396 212 396 259 381 c 1,7,-1
 390 336 l 2,8,9
 457 313 457 313 496.5 273 c 128,-1,10
 536 233 536 233 536 160.5 c 128,-1,11
 536 88 536 88 474 38.5 c 128,-1,12
 412 -11 412 -11 308 -11 c 128,-1,13
 204 -11 204 -11 137.5 41.5 c 128,-1,14
 71 94 71 94 69 189 c 1,15,-1
 146 189 l 1,16,17
 146 127 146 127 189.5 94 c 128,-1,18
 233 61 233 61 301.5 61 c 128,-1,19
 370 61 370 61 410 91.5 c 128,-1,20
 450 122 450 122 450 163.5 c 128,-1,21
 450 205 450 205 425.5 229 c 128,-1,22
 401 253 401 253 353 269 c 1,23,-1
 242 310 l 1,24,25
 164 336 164 336 124 372 c 128,-1,26
 84 408 84 408 84 477.5 c 128,-1,27
 84 547 84 547 140 593.5 c 128,-1,28
 196 640 196 640 297 640 c 128,-1,29
 398 640 398 640 451.5 595.5 c 128,-1,30
 505 551 505 551 513 476 c 1,31,-1
 436 476 l 1,0,1
187 225 m 1,32,33
 179 280 179 280 191 333 c 0,34,35
 193 346 193 346 197 358 c 1,36,37
 195 371 195 371 194 385 c 0,38,39
 192 420 192 420 198 455 c 1,40,41
 213 526 213 526 260 581 c 1,42,43
 307 634 307 634 375 661 c 0,44,45
 422 679 422 679 473 681 c 1,46,47
 406 703 406 703 339 691 c 0,48,49
 272 680 272 680 216 637 c 128,-1,50
 160 594 160 594 132.5 532 c 128,-1,51
 105 470 105 470 109.5 399.5 c 128,-1,52
 114 329 114 329 150 272 c 0,53,54
 166 246 166 246 187 225 c 1,32,33
638 602 m 1,55,56
 685 537 685 537 694 459 c 0,57,58
 695 446 695 446 695 433 c 1,59,60
 696 426 696 426 695 418 c 1,61,62
 699 412 699 412 703 406 c 1,63,64
 707 402 707 402 709 396 c 1,65,66
 756 323 756 323 762 234 c 1,67,68
 766 248 766 248 769 260 c 0,69,70
 789 343 789 343 768 423 c 0,71,72
 746 504 746 504 687 562 c 0,73,74
 665 585 665 585 638 602 c 1,55,56
688 366 m 1,75,76
 676 313 676 313 646 271 c 1,77,78
 618 230 618 230 575.5 201.5 c 128,-1,79
 533 173 533 173 485 164 c 1,80,81
 435 153 435 153 385 164 c 128,-1,82
 335 175 335 175 295 204 c 1,83,84
 246 238 246 238 219 294 c 1,85,86
 214 248 214 248 226 204 c 0,87,88
 229 196 229 196 231 188 c 1,89,90
 239 183 239 183 248 178 c 0,91,92
 308 143 308 143 376 141 c 0,93,94
 383 141 383 141 387.5 135.5 c 128,-1,95
 392 130 392 130 392 123 c 128,-1,96
 392 116 392 116 386.5 111.5 c 128,-1,97
 381 107 381 107 374 107 c 0,98,99
 315 109 315 109 258 135 c 1,100,101
 260 130 260 130 264 125 c 0,102,103
 312 58 312 58 394 32 c 0,104,105
 473 6 473 6 555 30 c 0,106,107
 635 53 635 53 693 116 c 0,108,109
 708 133 708 133 722 153 c 1,110,111
 723 157 723 157 724 160 c 0,112,113
 726 175 726 175 727 190 c 0,114,115
 735 284 735 284 688 366 c 1,75,76
689 65 m 1,116,117
 633 17 633 17 565 -3 c 0,118,119
 473 -29 473 -29 384 0 c 0,120,121
 292 29 292 29 237 106 c 0,122,123
 223 124 223 124 213 146 c 0,124,125
 208 156 208 156 203 166 c 1,126,127
 195 172 195 172 187 179 c 0,128,129
 147 211 147 211 121 254 c 0,130,131
 81 318 81 318 76 397 c 128,-1,132
 71 476 71 476 102 546 c 128,-1,133
 133 616 133 616 195.5 664 c 128,-1,134
 258 712 258 712 333 725 c 0,135,136
 436 743 436 743 532 693 c 0,137,138
 551 683 551 683 570 669 c 1,139,140
 591 663 591 663 611 655 c 0,141,142
 668 630 668 630 711 587 c 0,143,144
 776 521 776 521 800 431 c 0,145,146
 824 343 824 343 802 253 c 0,147,148
 792 214 792 214 775 178 c 0,149,150
 766 158 766 158 754 140 c 1,151,152
 749 118 749 118 741 96 c 0,153,154
 706 3 706 3 628 -56 c 0,155,156
 577 -94 577 -94 514.5 -111.5 c 128,-1,157
 452 -129 452 -129 389.5 -122.5 c 128,-1,158
 327 -116 327 -116 269.5 -86.5 c 128,-1,159
 212 -57 212 -57 169 -10 c 0,160,161
 165 -5 165 -5 165.5 2.5 c 128,-1,162
 166 10 166 10 171 14.5 c 128,-1,163
 176 19 176 19 183.5 18.5 c 128,-1,164
 191 18 191 18 195 12 c 1,165,166
 233 -30 233 -30 285 -56.5 c 128,-1,167
 337 -83 337 -83 393 -88.5 c 128,-1,168
 449 -94 449 -94 505 -78 c 128,-1,169
 561 -62 561 -62 607 -28 c 0,170,171
 657 9 657 9 689 65 c 1,116,117
228 419 m 1,172,173
 248 449 248 449 272 472 c 0,174,175
 323 519 323 519 390 535 c 0,176,177
 482 557 482 557 572 517 c 0,178,179
 620 495 620 495 660 458 c 1,180,181
 649 545 649 545 587 610 c 0,182,183
 572 625 572 625 554 639 c 1,184,185
 551 640 551 640 547 640 c 1,186,187
 532 644 532 644 518 646 c 0,188,189
 450 653 450 653 388 629 c 0,190,191
 328 606 328 606 286 559 c 1,192,193
 244 510 244 510 231 449 c 0,194,195
 229 435 229 435 228 419 c 1,172,173
233 356 m 1,196,197
 237 340 237 340 242 328 c 0,198,199
 264 267 264 267 315 231 c 0,200,201
 350 206 350 206 393 197 c 128,-1,202
 436 188 436 188 478 197 c 0,203,204
 520 205 520 205 557 230 c 128,-1,205
 594 255 594 255 618 290 c 0,206,207
 651 337 651 337 659 396 c 0,208,209
 660 402 660 402 660 407 c 1,210,211
 656 412 656 412 653 415 c 0,212,213
 612 462 612 462 558 486 c 0,214,215
 479 521 479 521 398 502 c 1,216,217
 340 487 340 487 295 447 c 0,218,219
 261 416 261 416 242 374 c 0,220,221
 237 365 237 365 233 356 c 1,196,197
EndSplineSet
EndChar

StartChar: T
Encoding: 84 84 55
Width: 501
GlyphClass: 2
Flags: W
LayerCount: 2
Fore
SplineSet
6 629 m 1,0,-1
 495 629 l 1,1,-1
 495 561 l 1,2,-1
 290 561 l 1,3,-1
 290 0 l 1,4,-1
 211 0 l 1,5,-1
 211 561 l 1,6,-1
 6 561 l 1,7,-1
 6 629 l 1,0,-1
941 418 m 1,8,9
 906 426 906 426 873 445 c 0,10,11
 828 472 828 472 766 535 c 0,12,13
 716 587 716 587 698 602 c 1,14,15
 683 584 683 584 671 565 c 0,16,17
 648 525 648 525 648 482 c 0,18,19
 647 437 647 437 670.5 398.5 c 128,-1,20
 694 360 694 360 735 340.5 c 128,-1,21
 776 321 776 321 820.5 326.5 c 128,-1,22
 865 332 865 332 900 361 c 1,23,24
 926 384 926 384 941 418 c 1,8,9
951 451 m 1,25,26
 953 463 953 463 954 476 c 1,27,28
 954 508 954 508 939.5 539 c 128,-1,29
 925 570 925 570 902 591 c 0,30,31
 897 595 897 595 896 602.5 c 128,-1,32
 895 610 895 610 899.5 615 c 128,-1,33
 904 620 904 620 911.5 620.5 c 128,-1,34
 919 621 919 621 924 616 c 0,35,36
 954 590 954 590 971 552.5 c 128,-1,37
 988 515 988 515 988 475 c 1,38,39
 987 462 987 462 984 446 c 1,40,41
 997 446 997 446 1008 448 c 0,42,43
 1040 453 1040 453 1066 472 c 256,44,45
 1092 491 1092 491 1106 519 c 1,46,47
 1119 549 1119 549 1116 581 c 0,48,49
 1113 612 1113 612 1095 638 c 0,50,51
 1066 678 1066 678 1009 690 c 0,52,53
 965 700 965 700 902 692 c 0,54,55
 796 678 796 678 731 631 c 0,56,57
 727 628 727 628 724 625 c 1,58,59
 740 610 740 610 790 559 c 0,60,61
 849 499 849 499 891 475 c 1,62,63
 920 457 920 457 951 451 c 1,25,26
698 647 m 1,64,65
 704 653 704 653 711 658 c 0,66,67
 783 711 783 711 897 726 c 0,68,69
 966 735 966 735 1017 723 c 0,70,71
 1086 707 1086 707 1122 658 c 0,72,73
 1146 625 1146 625 1150 583 c 0,74,75
 1153 543 1153 543 1136 506 c 0,76,77
 1119 468 1119 468 1086 445 c 1,78,79
 1054 421 1054 421 1013 414 c 0,80,81
 995 411 995 411 976 412 c 1,82,83
 958 366 958 366 922 336 c 1,84,85
 880 299 880 299 825 292.5 c 128,-1,86
 770 286 770 286 720 309.5 c 128,-1,87
 670 333 670 333 641.5 380.5 c 128,-1,88
 613 428 613 428 614 483 c 0,89,90
 614 535 614 535 642 582 c 0,91,92
 655 604 655 604 672 623 c 1,93,94
 671 624 671 624 670 625 c 0,95,96
 612 669 612 669 557 672 c 1,97,98
 492 678 492 678 442.5 635.5 c 128,-1,99
 393 593 393 593 388 529 c 0,100,101
 388 522 388 522 382.5 517.5 c 128,-1,102
 377 513 377 513 370 513.5 c 128,-1,103
 363 514 363 514 358.5 519.5 c 128,-1,104
 354 525 354 525 354 531 c 0,105,106
 361 610 361 610 420.5 661 c 128,-1,107
 480 712 480 712 559 706 c 1,108,109
 625 702 625 702 691 652 c 0,110,111
 693 650 693 650 698 647 c 1,64,65
EndSplineSet
EndChar

StartChar: U
Encoding: 85 85 56
Width: 654
GlyphClass: 2
Flags: W
LayerCount: 2
Fore
SplineSet
166 629 m 1,0,-1
 166 227 l 2,1,2
 166 139 166 139 210 100 c 128,-1,3
 254 61 254 61 326 61 c 256,4,5
 398 61 398 61 442 100 c 128,-1,6
 486 139 486 139 486 227 c 2,7,-1
 486 629 l 1,8,-1
 565 629 l 1,9,-1
 565 227 l 2,10,11
 565 109 565 109 500 49 c 128,-1,12
 435 -11 435 -11 325.5 -11 c 128,-1,13
 216 -11 216 -11 151.5 49 c 128,-1,14
 87 109 87 109 87 227 c 2,15,-1
 87 629 l 1,16,-1
 166 629 l 1,0,-1
EndSplineSet
EndChar

StartChar: V
Encoding: 86 86 57
Width: 563
GlyphClass: 2
Flags: W
LayerCount: 2
Fore
SplineSet
101 629 m 1,0,-1
 281 100 l 1,1,-1
 462 629 l 1,2,-1
 545 629 l 1,3,-1
 322 0 l 1,4,-1
 240 0 l 1,5,-1
 18 629 l 1,6,-1
 101 629 l 1,0,-1
941 418 m 1,7,8
 906 426 906 426 873 445 c 0,9,10
 828 472 828 472 766 535 c 0,11,12
 716 587 716 587 698 602 c 1,13,14
 683 584 683 584 671 565 c 0,15,16
 648 525 648 525 648 482 c 0,17,18
 647 437 647 437 670.5 398.5 c 128,-1,19
 694 360 694 360 735 340.5 c 128,-1,20
 776 321 776 321 820.5 326.5 c 128,-1,21
 865 332 865 332 900 361 c 1,22,23
 926 384 926 384 941 418 c 1,7,8
951 451 m 1,24,25
 953 463 953 463 954 476 c 1,26,27
 954 508 954 508 939.5 539 c 128,-1,28
 925 570 925 570 902 591 c 0,29,30
 897 595 897 595 896 602.5 c 128,-1,31
 895 610 895 610 899.5 615 c 128,-1,32
 904 620 904 620 911.5 620.5 c 128,-1,33
 919 621 919 621 924 616 c 0,34,35
 954 590 954 590 971 552.5 c 128,-1,36
 988 515 988 515 988 475 c 1,37,38
 987 462 987 462 984 446 c 1,39,40
 997 446 997 446 1008 448 c 0,41,42
 1040 453 1040 453 1066 472 c 256,43,44
 1092 491 1092 491 1106 519 c 1,45,46
 1119 549 1119 549 1116 581 c 0,47,48
 1113 612 1113 612 1095 638 c 0,49,50
 1066 678 1066 678 1009 690 c 0,51,52
 965 700 965 700 902 692 c 0,53,54
 796 678 796 678 731 631 c 0,55,56
 727 628 727 628 724 625 c 1,57,58
 740 610 740 610 790 559 c 0,59,60
 849 499 849 499 891 475 c 1,61,62
 920 457 920 457 951 451 c 1,24,25
698 647 m 1,63,64
 704 653 704 653 711 658 c 0,65,66
 783 711 783 711 897 726 c 0,67,68
 966 735 966 735 1017 723 c 0,69,70
 1086 707 1086 707 1122 658 c 0,71,72
 1146 625 1146 625 1150 583 c 0,73,74
 1153 543 1153 543 1136 506 c 0,75,76
 1119 468 1119 468 1086 445 c 1,77,78
 1054 421 1054 421 1013 414 c 0,79,80
 995 411 995 411 976 412 c 1,81,82
 958 366 958 366 922 336 c 1,83,84
 880 299 880 299 825 292.5 c 128,-1,85
 770 286 770 286 720 309.5 c 128,-1,86
 670 333 670 333 641.5 380.5 c 128,-1,87
 613 428 613 428 614 483 c 0,88,89
 614 535 614 535 642 582 c 0,90,91
 655 604 655 604 672 623 c 1,92,93
 671 624 671 624 670 625 c 0,94,95
 612 669 612 669 557 672 c 1,96,97
 492 678 492 678 442.5 635.5 c 128,-1,98
 393 593 393 593 388 529 c 0,99,100
 388 522 388 522 382.5 517.5 c 128,-1,101
 377 513 377 513 370 513.5 c 128,-1,102
 363 514 363 514 358.5 519.5 c 128,-1,103
 354 525 354 525 354 531 c 0,104,105
 361 610 361 610 420.5 661 c 128,-1,106
 480 712 480 712 559 706 c 1,107,108
 625 702 625 702 691 652 c 0,109,110
 693 650 693 650 698 647 c 1,63,64
EndSplineSet
EndChar

StartChar: W
Encoding: 87 87 58
Width: 895
GlyphClass: 2
Flags: W
LayerCount: 2
Fore
SplineSet
102 629 m 1,0,-1
 255 106 l 1,1,-1
 410 564 l 1,2,-1
 463 564 l 1,3,-1
 617 106 l 1,4,-1
 793 629 l 1,5,-1
 880 629 l 1,6,-1
 658 0 l 1,7,-1
 575 0 l 1,8,-1
 438 403 l 1,9,-1
 296 0 l 1,10,-1
 213 0 l 1,11,-1
 14 629 l 1,12,-1
 102 629 l 1,0,-1
EndSplineSet
EndChar

StartChar: X
Encoding: 88 88 59
Width: 642
GlyphClass: 2
Flags: W
LayerCount: 2
Fore
SplineSet
593 0 m 1,0,-1
 495 0 l 1,1,-1
 313 251 l 1,2,-1
 144 0 l 1,3,-1
 48 0 l 1,4,-1
 270 312 l 1,5,-1
 47 629 l 1,6,-1
 142 629 l 1,7,-1
 322 372 l 1,8,-1
 488 629 l 1,9,-1
 583 629 l 1,10,-1
 366 313 l 1,11,-1
 593 0 l 1,0,-1
1081 95 m 1,12,13
 1072 93 1072 93 1065 91 c 0,14,15
 1030 85 1030 85 995 98 c 1,16,17
 964 111 964 111 939 138 c 0,18,19
 899 182 899 182 885 257 c 0,20,21
 882 275 882 275 880 298 c 1,22,23
 866 303 866 303 857 307 c 0,24,25
 796 330 796 330 763 359 c 1,26,27
 759 353 759 353 755 348 c 0,28,29
 709 283 709 283 716 202 c 0,30,31
 717 195 717 195 713 189.5 c 128,-1,32
 709 184 709 184 701.5 183.5 c 128,-1,33
 694 183 694 183 688.5 187.5 c 128,-1,34
 683 192 683 192 683 199 c 0,35,36
 673 291 673 291 727 368 c 0,37,38
 733 376 733 376 739 382 c 1,39,40
 718 409 718 409 710 438 c 1,41,42
 701 477 701 477 715 511 c 0,43,44
 731 549 731 549 767 563 c 0,45,46
 787 571 787 571 806 569 c 1,47,48
 827 568 827 568 844 556 c 0,49,50
 866 540 866 540 880 507 c 1,51,52
 889 489 889 489 894 469 c 1,53,54
 975 480 975 480 1045 442 c 0,55,56
 1085 421 1085 421 1115 386.5 c 128,-1,57
 1145 352 1145 352 1160 310 c 0,58,59
 1186 240 1186 240 1164 179 c 0,60,61
 1152 145 1152 145 1127 122 c 0,62,63
 1120 116 1120 116 1112 111 c 1,64,65
 1123 60 1123 60 1113 8 c 128,-1,66
 1103 -44 1103 -44 1076 -88 c 0,67,68
 1072 -94 1072 -94 1065 -95 c 128,-1,69
 1058 -96 1058 -96 1052.5 -92.5 c 128,-1,70
 1047 -89 1047 -89 1045.5 -82 c 128,-1,71
 1044 -75 1044 -75 1047 -69 c 0,72,73
 1095 6 1095 6 1081 95 c 1,12,13
912 323 m 1,74,75
 960 304 960 304 987 288 c 0,76,77
 1070 238 1070 238 1102 146 c 1,78,79
 1103 147 1103 147 1104 147 c 0,80,81
 1123 165 1123 165 1132 191 c 0,82,83
 1150 240 1150 240 1129 298 c 0,84,85
 1115 334 1115 334 1089 363.5 c 128,-1,86
 1063 393 1063 393 1029 412 c 0,87,88
 970 444 970 444 902 435 c 1,89,90
 905 412 905 412 908 382 c 0,91,92
 908 372 908 372 909.5 351.5 c 128,-1,93
 911 331 911 331 912 323 c 1,74,75
787 382 m 1,94,95
 816 359 816 359 869 338 c 0,96,97
 873 337 873 337 877 336 c 1,98,99
 874 375 874 375 874 380 c 0,100,101
 872 408 872 408 868 428 c 1,102,103
 823 415 823 415 787 382 c 1,94,95
763 407 m 1,104,105
 806 446 806 446 861 461 c 1,106,107
 857 479 857 479 850 494 c 0,108,109
 839 518 839 518 824 528 c 0,110,111
 815 535 815 535 803 535.5 c 128,-1,112
 791 536 791 536 780 532 c 0,113,114
 756 523 756 523 746 498 c 0,115,116
 737 474 737 474 744 447 c 0,117,118
 749 427 749 427 763 407 c 1,104,105
915 285 m 1,119,120
 917 273 917 273 919 263 c 0,121,122
 931 198 931 198 965 161 c 0,123,124
 984 140 984 140 1008 130 c 0,125,126
 1033 120 1033 120 1059 125 c 0,127,128
 1066 126 1066 126 1072 128 c 1,129,130
 1060 169 1060 169 1033 203 c 128,-1,131
 1006 237 1006 237 970 258 c 1,132,133
 948 272 948 272 915 285 c 1,119,120
EndSplineSet
EndChar

StartChar: Y
Encoding: 89 89 60
Width: 549
GlyphClass: 2
Flags: W
LayerCount: 2
Fore
SplineSet
104 629 m 1,0,-1
 273 340 l 1,1,-1
 446 629 l 1,2,-1
 539 629 l 1,3,-1
 313 258 l 1,4,-1
 313 0 l 1,5,-1
 233 0 l 1,6,-1
 233 258 l 1,7,-1
 10 629 l 1,8,-1
 104 629 l 1,0,-1
1081 95 m 1,9,10
 1072 93 1072 93 1065 91 c 0,11,12
 1030 85 1030 85 995 98 c 1,13,14
 964 111 964 111 939 138 c 0,15,16
 899 182 899 182 885 257 c 0,17,18
 882 275 882 275 880 298 c 1,19,20
 866 303 866 303 857 307 c 0,21,22
 796 330 796 330 763 359 c 1,23,24
 759 353 759 353 755 348 c 0,25,26
 709 283 709 283 716 202 c 0,27,28
 717 195 717 195 713 189.5 c 128,-1,29
 709 184 709 184 701.5 183.5 c 128,-1,30
 694 183 694 183 688.5 187.5 c 128,-1,31
 683 192 683 192 683 199 c 0,32,33
 673 291 673 291 727 368 c 0,34,35
 733 376 733 376 739 382 c 1,36,37
 718 409 718 409 710 438 c 1,38,39
 701 477 701 477 715 511 c 0,40,41
 731 549 731 549 767 563 c 0,42,43
 787 571 787 571 806 569 c 1,44,45
 827 568 827 568 844 556 c 0,46,47
 866 540 866 540 880 507 c 1,48,49
 889 489 889 489 894 469 c 1,50,51
 975 480 975 480 1045 442 c 0,52,53
 1085 421 1085 421 1115 386.5 c 128,-1,54
 1145 352 1145 352 1160 310 c 0,55,56
 1186 240 1186 240 1164 179 c 0,57,58
 1152 145 1152 145 1127 122 c 0,59,60
 1120 116 1120 116 1112 111 c 1,61,62
 1123 60 1123 60 1113 8 c 128,-1,63
 1103 -44 1103 -44 1076 -88 c 0,64,65
 1072 -94 1072 -94 1065 -95 c 128,-1,66
 1058 -96 1058 -96 1052.5 -92.5 c 128,-1,67
 1047 -89 1047 -89 1045.5 -82 c 128,-1,68
 1044 -75 1044 -75 1047 -69 c 0,69,70
 1095 6 1095 6 1081 95 c 1,9,10
912 323 m 1,71,72
 960 304 960 304 987 288 c 0,73,74
 1070 238 1070 238 1102 146 c 1,75,76
 1103 147 1103 147 1104 147 c 0,77,78
 1123 165 1123 165 1132 191 c 0,79,80
 1150 240 1150 240 1129 298 c 0,81,82
 1115 334 1115 334 1089 363.5 c 128,-1,83
 1063 393 1063 393 1029 412 c 0,84,85
 970 444 970 444 902 435 c 1,86,87
 905 412 905 412 908 382 c 0,88,89
 908 372 908 372 909.5 351.5 c 128,-1,90
 911 331 911 331 912 323 c 1,71,72
787 382 m 1,91,92
 816 359 816 359 869 338 c 0,93,94
 873 337 873 337 877 336 c 1,95,96
 874 375 874 375 874 380 c 0,97,98
 872 408 872 408 868 428 c 1,99,100
 823 415 823 415 787 382 c 1,91,92
763 407 m 1,101,102
 806 446 806 446 861 461 c 1,103,104
 857 479 857 479 850 494 c 0,105,106
 839 518 839 518 824 528 c 0,107,108
 815 535 815 535 803 535.5 c 128,-1,109
 791 536 791 536 780 532 c 0,110,111
 756 523 756 523 746 498 c 0,112,113
 737 474 737 474 744 447 c 0,114,115
 749 427 749 427 763 407 c 1,101,102
915 285 m 1,116,117
 917 273 917 273 919 263 c 0,118,119
 931 198 931 198 965 161 c 0,120,121
 984 140 984 140 1008 130 c 0,122,123
 1033 120 1033 120 1059 125 c 0,124,125
 1066 126 1066 126 1072 128 c 1,126,127
 1060 169 1060 169 1033 203 c 128,-1,128
 1006 237 1006 237 970 258 c 1,129,130
 948 272 948 272 915 285 c 1,116,117
EndSplineSet
EndChar

StartChar: Z
Encoding: 90 90 61
Width: 592
GlyphClass: 2
Flags: W
LayerCount: 2
Fore
SplineSet
73 71 m 1,0,-1
 436 554 l 1,1,-1
 73 557 l 1,2,-1
 73 629 l 1,3,-1
 535 629 l 1,4,-1
 535 558 l 1,5,-1
 172 75 l 1,6,-1
 535 72 l 1,7,-1
 535 0 l 1,8,-1
 73 0 l 1,9,-1
 73 71 l 1,0,-1
1081 95 m 1,10,11
 1072 93 1072 93 1065 91 c 0,12,13
 1030 85 1030 85 995 98 c 1,14,15
 964 111 964 111 939 138 c 0,16,17
 899 182 899 182 885 257 c 0,18,19
 882 275 882 275 880 298 c 1,20,21
 866 303 866 303 857 307 c 0,22,23
 796 330 796 330 763 359 c 1,24,25
 759 353 759 353 755 348 c 0,26,27
 709 283 709 283 716 202 c 0,28,29
 717 195 717 195 713 189.5 c 128,-1,30
 709 184 709 184 701.5 183.5 c 128,-1,31
 694 183 694 183 688.5 187.5 c 128,-1,32
 683 192 683 192 683 199 c 0,33,34
 673 291 673 291 727 368 c 0,35,36
 733 376 733 376 739 382 c 1,37,38
 718 409 718 409 710 438 c 1,39,40
 701 477 701 477 715 511 c 0,41,42
 731 549 731 549 767 563 c 0,43,44
 787 571 787 571 806 569 c 1,45,46
 827 568 827 568 844 556 c 0,47,48
 866 540 866 540 880 507 c 1,49,50
 889 489 889 489 894 469 c 1,51,52
 975 480 975 480 1045 442 c 0,53,54
 1085 421 1085 421 1115 386.5 c 128,-1,55
 1145 352 1145 352 1160 310 c 0,56,57
 1186 240 1186 240 1164 179 c 0,58,59
 1152 145 1152 145 1127 122 c 0,60,61
 1120 116 1120 116 1112 111 c 1,62,63
 1123 60 1123 60 1113 8 c 128,-1,64
 1103 -44 1103 -44 1076 -88 c 0,65,66
 1072 -94 1072 -94 1065 -95 c 128,-1,67
 1058 -96 1058 -96 1052.5 -92.5 c 128,-1,68
 1047 -89 1047 -89 1045.5 -82 c 128,-1,69
 1044 -75 1044 -75 1047 -69 c 0,70,71
 1095 6 1095 6 1081 95 c 1,10,11
912 323 m 1,72,73
 960 304 960 304 987 288 c 0,74,75
 1070 238 1070 238 1102 146 c 1,76,77
 1103 147 1103 147 1104 147 c 0,78,79
 1123 165 1123 165 1132 191 c 0,80,81
 1150 240 1150 240 1129 298 c 0,82,83
 1115 334 1115 334 1089 363.5 c 128,-1,84
 1063 393 1063 393 1029 412 c 0,85,86
 970 444 970 444 902 435 c 1,87,88
 905 412 905 412 908 382 c 0,89,90
 908 372 908 372 909.5 351.5 c 128,-1,91
 911 331 911 331 912 323 c 1,72,73
787 382 m 1,92,93
 816 359 816 359 869 338 c 0,94,95
 873 337 873 337 877 336 c 1,96,97
 874 375 874 375 874 380 c 0,98,99
 872 408 872 408 868 428 c 1,100,101
 823 415 823 415 787 382 c 1,92,93
763 407 m 1,102,103
 806 446 806 446 861 461 c 1,104,105
 857 479 857 479 850 494 c 0,106,107
 839 518 839 518 824 528 c 0,108,109
 815 535 815 535 803 535.5 c 128,-1,110
 791 536 791 536 780 532 c 0,111,112
 756 523 756 523 746 498 c 0,113,114
 737 474 737 474 744 447 c 0,115,116
 749 427 749 427 763 407 c 1,102,103
915 285 m 1,117,118
 917 273 917 273 919 263 c 0,119,120
 931 198 931 198 965 161 c 0,121,122
 984 140 984 140 1008 130 c 0,123,124
 1033 120 1033 120 1059 125 c 0,125,126
 1066 126 1066 126 1072 128 c 1,127,128
 1060 169 1060 169 1033 203 c 128,-1,129
 1006 237 1006 237 970 258 c 1,130,131
 948 272 948 272 915 285 c 1,117,118
EndSplineSet
EndChar

StartChar: bracketleft
Encoding: 91 91 62
Width: 317
GlyphClass: 2
Flags: W
LayerCount: 2
Fore
SplineSet
101 731 m 1,0,-1
 299 731 l 1,1,-1
 299 661 l 1,2,-1
 180 661 l 1,3,-1
 180 -32 l 1,4,-1
 299 -32 l 1,5,-1
 299 -102 l 1,6,-1
 101 -102 l 1,7,-1
 101 731 l 1,0,-1
EndSplineSet
EndChar

StartChar: backslash
Encoding: 92 92 63
Width: 432
GlyphClass: 2
Flags: W
LayerCount: 2
Fore
SplineSet
45 731 m 1,0,-1
 124 731 l 1,1,-1
 376 -73 l 1,2,-1
 296 -73 l 1,3,-1
 45 731 l 1,0,-1
1081 95 m 1,4,5
 1072 93 1072 93 1065 91 c 0,6,7
 1030 85 1030 85 995 98 c 1,8,9
 964 111 964 111 939 138 c 0,10,11
 899 182 899 182 885 257 c 0,12,13
 882 275 882 275 880 298 c 1,14,15
 866 303 866 303 857 307 c 0,16,17
 796 330 796 330 763 359 c 1,18,19
 759 353 759 353 755 348 c 0,20,21
 709 283 709 283 716 202 c 0,22,23
 717 195 717 195 713 189.5 c 128,-1,24
 709 184 709 184 701.5 183.5 c 128,-1,25
 694 183 694 183 688.5 187.5 c 128,-1,26
 683 192 683 192 683 199 c 0,27,28
 673 291 673 291 727 368 c 0,29,30
 733 376 733 376 739 382 c 1,31,32
 718 409 718 409 710 438 c 1,33,34
 701 477 701 477 715 511 c 0,35,36
 731 549 731 549 767 563 c 0,37,38
 787 571 787 571 806 569 c 1,39,40
 827 568 827 568 844 556 c 0,41,42
 866 540 866 540 880 507 c 1,43,44
 889 489 889 489 894 469 c 1,45,46
 975 480 975 480 1045 442 c 0,47,48
 1085 421 1085 421 1115 386.5 c 128,-1,49
 1145 352 1145 352 1160 310 c 0,50,51
 1186 240 1186 240 1164 179 c 0,52,53
 1152 145 1152 145 1127 122 c 0,54,55
 1120 116 1120 116 1112 111 c 1,56,57
 1123 60 1123 60 1113 8 c 128,-1,58
 1103 -44 1103 -44 1076 -88 c 0,59,60
 1072 -94 1072 -94 1065 -95 c 128,-1,61
 1058 -96 1058 -96 1052.5 -92.5 c 128,-1,62
 1047 -89 1047 -89 1045.5 -82 c 128,-1,63
 1044 -75 1044 -75 1047 -69 c 0,64,65
 1095 6 1095 6 1081 95 c 1,4,5
912 323 m 1,66,67
 960 304 960 304 987 288 c 0,68,69
 1070 238 1070 238 1102 146 c 1,70,71
 1103 147 1103 147 1104 147 c 0,72,73
 1123 165 1123 165 1132 191 c 0,74,75
 1150 240 1150 240 1129 298 c 0,76,77
 1115 334 1115 334 1089 363.5 c 128,-1,78
 1063 393 1063 393 1029 412 c 0,79,80
 970 444 970 444 902 435 c 1,81,82
 905 412 905 412 908 382 c 0,83,84
 908 372 908 372 909.5 351.5 c 128,-1,85
 911 331 911 331 912 323 c 1,66,67
787 382 m 1,86,87
 816 359 816 359 869 338 c 0,88,89
 873 337 873 337 877 336 c 1,90,91
 874 375 874 375 874 380 c 0,92,93
 872 408 872 408 868 428 c 1,94,95
 823 415 823 415 787 382 c 1,86,87
763 407 m 1,96,97
 806 446 806 446 861 461 c 1,98,99
 857 479 857 479 850 494 c 0,100,101
 839 518 839 518 824 528 c 0,102,103
 815 535 815 535 803 535.5 c 128,-1,104
 791 536 791 536 780 532 c 0,105,106
 756 523 756 523 746 498 c 0,107,108
 737 474 737 474 744 447 c 0,109,110
 749 427 749 427 763 407 c 1,96,97
915 285 m 1,111,112
 917 273 917 273 919 263 c 0,113,114
 931 198 931 198 965 161 c 0,115,116
 984 140 984 140 1008 130 c 0,117,118
 1033 120 1033 120 1059 125 c 0,119,120
 1066 126 1066 126 1072 128 c 1,121,122
 1060 169 1060 169 1033 203 c 128,-1,123
 1006 237 1006 237 970 258 c 1,124,125
 948 272 948 272 915 285 c 1,111,112
EndSplineSet
EndChar

StartChar: bracketright
Encoding: 93 93 64
Width: 285
GlyphClass: 2
Flags: W
LayerCount: 2
Fore
SplineSet
184 -102 m 1,0,-1
 -14 -102 l 1,1,-1
 -14 -32 l 1,2,-1
 105 -32 l 1,3,-1
 105 661 l 1,4,-1
 -14 661 l 1,5,-1
 -14 731 l 1,6,-1
 184 731 l 1,7,-1
 184 -102 l 1,0,-1
EndSplineSet
EndChar

StartChar: asciicircum
Encoding: 94 94 65
Width: 448
GlyphClass: 2
Flags: W
LayerCount: 2
Fore
SplineSet
21 245 m 1,0,-1
 197 586 l 1,1,-1
 258 586 l 1,2,-1
 434 245 l 1,3,-1
 346 245 l 1,4,-1
 227 491 l 1,5,-1
 110 245 l 1,6,-1
 21 245 l 1,0,-1
1081 95 m 1,7,8
 1072 93 1072 93 1065 91 c 0,9,10
 1030 85 1030 85 995 98 c 1,11,12
 964 111 964 111 939 138 c 0,13,14
 899 182 899 182 885 257 c 0,15,16
 882 275 882 275 880 298 c 1,17,18
 866 303 866 303 857 307 c 0,19,20
 796 330 796 330 763 359 c 1,21,22
 759 353 759 353 755 348 c 0,23,24
 709 283 709 283 716 202 c 0,25,26
 717 195 717 195 713 189.5 c 128,-1,27
 709 184 709 184 701.5 183.5 c 128,-1,28
 694 183 694 183 688.5 187.5 c 128,-1,29
 683 192 683 192 683 199 c 0,30,31
 673 291 673 291 727 368 c 0,32,33
 733 376 733 376 739 382 c 1,34,35
 718 409 718 409 710 438 c 1,36,37
 701 477 701 477 715 511 c 0,38,39
 731 549 731 549 767 563 c 0,40,41
 787 571 787 571 806 569 c 1,42,43
 827 568 827 568 844 556 c 0,44,45
 866 540 866 540 880 507 c 1,46,47
 889 489 889 489 894 469 c 1,48,49
 975 480 975 480 1045 442 c 0,50,51
 1085 421 1085 421 1115 386.5 c 128,-1,52
 1145 352 1145 352 1160 310 c 0,53,54
 1186 240 1186 240 1164 179 c 0,55,56
 1152 145 1152 145 1127 122 c 0,57,58
 1120 116 1120 116 1112 111 c 1,59,60
 1123 60 1123 60 1113 8 c 128,-1,61
 1103 -44 1103 -44 1076 -88 c 0,62,63
 1072 -94 1072 -94 1065 -95 c 128,-1,64
 1058 -96 1058 -96 1052.5 -92.5 c 128,-1,65
 1047 -89 1047 -89 1045.5 -82 c 128,-1,66
 1044 -75 1044 -75 1047 -69 c 0,67,68
 1095 6 1095 6 1081 95 c 1,7,8
912 323 m 1,69,70
 960 304 960 304 987 288 c 0,71,72
 1070 238 1070 238 1102 146 c 1,73,74
 1103 147 1103 147 1104 147 c 0,75,76
 1123 165 1123 165 1132 191 c 0,77,78
 1150 240 1150 240 1129 298 c 0,79,80
 1115 334 1115 334 1089 363.5 c 128,-1,81
 1063 393 1063 393 1029 412 c 0,82,83
 970 444 970 444 902 435 c 1,84,85
 905 412 905 412 908 382 c 0,86,87
 908 372 908 372 909.5 351.5 c 128,-1,88
 911 331 911 331 912 323 c 1,69,70
787 382 m 1,89,90
 816 359 816 359 869 338 c 0,91,92
 873 337 873 337 877 336 c 1,93,94
 874 375 874 375 874 380 c 0,95,96
 872 408 872 408 868 428 c 1,97,98
 823 415 823 415 787 382 c 1,89,90
763 407 m 1,99,100
 806 446 806 446 861 461 c 1,101,102
 857 479 857 479 850 494 c 0,103,104
 839 518 839 518 824 528 c 0,105,106
 815 535 815 535 803 535.5 c 128,-1,107
 791 536 791 536 780 532 c 0,108,109
 756 523 756 523 746 498 c 0,110,111
 737 474 737 474 744 447 c 0,112,113
 749 427 749 427 763 407 c 1,99,100
915 285 m 1,114,115
 917 273 917 273 919 263 c 0,116,117
 931 198 931 198 965 161 c 0,118,119
 984 140 984 140 1008 130 c 0,120,121
 1033 120 1033 120 1059 125 c 0,122,123
 1066 126 1066 126 1072 128 c 1,124,125
 1060 169 1060 169 1033 203 c 128,-1,126
 1006 237 1006 237 970 258 c 1,127,128
 948 272 948 272 915 285 c 1,114,115
EndSplineSet
EndChar

StartChar: underscore
Encoding: 95 95 66
Width: 726
GlyphClass: 2
Flags: W
LayerCount: 2
Fore
SplineSet
55 -56 m 1,0,-1
 671 -56 l 1,1,-1
 671 -124 l 1,2,-1
 55 -124 l 1,3,-1
 55 -56 l 1,0,-1
941 418 m 1,4,5
 906 426 906 426 873 445 c 0,6,7
 828 472 828 472 766 535 c 0,8,9
 716 587 716 587 698 602 c 1,10,11
 683 584 683 584 671 565 c 0,12,13
 648 525 648 525 648 482 c 0,14,15
 647 437 647 437 670.5 398.5 c 128,-1,16
 694 360 694 360 735 340.5 c 128,-1,17
 776 321 776 321 820.5 326.5 c 128,-1,18
 865 332 865 332 900 361 c 1,19,20
 926 384 926 384 941 418 c 1,4,5
951 451 m 1,21,22
 953 463 953 463 954 476 c 1,23,24
 954 508 954 508 939.5 539 c 128,-1,25
 925 570 925 570 902 591 c 0,26,27
 897 595 897 595 896 602.5 c 128,-1,28
 895 610 895 610 899.5 615 c 128,-1,29
 904 620 904 620 911.5 620.5 c 128,-1,30
 919 621 919 621 924 616 c 0,31,32
 954 590 954 590 971 552.5 c 128,-1,33
 988 515 988 515 988 475 c 1,34,35
 987 462 987 462 984 446 c 1,36,37
 997 446 997 446 1008 448 c 0,38,39
 1040 453 1040 453 1066 472 c 256,40,41
 1092 491 1092 491 1106 519 c 1,42,43
 1119 549 1119 549 1116 581 c 0,44,45
 1113 612 1113 612 1095 638 c 0,46,47
 1066 678 1066 678 1009 690 c 0,48,49
 965 700 965 700 902 692 c 0,50,51
 796 678 796 678 731 631 c 0,52,53
 727 628 727 628 724 625 c 1,54,55
 740 610 740 610 790 559 c 0,56,57
 849 499 849 499 891 475 c 1,58,59
 920 457 920 457 951 451 c 1,21,22
698 647 m 1,60,61
 704 653 704 653 711 658 c 0,62,63
 783 711 783 711 897 726 c 0,64,65
 966 735 966 735 1017 723 c 0,66,67
 1086 707 1086 707 1122 658 c 0,68,69
 1146 625 1146 625 1150 583 c 0,70,71
 1153 543 1153 543 1136 506 c 0,72,73
 1119 468 1119 468 1086 445 c 1,74,75
 1054 421 1054 421 1013 414 c 0,76,77
 995 411 995 411 976 412 c 1,78,79
 958 366 958 366 922 336 c 1,80,81
 880 299 880 299 825 292.5 c 128,-1,82
 770 286 770 286 720 309.5 c 128,-1,83
 670 333 670 333 641.5 380.5 c 128,-1,84
 613 428 613 428 614 483 c 0,85,86
 614 535 614 535 642 582 c 0,87,88
 655 604 655 604 672 623 c 1,89,90
 671 624 671 624 670 625 c 0,91,92
 612 669 612 669 557 672 c 1,93,94
 492 678 492 678 442.5 635.5 c 128,-1,95
 393 593 393 593 388 529 c 0,96,97
 388 522 388 522 382.5 517.5 c 128,-1,98
 377 513 377 513 370 513.5 c 128,-1,99
 363 514 363 514 358.5 519.5 c 128,-1,100
 354 525 354 525 354 531 c 0,101,102
 361 610 361 610 420.5 661 c 128,-1,103
 480 712 480 712 559 706 c 1,104,105
 625 702 625 702 691 652 c 0,106,107
 693 650 693 650 698 647 c 1,60,61
EndSplineSet
EndChar

StartChar: grave
Encoding: 96 96 67
Width: 315
GlyphClass: 2
Flags: W
LayerCount: 2
Fore
SplineSet
57 860 m 1,0,-1
 292 727 l 1,1,-1
 269 677 l 1,2,-1
 24 790 l 1,3,-1
 57 860 l 1,0,-1
1081 95 m 1,4,5
 1072 93 1072 93 1065 91 c 0,6,7
 1030 85 1030 85 995 98 c 1,8,9
 964 111 964 111 939 138 c 0,10,11
 899 182 899 182 885 257 c 0,12,13
 882 275 882 275 880 298 c 1,14,15
 866 303 866 303 857 307 c 0,16,17
 796 330 796 330 763 359 c 1,18,19
 759 353 759 353 755 348 c 0,20,21
 709 283 709 283 716 202 c 0,22,23
 717 195 717 195 713 189.5 c 128,-1,24
 709 184 709 184 701.5 183.5 c 128,-1,25
 694 183 694 183 688.5 187.5 c 128,-1,26
 683 192 683 192 683 199 c 0,27,28
 673 291 673 291 727 368 c 0,29,30
 733 376 733 376 739 382 c 1,31,32
 718 409 718 409 710 438 c 1,33,34
 701 477 701 477 715 511 c 0,35,36
 731 549 731 549 767 563 c 0,37,38
 787 571 787 571 806 569 c 1,39,40
 827 568 827 568 844 556 c 0,41,42
 866 540 866 540 880 507 c 1,43,44
 889 489 889 489 894 469 c 1,45,46
 975 480 975 480 1045 442 c 0,47,48
 1085 421 1085 421 1115 386.5 c 128,-1,49
 1145 352 1145 352 1160 310 c 0,50,51
 1186 240 1186 240 1164 179 c 0,52,53
 1152 145 1152 145 1127 122 c 0,54,55
 1120 116 1120 116 1112 111 c 1,56,57
 1123 60 1123 60 1113 8 c 128,-1,58
 1103 -44 1103 -44 1076 -88 c 0,59,60
 1072 -94 1072 -94 1065 -95 c 128,-1,61
 1058 -96 1058 -96 1052.5 -92.5 c 128,-1,62
 1047 -89 1047 -89 1045.5 -82 c 128,-1,63
 1044 -75 1044 -75 1047 -69 c 0,64,65
 1095 6 1095 6 1081 95 c 1,4,5
912 323 m 1,66,67
 960 304 960 304 987 288 c 0,68,69
 1070 238 1070 238 1102 146 c 1,70,71
 1103 147 1103 147 1104 147 c 0,72,73
 1123 165 1123 165 1132 191 c 0,74,75
 1150 240 1150 240 1129 298 c 0,76,77
 1115 334 1115 334 1089 363.5 c 128,-1,78
 1063 393 1063 393 1029 412 c 0,79,80
 970 444 970 444 902 435 c 1,81,82
 905 412 905 412 908 382 c 0,83,84
 908 372 908 372 909.5 351.5 c 128,-1,85
 911 331 911 331 912 323 c 1,66,67
787 382 m 1,86,87
 816 359 816 359 869 338 c 0,88,89
 873 337 873 337 877 336 c 1,90,91
 874 375 874 375 874 380 c 0,92,93
 872 408 872 408 868 428 c 1,94,95
 823 415 823 415 787 382 c 1,86,87
763 407 m 1,96,97
 806 446 806 446 861 461 c 1,98,99
 857 479 857 479 850 494 c 0,100,101
 839 518 839 518 824 528 c 0,102,103
 815 535 815 535 803 535.5 c 128,-1,104
 791 536 791 536 780 532 c 0,105,106
 756 523 756 523 746 498 c 0,107,108
 737 474 737 474 744 447 c 0,109,110
 749 427 749 427 763 407 c 1,96,97
915 285 m 1,111,112
 917 273 917 273 919 263 c 0,113,114
 931 198 931 198 965 161 c 0,115,116
 984 140 984 140 1008 130 c 0,117,118
 1033 120 1033 120 1059 125 c 0,119,120
 1066 126 1066 126 1072 128 c 1,121,122
 1060 169 1060 169 1033 203 c 128,-1,123
 1006 237 1006 237 970 258 c 1,124,125
 948 272 948 272 915 285 c 1,111,112
EndSplineSet
EndChar

StartChar: a
Encoding: 97 97 68
Width: 560
GlyphClass: 2
Flags: W
LayerCount: 2
Fore
SplineSet
397 310 m 2,0,1
 397 375 397 375 370 403 c 128,-1,2
 343 431 343 431 291.5 431 c 128,-1,3
 240 431 240 431 208.5 410.5 c 128,-1,4
 177 390 177 390 177 346 c 1,5,-1
 90 346 l 1,6,7
 90 456 90 456 208 482 c 0,8,9
 244 490 244 490 286 490 c 0,10,11
 375 490 375 490 425 445 c 128,-1,12
 475 400 475 400 475 308 c 2,13,-1
 475 0 l 1,14,-1
 407 0 l 1,15,-1
 399 80 l 1,16,17
 355 -11 355 -11 240 -11 c 0,18,19
 163 -11 163 -11 116.5 32 c 128,-1,20
 70 75 70 75 70 139 c 128,-1,21
 70 203 70 203 121.5 239 c 128,-1,22
 173 275 173 275 250 275 c 128,-1,23
 327 275 327 275 397 249 c 1,24,-1
 397 310 l 2,0,1
397 199 m 1,25,26
 326 219 326 219 273 219 c 128,-1,27
 220 219 220 219 187 200 c 128,-1,28
 154 181 154 181 154 140 c 0,29,30
 154 50 154 50 256 50 c 0,31,32
 314 50 314 50 355.5 91.5 c 128,-1,33
 397 133 397 133 397 199 c 1,25,26
187 225 m 1,34,35
 179 280 179 280 191 333 c 0,36,37
 193 346 193 346 197 358 c 1,38,39
 195 371 195 371 194 385 c 0,40,41
 192 420 192 420 198 455 c 1,42,43
 213 526 213 526 260 581 c 1,44,45
 307 634 307 634 375 661 c 0,46,47
 422 679 422 679 473 681 c 1,48,49
 406 703 406 703 339 691 c 0,50,51
 272 680 272 680 216 637 c 128,-1,52
 160 594 160 594 132.5 532 c 128,-1,53
 105 470 105 470 109.5 399.5 c 128,-1,54
 114 329 114 329 150 272 c 0,55,56
 166 246 166 246 187 225 c 1,34,35
638 602 m 1,57,58
 685 537 685 537 694 459 c 0,59,60
 695 446 695 446 695 433 c 1,61,62
 696 426 696 426 695 418 c 1,63,64
 699 412 699 412 703 406 c 1,65,66
 707 402 707 402 709 396 c 1,67,68
 756 323 756 323 762 234 c 1,69,70
 766 248 766 248 769 260 c 0,71,72
 789 343 789 343 768 423 c 0,73,74
 746 504 746 504 687 562 c 0,75,76
 665 585 665 585 638 602 c 1,57,58
688 366 m 1,77,78
 676 313 676 313 646 271 c 1,79,80
 618 230 618 230 575.5 201.5 c 128,-1,81
 533 173 533 173 485 164 c 1,82,83
 435 153 435 153 385 164 c 128,-1,84
 335 175 335 175 295 204 c 1,85,86
 246 238 246 238 219 294 c 1,87,88
 214 248 214 248 226 204 c 0,89,90
 229 196 229 196 231 188 c 1,91,92
 239 183 239 183 248 178 c 0,93,94
 308 143 308 143 376 141 c 0,95,96
 383 141 383 141 387.5 135.5 c 128,-1,97
 392 130 392 130 392 123 c 128,-1,98
 392 116 392 116 386.5 111.5 c 128,-1,99
 381 107 381 107 374 107 c 0,100,101
 315 109 315 109 258 135 c 1,102,103
 260 130 260 130 264 125 c 0,104,105
 312 58 312 58 394 32 c 0,106,107
 473 6 473 6 555 30 c 0,108,109
 635 53 635 53 693 116 c 0,110,111
 708 133 708 133 722 153 c 1,112,113
 723 157 723 157 724 160 c 0,114,115
 726 175 726 175 727 190 c 0,116,117
 735 284 735 284 688 366 c 1,77,78
689 65 m 1,118,119
 633 17 633 17 565 -3 c 0,120,121
 473 -29 473 -29 384 0 c 0,122,123
 292 29 292 29 237 106 c 0,124,125
 223 124 223 124 213 146 c 0,126,127
 208 156 208 156 203 166 c 1,128,129
 195 172 195 172 187 179 c 0,130,131
 147 211 147 211 121 254 c 0,132,133
 81 318 81 318 76 397 c 128,-1,134
 71 476 71 476 102 546 c 128,-1,135
 133 616 133 616 195.5 664 c 128,-1,136
 258 712 258 712 333 725 c 0,137,138
 436 743 436 743 532 693 c 0,139,140
 551 683 551 683 570 669 c 1,141,142
 591 663 591 663 611 655 c 0,143,144
 668 630 668 630 711 587 c 0,145,146
 776 521 776 521 800 431 c 0,147,148
 824 343 824 343 802 253 c 0,149,150
 792 214 792 214 775 178 c 0,151,152
 766 158 766 158 754 140 c 1,153,154
 749 118 749 118 741 96 c 0,155,156
 706 3 706 3 628 -56 c 0,157,158
 577 -94 577 -94 514.5 -111.5 c 128,-1,159
 452 -129 452 -129 389.5 -122.5 c 128,-1,160
 327 -116 327 -116 269.5 -86.5 c 128,-1,161
 212 -57 212 -57 169 -10 c 0,162,163
 165 -5 165 -5 165.5 2.5 c 128,-1,164
 166 10 166 10 171 14.5 c 128,-1,165
 176 19 176 19 183.5 18.5 c 128,-1,166
 191 18 191 18 195 12 c 1,167,168
 233 -30 233 -30 285 -56.5 c 128,-1,169
 337 -83 337 -83 393 -88.5 c 128,-1,170
 449 -94 449 -94 505 -78 c 128,-1,171
 561 -62 561 -62 607 -28 c 0,172,173
 657 9 657 9 689 65 c 1,118,119
228 419 m 1,174,175
 248 449 248 449 272 472 c 0,176,177
 323 519 323 519 390 535 c 0,178,179
 482 557 482 557 572 517 c 0,180,181
 620 495 620 495 660 458 c 1,182,183
 649 545 649 545 587 610 c 0,184,185
 572 625 572 625 554 639 c 1,186,187
 551 640 551 640 547 640 c 1,188,189
 532 644 532 644 518 646 c 0,190,191
 450 653 450 653 388 629 c 0,192,193
 328 606 328 606 286 559 c 1,194,195
 244 510 244 510 231 449 c 0,196,197
 229 435 229 435 228 419 c 1,174,175
233 356 m 1,198,199
 237 340 237 340 242 328 c 0,200,201
 264 267 264 267 315 231 c 0,202,203
 350 206 350 206 393 197 c 128,-1,204
 436 188 436 188 478 197 c 0,205,206
 520 205 520 205 557 230 c 128,-1,207
 594 255 594 255 618 290 c 0,208,209
 651 337 651 337 659 396 c 0,210,211
 660 402 660 402 660 407 c 1,212,213
 656 412 656 412 653 415 c 0,214,215
 612 462 612 462 558 486 c 0,216,217
 479 521 479 521 398 502 c 1,218,219
 340 487 340 487 295 447 c 0,220,221
 261 416 261 416 242 374 c 0,222,223
 237 365 237 365 233 356 c 1,198,199
EndSplineSet
EndChar

StartChar: b
Encoding: 98 98 69
Width: 584
GlyphClass: 2
Flags: W
LayerCount: 2
Fore
SplineSet
180 407 m 1,0,1
 228 490 228 490 320 490 c 128,-1,2
 412 490 412 490 473 421.5 c 128,-1,3
 534 353 534 353 534 240.5 c 128,-1,4
 534 128 534 128 472 58.5 c 128,-1,5
 410 -11 410 -11 321 -11 c 0,6,7
 273 -11 273 -11 234.5 13 c 128,-1,8
 196 37 196 37 174 84 c 1,9,-1
 156 0 l 1,10,-1
 101 0 l 1,11,-1
 101 681 l 1,12,-1
 180 681 l 1,13,-1
 180 407 l 1,0,1
220 383.5 m 128,-1,15
 182 347 182 347 180 282 c 1,16,-1
 180 204 l 2,17,18
 180 138 180 138 219.5 98.5 c 128,-1,19
 259 59 259 59 315 59 c 128,-1,20
 371 59 371 59 412 108.5 c 128,-1,21
 453 158 453 158 453 240 c 128,-1,22
 453 322 453 322 412.5 371 c 128,-1,23
 372 420 372 420 315 420 c 128,-1,14
 258 420 258 420 220 383.5 c 128,-1,15
EndSplineSet
EndChar

StartChar: c
Encoding: 99 99 70
Width: 515
GlyphClass: 2
Flags: W
LayerCount: 2
Fore
SplineSet
395 446.5 m 128,-1,1
 445 403 445 403 460 338 c 1,2,-1
 380 331 l 1,3,4
 367 373 367 373 338 396.5 c 128,-1,5
 309 420 309 420 274 420 c 0,6,7
 210 420 210 420 170.5 372 c 128,-1,8
 131 324 131 324 131 241.5 c 128,-1,9
 131 159 131 159 169.5 109 c 128,-1,10
 208 59 208 59 265.5 59 c 128,-1,11
 323 59 323 59 351.5 85.5 c 128,-1,12
 380 112 380 112 380 161 c 1,13,-1
 461 161 l 1,14,15
 461 84 461 84 407.5 36.5 c 128,-1,16
 354 -11 354 -11 268 -11 c 0,17,18
 177 -11 177 -11 113.5 58 c 128,-1,19
 50 127 50 127 50 241.5 c 128,-1,20
 50 356 50 356 113 423 c 128,-1,21
 176 490 176 490 260.5 490 c 128,-1,0
 345 490 345 490 395 446.5 c 128,-1,1
1081 95 m 1,22,23
 1072 93 1072 93 1065 91 c 0,24,25
 1030 85 1030 85 995 98 c 1,26,27
 964 111 964 111 939 138 c 0,28,29
 899 182 899 182 885 257 c 0,30,31
 882 275 882 275 880 298 c 1,32,33
 866 303 866 303 857 307 c 0,34,35
 796 330 796 330 763 359 c 1,36,37
 759 353 759 353 755 348 c 0,38,39
 709 283 709 283 716 202 c 0,40,41
 717 195 717 195 713 189.5 c 128,-1,42
 709 184 709 184 701.5 183.5 c 128,-1,43
 694 183 694 183 688.5 187.5 c 128,-1,44
 683 192 683 192 683 199 c 0,45,46
 673 291 673 291 727 368 c 0,47,48
 733 376 733 376 739 382 c 1,49,50
 718 409 718 409 710 438 c 1,51,52
 701 477 701 477 715 511 c 0,53,54
 731 549 731 549 767 563 c 0,55,56
 787 571 787 571 806 569 c 1,57,58
 827 568 827 568 844 556 c 0,59,60
 866 540 866 540 880 507 c 1,61,62
 889 489 889 489 894 469 c 1,63,64
 975 480 975 480 1045 442 c 0,65,66
 1085 421 1085 421 1115 386.5 c 128,-1,67
 1145 352 1145 352 1160 310 c 0,68,69
 1186 240 1186 240 1164 179 c 0,70,71
 1152 145 1152 145 1127 122 c 0,72,73
 1120 116 1120 116 1112 111 c 1,74,75
 1123 60 1123 60 1113 8 c 128,-1,76
 1103 -44 1103 -44 1076 -88 c 0,77,78
 1072 -94 1072 -94 1065 -95 c 128,-1,79
 1058 -96 1058 -96 1052.5 -92.5 c 128,-1,80
 1047 -89 1047 -89 1045.5 -82 c 128,-1,81
 1044 -75 1044 -75 1047 -69 c 0,82,83
 1095 6 1095 6 1081 95 c 1,22,23
912 323 m 1,84,85
 960 304 960 304 987 288 c 0,86,87
 1070 238 1070 238 1102 146 c 1,88,89
 1103 147 1103 147 1104 147 c 0,90,91
 1123 165 1123 165 1132 191 c 0,92,93
 1150 240 1150 240 1129 298 c 0,94,95
 1115 334 1115 334 1089 363.5 c 128,-1,96
 1063 393 1063 393 1029 412 c 0,97,98
 970 444 970 444 902 435 c 1,99,100
 905 412 905 412 908 382 c 0,101,102
 908 372 908 372 909.5 351.5 c 128,-1,103
 911 331 911 331 912 323 c 1,84,85
787 382 m 1,104,105
 816 359 816 359 869 338 c 0,106,107
 873 337 873 337 877 336 c 1,108,109
 874 375 874 375 874 380 c 0,110,111
 872 408 872 408 868 428 c 1,112,113
 823 415 823 415 787 382 c 1,104,105
763 407 m 1,114,115
 806 446 806 446 861 461 c 1,116,117
 857 479 857 479 850 494 c 0,118,119
 839 518 839 518 824 528 c 0,120,121
 815 535 815 535 803 535.5 c 128,-1,122
 791 536 791 536 780 532 c 0,123,124
 756 523 756 523 746 498 c 0,125,126
 737 474 737 474 744 447 c 0,127,128
 749 427 749 427 763 407 c 1,114,115
915 285 m 1,129,130
 917 273 917 273 919 263 c 0,131,132
 931 198 931 198 965 161 c 0,133,134
 984 140 984 140 1008 130 c 0,135,136
 1033 120 1033 120 1059 125 c 0,137,138
 1066 126 1066 126 1072 128 c 1,139,140
 1060 169 1060 169 1033 203 c 128,-1,141
 1006 237 1006 237 970 258 c 1,142,143
 948 272 948 272 915 285 c 1,129,130
EndSplineSet
EndChar

StartChar: d
Encoding: 100 100 71
Width: 594
GlyphClass: 2
Flags: W
LayerCount: 2
Fore
SplineSet
414 407 m 1,0,-1
 414 681 l 1,1,-1
 492 681 l 1,2,-1
 492 0 l 1,3,-1
 428 0 l 1,4,-1
 418 80 l 1,5,6
 395 35 395 35 357 12 c 128,-1,7
 319 -11 319 -11 274 -11 c 0,8,9
 183 -11 183 -11 121.5 59 c 128,-1,10
 60 129 60 129 60 241.5 c 128,-1,11
 60 354 60 354 120.5 422 c 128,-1,12
 181 490 181 490 273.5 490 c 128,-1,13
 366 490 366 490 414 407 c 1,0,-1
180.5 371 m 128,-1,15
 141 322 141 322 141 240 c 128,-1,16
 141 158 141 158 181 108.5 c 128,-1,17
 221 59 221 59 277 59 c 128,-1,18
 333 59 333 59 372.5 96.5 c 128,-1,19
 412 134 412 134 414 197 c 1,20,-1
 414 275 l 2,21,22
 414 342 414 342 375 381 c 128,-1,23
 336 420 336 420 278 420 c 128,-1,14
 220 420 220 420 180.5 371 c 128,-1,15
EndSplineSet
EndChar

StartChar: e
Encoding: 101 101 72
Width: 515
GlyphClass: 2
Flags: W
LayerCount: 2
Fore
SplineSet
266 53 m 0,0,1
 365 53 365 53 379 140 c 1,2,-1
 460 140 l 1,3,4
 449 68 449 68 396.5 28.5 c 128,-1,5
 344 -11 344 -11 266 -11 c 0,6,7
 170 -11 170 -11 110 57.5 c 128,-1,8
 50 126 50 126 50 240 c 128,-1,9
 50 354 50 354 110.5 422 c 128,-1,10
 171 490 171 490 271.5 490 c 128,-1,11
 372 490 372 490 421.5 412 c 128,-1,12
 471 334 471 334 456 222 c 1,13,-1
 129 222 l 1,14,15
 129 148 129 148 165 100.5 c 128,-1,16
 201 53 201 53 266 53 c 0,0,1
324 415 m 0,17,18
 301 427 301 427 268 427 c 0,19,20
 207 427 207 427 171.5 385.5 c 128,-1,21
 136 344 136 344 130 282 c 1,22,-1
 385 282 l 1,23,24
 385 382 385 382 324 415 c 0,17,18
941 418 m 1,25,26
 906 426 906 426 873 445 c 0,27,28
 828 472 828 472 766 535 c 0,29,30
 716 587 716 587 698 602 c 1,31,32
 683 584 683 584 671 565 c 0,33,34
 648 525 648 525 648 482 c 0,35,36
 647 437 647 437 670.5 398.5 c 128,-1,37
 694 360 694 360 735 340.5 c 128,-1,38
 776 321 776 321 820.5 326.5 c 128,-1,39
 865 332 865 332 900 361 c 1,40,41
 926 384 926 384 941 418 c 1,25,26
951 451 m 1,42,43
 953 463 953 463 954 476 c 1,44,45
 954 508 954 508 939.5 539 c 128,-1,46
 925 570 925 570 902 591 c 0,47,48
 897 595 897 595 896 602.5 c 128,-1,49
 895 610 895 610 899.5 615 c 128,-1,50
 904 620 904 620 911.5 620.5 c 128,-1,51
 919 621 919 621 924 616 c 0,52,53
 954 590 954 590 971 552.5 c 128,-1,54
 988 515 988 515 988 475 c 1,55,56
 987 462 987 462 984 446 c 1,57,58
 997 446 997 446 1008 448 c 0,59,60
 1040 453 1040 453 1066 472 c 256,61,62
 1092 491 1092 491 1106 519 c 1,63,64
 1119 549 1119 549 1116 581 c 0,65,66
 1113 612 1113 612 1095 638 c 0,67,68
 1066 678 1066 678 1009 690 c 0,69,70
 965 700 965 700 902 692 c 0,71,72
 796 678 796 678 731 631 c 0,73,74
 727 628 727 628 724 625 c 1,75,76
 740 610 740 610 790 559 c 0,77,78
 849 499 849 499 891 475 c 1,79,80
 920 457 920 457 951 451 c 1,42,43
698 647 m 1,81,82
 704 653 704 653 711 658 c 0,83,84
 783 711 783 711 897 726 c 0,85,86
 966 735 966 735 1017 723 c 0,87,88
 1086 707 1086 707 1122 658 c 0,89,90
 1146 625 1146 625 1150 583 c 0,91,92
 1153 543 1153 543 1136 506 c 0,93,94
 1119 468 1119 468 1086 445 c 1,95,96
 1054 421 1054 421 1013 414 c 0,97,98
 995 411 995 411 976 412 c 1,99,100
 958 366 958 366 922 336 c 1,101,102
 880 299 880 299 825 292.5 c 128,-1,103
 770 286 770 286 720 309.5 c 128,-1,104
 670 333 670 333 641.5 380.5 c 128,-1,105
 613 428 613 428 614 483 c 0,106,107
 614 535 614 535 642 582 c 0,108,109
 655 604 655 604 672 623 c 1,110,111
 671 624 671 624 670 625 c 0,112,113
 612 669 612 669 557 672 c 1,114,115
 492 678 492 678 442.5 635.5 c 128,-1,116
 393 593 393 593 388 529 c 0,117,118
 388 522 388 522 382.5 517.5 c 128,-1,119
 377 513 377 513 370 513.5 c 128,-1,120
 363 514 363 514 358.5 519.5 c 128,-1,121
 354 525 354 525 354 531 c 0,122,123
 361 610 361 610 420.5 661 c 128,-1,124
 480 712 480 712 559 706 c 1,125,126
 625 702 625 702 691 652 c 0,127,128
 693 650 693 650 698 647 c 1,81,82
EndSplineSet
EndChar

StartChar: f
Encoding: 102 102 73
Width: 343
GlyphClass: 2
Flags: W
LayerCount: 2
Fore
SplineSet
333 614 m 1,0,1
 300 627 300 627 281 627 c 0,2,3
 246 627 246 627 226 610 c 128,-1,4
 206 593 206 593 206 550 c 2,5,-1
 206 478 l 1,6,-1
 305 478 l 1,7,-1
 305 424 l 1,8,-1
 206 424 l 1,9,-1
 206 0 l 1,10,-1
 128 0 l 1,11,-1
 128 424 l 1,12,-1
 49 424 l 1,13,-1
 49 478 l 1,14,-1
 128 478 l 1,15,-1
 128 551 l 2,16,17
 128 622 128 622 167 655.5 c 128,-1,18
 206 689 206 689 257 689 c 128,-1,19
 308 689 308 689 347 676 c 1,20,-1
 333 614 l 1,0,1
EndSplineSet
EndChar

StartChar: g
Encoding: 103 103 74
Width: 565
GlyphClass: 2
Flags: W
LayerCount: 2
Fore
SplineSet
121 15 m 1,0,1
 61 44 61 44 61 104 c 0,2,3
 61 135 61 135 84.5 158.5 c 128,-1,4
 108 182 108 182 143 190 c 1,5,6
 89 238 89 238 89 316 c 256,7,8
 89 394 89 394 144.5 442 c 128,-1,9
 200 490 200 490 276 490 c 128,-1,10
 352 490 352 490 405 454 c 1,11,12
 412 507 412 507 447.5 539 c 128,-1,13
 483 571 483 571 541 571 c 1,14,-1
 534 493 l 1,15,16
 446 493 446 493 442 419 c 1,17,18
 477 376 477 376 477 316 c 0,19,20
 477 239 477 239 421.5 189.5 c 128,-1,21
 366 140 366 140 283 140 c 0,22,23
 226 140 226 140 182 163 c 1,24,25
 162 159 162 159 146 144.5 c 128,-1,26
 130 130 130 130 130 105 c 0,27,28
 130 52 130 52 218 52 c 2,29,-1
 404 52 l 2,30,31
 471 52 471 52 510 23.5 c 128,-1,32
 549 -5 549 -5 549 -56 c 0,33,34
 549 -132 549 -132 472.5 -189 c 128,-1,35
 396 -246 396 -246 279 -246 c 128,-1,36
 162 -246 162 -246 95 -202.5 c 128,-1,37
 28 -159 28 -159 28 -93 c 0,38,39
 28 -50 28 -50 53.5 -23 c 128,-1,40
 79 4 79 4 121 15 c 1,0,1
106 -90 m 256,41,42
 106 -128 106 -128 147.5 -155.5 c 128,-1,43
 189 -183 189 -183 273.5 -183 c 128,-1,44
 358 -183 358 -183 414.5 -146.5 c 128,-1,45
 471 -110 471 -110 471 -61 c 0,46,47
 471 -38 471 -38 454.5 -21.5 c 128,-1,48
 438 -5 438 -5 404 -5 c 2,49,-1
 211 -5 l 1,50,51
 160 -7 160 -7 133 -29.5 c 128,-1,52
 106 -52 106 -52 106 -90 c 256,41,42
369 400.5 m 128,-1,54
 338 433 338 433 283.5 433 c 128,-1,55
 229 433 229 433 198 400.5 c 128,-1,56
 167 368 167 368 167 316 c 256,57,58
 167 264 167 264 198.5 230.5 c 128,-1,59
 230 197 230 197 284 197 c 256,60,61
 338 197 338 197 369 231 c 128,-1,62
 400 265 400 265 400 316.5 c 128,-1,53
 400 368 400 368 369 400.5 c 128,-1,54
941 418 m 1,63,64
 906 426 906 426 873 445 c 0,65,66
 828 472 828 472 766 535 c 0,67,68
 716 587 716 587 698 602 c 1,69,70
 683 584 683 584 671 565 c 0,71,72
 648 525 648 525 648 482 c 0,73,74
 647 437 647 437 670.5 398.5 c 128,-1,75
 694 360 694 360 735 340.5 c 128,-1,76
 776 321 776 321 820.5 326.5 c 128,-1,77
 865 332 865 332 900 361 c 1,78,79
 926 384 926 384 941 418 c 1,63,64
951 451 m 1,80,81
 953 463 953 463 954 476 c 1,82,83
 954 508 954 508 939.5 539 c 128,-1,84
 925 570 925 570 902 591 c 0,85,86
 897 595 897 595 896 602.5 c 128,-1,87
 895 610 895 610 899.5 615 c 128,-1,88
 904 620 904 620 911.5 620.5 c 128,-1,89
 919 621 919 621 924 616 c 0,90,91
 954 590 954 590 971 552.5 c 128,-1,92
 988 515 988 515 988 475 c 1,93,94
 987 462 987 462 984 446 c 1,95,96
 997 446 997 446 1008 448 c 0,97,98
 1040 453 1040 453 1066 472 c 256,99,100
 1092 491 1092 491 1106 519 c 1,101,102
 1119 549 1119 549 1116 581 c 0,103,104
 1113 612 1113 612 1095 638 c 0,105,106
 1066 678 1066 678 1009 690 c 0,107,108
 965 700 965 700 902 692 c 0,109,110
 796 678 796 678 731 631 c 0,111,112
 727 628 727 628 724 625 c 1,113,114
 740 610 740 610 790 559 c 0,115,116
 849 499 849 499 891 475 c 1,117,118
 920 457 920 457 951 451 c 1,80,81
698 647 m 1,119,120
 704 653 704 653 711 658 c 0,121,122
 783 711 783 711 897 726 c 0,123,124
 966 735 966 735 1017 723 c 0,125,126
 1086 707 1086 707 1122 658 c 0,127,128
 1146 625 1146 625 1150 583 c 0,129,130
 1153 543 1153 543 1136 506 c 0,131,132
 1119 468 1119 468 1086 445 c 1,133,134
 1054 421 1054 421 1013 414 c 0,135,136
 995 411 995 411 976 412 c 1,137,138
 958 366 958 366 922 336 c 1,139,140
 880 299 880 299 825 292.5 c 128,-1,141
 770 286 770 286 720 309.5 c 128,-1,142
 670 333 670 333 641.5 380.5 c 128,-1,143
 613 428 613 428 614 483 c 0,144,145
 614 535 614 535 642 582 c 0,146,147
 655 604 655 604 672 623 c 1,148,149
 671 624 671 624 670 625 c 0,150,151
 612 669 612 669 557 672 c 1,152,153
 492 678 492 678 442.5 635.5 c 128,-1,154
 393 593 393 593 388 529 c 0,155,156
 388 522 388 522 382.5 517.5 c 128,-1,157
 377 513 377 513 370 513.5 c 128,-1,158
 363 514 363 514 358.5 519.5 c 128,-1,159
 354 525 354 525 354 531 c 0,160,161
 361 610 361 610 420.5 661 c 128,-1,162
 480 712 480 712 559 706 c 1,163,164
 625 702 625 702 691 652 c 0,165,166
 693 650 693 650 698 647 c 1,119,120
EndSplineSet
EndChar

StartChar: h
Encoding: 104 104 75
Width: 604
GlyphClass: 2
Flags: W
LayerCount: 2
Fore
SplineSet
180 390 m 1,0,1
 228 490 228 490 339 490 c 0,2,3
 424 490 424 490 471.5 434 c 128,-1,4
 519 378 519 378 519 281 c 2,5,-1
 519 0 l 1,6,-1
 441 0 l 1,7,-1
 441 281 l 2,8,9
 441 350 441 350 408.5 385 c 128,-1,10
 376 420 376 420 315 420 c 128,-1,11
 254 420 254 420 217 368.5 c 128,-1,12
 180 317 180 317 180 226 c 2,13,-1
 180 0 l 1,14,-1
 101 0 l 1,15,-1
 101 681 l 1,16,-1
 180 681 l 1,17,-1
 180 390 l 1,0,1
EndSplineSet
EndChar

